<svg width="1430" height="664" viewBox="0 0 1430 664" fill="none" xmlns="http://www.w3.org/2000/svg">
<path d="M1427.82 194.711L1427.32 194.656L1427.32 194.656L1427.82 194.711ZM1378.97 58.2491L1378.64 58.6207L1378.64 58.6212L1378.97 58.2491ZM1271.53 412.1L1271.27 411.669L1270.86 411.911L1271.08 412.332L1271.53 412.1ZM1344.14 543.97L1343.71 544.216L1343.71 544.226L1343.72 544.235L1344.14 543.97ZM1344.15 543.973L1344.59 543.742L1344.58 543.725L1344.57 543.708L1344.15 543.973ZM1344.15 543.977L1343.71 544.209L1343.71 544.216L1343.71 544.223L1344.15 543.977ZM1409.26 661.636L1409.13 662.118L1410.25 662.425L1409.71 661.401L1409.26 661.636ZM1389.61 661.881L1389.55 661.385L1389.55 661.385L1389.61 661.881ZM1366.29 661.636L1366.45 661.162L1366.45 661.161L1366.29 661.636ZM1352.25 641.244L1351.8 641.464L1351.8 641.464L1352.25 641.244ZM1347.75 632.404L1348.19 632.16L1348.19 632.159L1347.75 632.404ZM1287.42 527.545L1286.98 527.795L1286.98 527.797L1287.42 527.545ZM1287.4 527.517L1287.83 527.267L1287.83 527.265L1287.4 527.517ZM1287.39 527.503L1286.96 527.755L1286.96 527.755L1287.39 527.503ZM1287.37 527.469L1287.8 527.218L1287.8 527.218L1287.37 527.469ZM1226.63 421.809L1227.06 421.564L1226.92 421.309H1226.63V421.809ZM962.9 421.809V421.309H962.414L962.4 421.795L962.9 421.809ZM961.901 569.661H962.401L962.401 569.659L961.901 569.661ZM961.901 569.672H961.401L961.401 569.674L961.901 569.672ZM961.896 661.636V662.136H962.392L962.396 661.64L961.896 661.636ZM918 661.636H917.5V662.136H918V661.636ZM918 378.001V377.501H917.5V378.001H918ZM1200.27 378.001V378.501H1201.12L1200.71 377.758L1200.27 378.001ZM1092.18 189.143L1091.75 189.395L1091.75 189.395L1092.18 189.143ZM985.395 2.7142L985.418 2.21471L984.523 2.17411L984.958 2.95703L985.395 2.7142ZM1109.06 2.36053L1109.07 2.86035L1109.07 2.86035L1109.06 2.36053ZM1247.11 2.7142L1247.08 3.21327L1247.08 3.21329L1247.11 2.7142ZM1228.78 341.204L1229.22 340.956L1229.21 340.947L1228.78 341.204ZM1228.78 341.202L1228.35 341.45L1228.36 341.459L1228.78 341.202ZM1251.05 374.057L1250.69 374.399L1250.91 374.636L1251.22 374.529L1251.05 374.057ZM1353.62 299L1353.21 298.716L1353.21 298.716L1353.62 299ZM1388.79 156.668L1388.29 156.712L1388.29 156.712L1388.79 156.668ZM1343.8 76.7693L1343.49 77.1593L1343.49 77.1598L1343.8 76.7693ZM1255.92 38.7396L1255.87 39.2371L1255.87 39.2371L1255.92 38.7396ZM1185.98 37.4078L1185.97 36.9079L1185.97 36.9079L1185.98 37.4078ZM1053.72 38.7396L1053.23 38.8379L1053.25 38.9339L1053.3 39.0155L1053.72 38.7396ZM1087.4 95.8586L1087.85 95.6233L1087.84 95.6155L1087.4 95.8586ZM1087.41 95.8634L1086.97 96.0987L1086.97 96.1065L1087.41 95.8634ZM1103.57 124.508L1104 124.258L1104 124.257L1103.57 124.508ZM1145.29 196.905L1144.85 197.155L1144.86 197.157L1145.29 196.905ZM1145.3 196.927L1145.73 196.678L1145.73 196.676L1145.3 196.927ZM1145.32 196.957L1145.75 196.707L1145.75 196.707L1145.32 196.957ZM1224.7 334.101L1225.13 333.849L1225.13 333.848L1224.7 334.101ZM872 378.984L872.495 379.055L872.577 378.484H872V378.984ZM409.026 378.984V378.484H408.526V378.984H409.026ZM689.158 641.797L689.379 642.246L689.381 642.245L689.158 641.797ZM678.185 647.503L678.42 647.945L678.42 647.945L678.185 647.503ZM645.363 661.36L645.439 661.854L645.442 661.853L645.363 661.36ZM593.008 662.184L592.986 662.683L592.986 662.683L593.008 662.184ZM248.569 630.06L248.29 630.475L248.291 630.475L248.569 630.06ZM131.906 425.907L132.398 425.815L132.398 425.815L131.906 425.907ZM124.521 267.693L124.021 267.685L124.021 267.685L124.521 267.693ZM125.051 3.93435H125.551V3.92066L125.55 3.90699L125.051 3.93435ZM126.064 1V0.5H126.025L125.987 0.505934L126.064 1ZM828.218 1H828.718V0.5H828.218V1ZM828.218 44.9892V45.4892H828.718V44.9892H828.218ZM166.925 44.9892V44.4892H166.416L166.425 44.9978L166.925 44.9892ZM166.037 169.443L165.537 169.434V169.443H166.037ZM166.037 169.449L166.537 169.458V169.449H166.037ZM211.642 521.593L212.071 521.337L212.071 521.337L211.642 521.593ZM319.605 610.484L319.766 610.011L319.766 610.011L319.605 610.484ZM595.18 619.078L595.156 619.577L595.168 619.578H595.18V619.078ZM595.184 619.078L595.208 618.578L595.196 618.578H595.184V619.078ZM638.598 618.375L638.676 618.868L638.677 618.868L638.598 618.375ZM701.778 589.005L701.506 588.586L701.506 588.586L701.778 589.005ZM818.518 428.829L818.993 428.987L819.212 428.329H818.518V428.829ZM409.026 428.829H408.526V429.329H409.026V428.829ZM105 10H105.5V9.5H105V10ZM105 86V86.5H105.5V86H105ZM87.2149 10V9.5H86.7333L86.7152 9.98119L87.2149 10ZM87.2025 31.7987L87.7024 31.7902L87.7024 31.7902L87.2025 31.7987ZM86.1967 65.8053V66.3053H86.6328L86.6921 65.8732L86.1967 65.8053ZM59.4727 65.8053H58.9727V66.3053H59.4727V65.8053ZM59.4727 15.7938H59.9727V15.2938H59.4727V15.7938ZM41.6876 15.7938V15.2938H41.1876V15.7938H41.6876ZM41.6876 65.8053L41.6439 66.3034L42.1876 66.351V65.8053H41.6876ZM32.6019 65.8079V66.3079H32.6117L32.6215 66.3075L32.6019 65.8079ZM32.6019 65.8079V65.3079H32.5921L32.5823 65.3083L32.6019 65.8079ZM18.8645 64.8161H18.3645V65.1549L18.6791 65.2805L18.8645 64.8161ZM18.8645 11.9013H19.3645V11.4013H18.8645V11.9013ZM1 11.9013V11.4013H0.5V11.9013H1ZM1 86H0.5V86.5H1V86ZM104.71 111.193L105.209 111.226L105.209 111.226L104.71 111.193ZM104.67 121.525L105.031 121.871L105.201 121.693L105.164 121.45L104.67 121.525ZM102.729 96L103.086 95.6501L102.777 95.3347L102.426 95.6022L102.729 96ZM88.2726 106.014L88.5487 106.431L88.5487 106.431L88.2726 106.014ZM59.5114 129.77L59.0117 129.785L59.0582 131.282L59.9202 130.058L59.5114 129.77ZM7.44324 114.425L7.03368 114.138L7.03342 114.138L7.44324 114.425ZM1.6221 159.219L2.12135 159.191L2.12135 159.191L1.6221 159.219ZM1.52968 191L1.03343 190.939L0.964332 191.5H1.52968V191ZM104.67 191V191.5H105.17V191H104.67ZM104.67 169.509H105.17V169.009H104.67V169.509ZM62.4617 169.509L61.9623 169.535L61.9871 170.009H62.4617V169.509ZM87.6184 133.16L87.8575 133.599L87.8575 133.599L87.6184 133.16ZM41.8756 129.77L42.3248 129.55L42.2603 129.418L42.135 129.342L41.8756 129.77ZM19.2573 169.509L18.758 169.537L18.7845 170.009H19.2573V169.509ZM45.4854 157.891L44.9855 157.896L44.9855 157.896L45.4854 157.891ZM45.7568 169.509V170.009H46.2852L46.2561 169.481L45.7568 169.509ZM104.67 340.525L105.031 340.871L105.201 340.693L105.164 340.45L104.67 340.525ZM104.71 330.193L105.209 330.226L105.209 330.226L104.71 330.193ZM87.618 352.157L87.857 352.596L87.857 352.596L87.618 352.157ZM62.4617 388.509L61.9623 388.535L61.9871 389.009H62.4617V388.509ZM104.67 388.509H105.17V388.009H104.67V388.509ZM104.67 410V410.5H105.17V410H104.67ZM1.52968 410L1.03343 409.939L0.964366 410.5H1.52968V410ZM1.62204 378.207L2.12129 378.18L1.62204 378.207ZM7.44324 333.411L7.03378 333.124L7.03342 333.125L7.44324 333.411ZM59.5114 348.77L59.0117 348.785L59.0582 350.282L59.9202 349.058L59.5114 348.77ZM88.2726 325.014L87.9964 324.597L87.9964 324.597L88.2726 325.014ZM102.729 315L103.086 314.65L102.777 314.335L102.426 314.602L102.729 315ZM19.2573 388.509L18.758 388.537L18.7845 389.009H19.2573V388.509ZM41.8756 348.77L42.3248 348.55L42.2603 348.418L42.135 348.342L41.8756 348.77ZM45.7568 388.509V389.009H46.2852L46.2561 388.481L45.7568 388.509ZM45.4854 376.891L44.9855 376.896L44.9855 376.896L45.4854 376.891ZM104.706 214.487L105.204 214.524L105.204 214.524L104.706 214.487ZM104.658 223.717L104.804 224.196L105.225 224.067L105.151 223.633L104.658 223.717ZM102.707 201L103.026 200.615L102.79 200.419L102.508 200.541L102.707 201ZM51.937 221.724L52.0743 222.205L52.098 222.198L52.1208 222.189L51.937 221.724ZM51.9368 221.724L51.7995 221.244L51.7801 221.249L51.7613 221.256L51.9368 221.724ZM51.9365 221.725L51.7609 221.256L51.7526 221.26L51.9365 221.725ZM1 242.521L0.800559 242.062L0.5 242.193V242.521H1ZM1 264.392H0.5V264.73L0.814629 264.856L1 264.392ZM97.2071 302.105L97.3882 301.639L97.3882 301.639L97.2071 302.105ZM104.658 305L104.477 305.466L105.158 305.731V305H104.658ZM104.658 282.177H105.158V281.823L104.824 281.705L104.658 282.177ZM98.633 280.197L98.4817 280.674L98.4817 280.674L98.633 280.197ZM81.9995 273.251H81.4995V273.518L81.7215 273.667L81.9995 273.251ZM81.9995 231.625L81.9071 231.133L81.4995 231.21V231.625H81.9995ZM95.7914 227.061L95.5993 226.599L95.5993 226.599L95.7914 227.061ZM51.9369 263.046L52.0901 262.57L52.0901 262.57L51.9369 263.046ZM64.1915 267.288L64.0069 267.752L64.6915 268.024V267.288H64.1915ZM27.7055 252.478L27.5824 251.993L26.557 252.253L27.4091 252.88L27.7055 252.478ZM45.9361 246.06L45.7652 245.59L45.7564 245.593L45.7476 245.597L45.9361 246.06ZM45.9362 246.06L46.1071 246.53L46.1159 246.527L46.1246 246.523L45.9362 246.06ZM64.1915 239.638H64.6915V238.996L64.0688 239.153L64.1915 239.638ZM1428.32 194.766C1434.88 135.869 1413.5 88.5565 1379.3 57.8769L1378.64 58.6212C1412.59 89.0859 1433.85 136.08 1427.32 194.656L1428.32 194.766ZM1271.78 412.531C1312.26 388.641 1348.31 362.174 1375.78 327.686C1403.26 293.19 1422.14 250.691 1428.32 194.766L1427.32 194.656C1421.17 250.4 1402.36 292.719 1375 327.063C1347.64 361.414 1311.71 387.807 1271.27 411.669L1271.78 412.531ZM1344.58 543.724C1319.99 500.168 1295.41 456.61 1271.97 411.868L1271.08 412.332C1294.53 457.09 1319.12 500.661 1343.71 544.216L1344.58 543.724ZM1344.57 543.708L1344.57 543.705L1343.72 544.235L1343.72 544.238L1344.57 543.708ZM1344.59 543.746L1344.59 543.742L1343.7 544.204L1343.71 544.209L1344.59 543.746ZM1409.71 661.401C1388.55 621.621 1366.57 582.676 1344.58 543.732L1343.71 544.223C1365.7 583.17 1387.67 622.103 1408.82 661.871L1409.71 661.401ZM1389.67 662.378C1396.92 661.491 1403.81 660.658 1409.13 662.118L1409.4 661.154C1403.84 659.63 1396.73 660.507 1389.55 661.385L1389.67 662.378ZM1366.13 662.11C1373.03 664.423 1381.57 663.369 1389.67 662.378L1389.55 661.385C1381.38 662.385 1373.09 663.388 1366.45 661.162L1366.13 662.11ZM1351.8 641.464C1353.98 645.935 1356.28 650.657 1358.65 654.462C1359.84 656.365 1361.05 658.055 1362.29 659.375C1363.52 660.69 1364.8 661.673 1366.14 662.111L1366.45 661.161C1365.34 660.798 1364.2 659.951 1363.02 658.692C1361.85 657.437 1360.67 655.808 1359.5 653.933C1357.16 650.181 1354.88 645.509 1352.7 641.025L1351.8 641.464ZM1347.31 632.649C1348.74 635.192 1350.24 638.263 1351.8 641.464L1352.7 641.025C1351.14 637.832 1349.63 634.733 1348.19 632.16L1347.31 632.649ZM1286.98 527.797C1307.46 563.009 1328.11 598.53 1347.31 632.649L1348.19 632.159C1328.98 598.033 1308.32 562.505 1287.85 527.294L1286.98 527.797ZM1286.97 527.767L1286.98 527.795L1287.85 527.295L1287.83 527.267L1286.97 527.767ZM1286.96 527.755L1286.97 527.769L1287.83 527.265L1287.82 527.252L1286.96 527.755ZM1286.94 527.72L1286.96 527.755L1287.82 527.252L1287.8 527.218L1286.94 527.72ZM1226.19 422.054C1245.07 455.707 1265.91 491.55 1286.94 527.721L1287.8 527.218C1266.77 491.046 1245.94 455.21 1227.06 421.564L1226.19 422.054ZM962.9 422.309H1226.63V421.309H962.9V422.309ZM962.401 569.659C962.199 519.835 961.997 470.013 963.4 421.824L962.4 421.795C960.997 470.004 961.199 519.842 961.401 569.663L962.401 569.659ZM962.401 569.664V569.661H961.401V569.664H962.401ZM962.401 569.667V569.664H961.401V569.667H962.401ZM962.401 569.67V569.667H961.401V569.67H962.401ZM962.401 569.672V569.67H961.401V569.672H962.401ZM962.396 661.64C962.65 631.242 962.525 600.456 962.401 569.67L961.401 569.674C961.525 600.461 961.65 631.241 961.396 661.632L962.396 661.64ZM918 662.136H961.896V661.136H918V662.136ZM917.5 378.001V661.636H918.5V378.001H917.5ZM1200.27 377.501H918V378.501H1200.27V377.501ZM1091.75 189.395C1128.5 252.612 1165.11 315.577 1199.83 378.243L1200.71 377.758C1165.98 315.082 1129.37 252.108 1092.61 188.892L1091.75 189.395ZM984.958 2.95703C1019.6 65.3093 1055.74 127.473 1091.75 189.395L1092.61 188.892C1056.61 126.969 1020.47 64.8137 985.832 2.47137L984.958 2.95703ZM1109.05 1.86071C1067.68 2.97034 1026.44 4.07625 985.418 2.21471L985.373 3.21369C1026.44 5.07713 1067.71 3.96982 1109.07 2.86035L1109.05 1.86071ZM1247.14 2.21514C1201.06 -0.607718 1154.97 0.628812 1109.05 1.86071L1109.07 2.86035C1155.01 1.62826 1201.05 0.39355 1247.08 3.21326L1247.14 2.21514ZM1379.3 57.8774C1345.73 27.6576 1304.09 5.65886 1247.14 2.21511L1247.08 3.21329C1303.77 6.64144 1345.2 28.5292 1378.64 58.6207L1379.3 57.8774ZM1229.21 340.947L1229.21 340.945L1228.36 341.459L1228.36 341.461L1229.21 340.947ZM1251.42 373.715C1242.5 364.191 1235.8 352.482 1229.22 340.956L1228.35 341.452C1234.92 352.959 1241.67 364.774 1250.69 374.399L1251.42 373.715ZM1353.21 298.716C1328.86 334.04 1292.6 359.037 1250.89 373.585L1251.22 374.529C1293.09 359.924 1329.55 334.813 1354.03 299.284L1353.21 298.716ZM1388.29 156.712C1393.41 214.485 1377.57 263.462 1353.21 298.716L1354.03 299.284C1378.52 263.841 1394.42 214.633 1389.29 156.624L1388.29 156.712ZM1343.49 77.1598C1366.24 95.3568 1385.29 122.638 1388.29 156.712L1389.29 156.624C1386.26 122.214 1367.02 94.7019 1344.11 76.3788L1343.49 77.1598ZM1255.87 39.2371C1289.08 42.5697 1321.3 59.3577 1343.49 77.1593L1344.11 76.3794C1321.82 58.494 1289.42 41.5992 1255.97 38.2421L1255.87 39.2371ZM1185.99 37.9077C1209.62 37.4211 1233.12 36.9381 1255.87 39.2371L1255.97 38.2422C1233.15 35.936 1209.59 36.4216 1185.97 36.9079L1185.99 37.9077ZM1156.28 38.3156C1166.17 38.3156 1176.09 38.1114 1185.99 37.9077L1185.97 36.9079C1176.07 37.1116 1166.16 37.3156 1156.28 37.3156V38.3156ZM1054.73 38.3156H1156.28V37.3156H1054.73V38.3156ZM1054.21 38.6414C1054.17 38.4808 1054.19 38.4097 1054.2 38.3912C1054.2 38.3857 1054.19 38.3892 1054.2 38.3844C1054.22 38.3721 1054.27 38.3507 1054.37 38.3354C1054.47 38.3205 1054.59 38.3156 1054.73 38.3156V37.3156C1054.45 37.3156 1054.01 37.3246 1053.67 37.5363C1053.48 37.6568 1053.32 37.8384 1053.24 38.0855C1053.17 38.3196 1053.17 38.5755 1053.23 38.8379L1054.21 38.6414ZM1087.84 95.6155C1076.99 76.1127 1066.14 56.608 1054.13 38.4637L1053.3 39.0155C1065.28 57.1222 1076.11 76.5927 1086.97 96.1017L1087.84 95.6155ZM1087.85 95.6281L1087.85 95.6233L1086.96 96.0939L1086.97 96.0987L1087.85 95.6281ZM1104 124.257C1098.52 114.816 1093.18 105.218 1087.84 95.6203L1086.97 96.1065C1092.31 105.703 1097.65 115.309 1103.14 124.759L1104 124.257ZM1145.72 196.656C1131.8 172.451 1117.88 148.26 1104 124.258L1103.14 124.759C1117.02 148.759 1130.93 172.949 1144.85 197.155L1145.72 196.656ZM1145.73 196.676L1145.72 196.654L1144.86 197.157L1144.87 197.179L1145.73 196.676ZM1145.75 196.707L1145.73 196.678L1144.87 197.177L1144.88 197.206L1145.75 196.707ZM1225.13 333.848C1198.78 288.89 1172.25 242.774 1145.75 196.707L1144.88 197.206C1171.38 243.272 1197.91 289.391 1224.26 334.354L1225.13 333.848ZM1229.22 340.954C1227.86 338.57 1226.5 336.193 1225.13 333.849L1224.26 334.354C1225.63 336.693 1226.99 339.065 1228.35 341.45L1229.22 340.954ZM872 378.484H409.026V379.484H872V378.484ZM689.381 642.245C788.316 593.055 854.256 505.962 872.495 379.055L871.505 378.913C853.311 505.507 787.566 592.311 688.935 641.35L689.381 642.245ZM678.42 647.945C682.189 645.937 685.875 643.975 689.379 642.246L688.937 641.349C685.416 643.086 681.716 645.056 677.95 647.062L678.42 647.945ZM645.442 661.853C655.298 660.266 667.245 653.896 678.42 647.945L677.95 647.062C666.718 653.044 654.938 659.311 645.283 660.866L645.442 661.853ZM592.986 662.683C611.256 663.501 629.478 664.319 645.439 661.854L645.286 660.866C629.443 663.313 611.327 662.504 593.031 661.684L592.986 662.683ZM565.64 661.86C574.597 661.86 583.799 662.272 592.986 662.683L593.031 661.684C583.848 661.273 574.623 660.86 565.64 660.86V661.86ZM326.369 661.86H565.64V660.86H326.369V661.86ZM248.291 630.475C257.832 636.858 271.081 644.698 285.069 650.944C299.046 657.186 313.812 661.86 326.369 661.86V660.86C314.023 660.86 299.412 656.254 285.477 650.031C271.552 643.813 258.353 636.003 248.847 629.644L248.291 630.475ZM131.415 425.999C147.476 511.596 185.214 588.208 248.29 630.475L248.847 629.645C186.081 587.585 148.433 511.272 132.398 425.815L131.415 425.999ZM124.021 267.685C123.138 323.02 122.27 377.288 131.415 425.999L132.398 425.815C123.275 377.222 124.137 323.061 125.021 267.701L124.021 267.685ZM124.551 217.816C124.551 234.459 124.285 251.121 124.021 267.685L125.021 267.701C125.285 251.138 125.551 234.469 125.551 217.816H124.551ZM124.551 3.93435V217.816H125.551V3.93435H124.551ZM125.987 0.505934C125.606 0.565193 125.293 0.734651 125.06 0.998809C124.835 1.25336 124.707 1.56733 124.632 1.88249C124.487 2.49871 124.513 3.26184 124.552 3.96171L125.55 3.90699C125.51 3.18534 125.498 2.56606 125.606 2.11287C125.657 1.89332 125.73 1.75084 125.809 1.66142C125.879 1.58161 125.976 1.51958 126.14 1.49407L125.987 0.505934ZM828.218 0.5H126.064V1.5H828.218V0.5ZM828.718 44.9892V1H827.718V44.9892H828.718ZM166.925 45.4892H828.218V44.4892H166.925V45.4892ZM166.537 169.453C167.329 127.977 168.129 86.0822 167.424 44.9806L166.425 44.9978C167.129 86.0782 166.329 127.955 165.537 169.434L166.537 169.453ZM166.537 169.444V169.443H165.537V169.444H166.537ZM166.537 169.445V169.444H165.537V169.445H166.537ZM166.537 169.446V169.445H165.537V169.446H166.537ZM166.537 169.447V169.446H165.537V169.447H166.537ZM166.537 169.449V169.447H165.537V169.449H166.537ZM212.071 521.337C186.773 479.024 174.732 425.04 169.348 364.617C163.964 304.197 165.239 237.393 166.537 169.458L165.537 169.439C164.24 237.36 162.962 304.221 168.352 364.706C173.741 425.187 185.801 479.347 211.213 521.85L212.071 521.337ZM319.766 610.011C269.839 593.022 236.325 561.952 212.071 521.337L211.212 521.85C235.571 562.64 269.262 593.882 319.443 610.958L319.766 610.011ZM376.929 617.875C353.731 617.875 337.418 616.038 319.766 610.011L319.443 610.958C337.237 617.033 353.671 618.875 376.929 618.875V617.875ZM573.418 617.875H376.929V618.875H573.418V617.875ZM595.204 618.578C587.829 618.226 580.487 617.875 573.418 617.875V618.875C580.459 618.875 587.776 619.224 595.156 619.577L595.204 618.578ZM595.181 618.578H595.18V619.578H595.181V618.578ZM595.181 618.578H595.181V619.578H595.181V618.578ZM595.182 618.578H595.181V619.578H595.182V618.578ZM595.183 618.578H595.182V619.578H595.183V618.578ZM595.184 618.578H595.183V619.578H595.184V618.578ZM638.519 617.881C625.163 620.008 610.122 619.291 595.208 618.578L595.16 619.577C610.049 620.289 625.199 621.015 638.676 618.868L638.519 617.881ZM701.506 588.586C693.703 593.657 682.625 600.233 671.154 605.917C659.673 611.606 647.841 616.381 638.518 617.881L638.677 618.868C648.155 617.343 660.098 612.512 671.598 606.813C683.109 601.109 694.221 594.513 702.051 589.424L701.506 588.586ZM818.044 428.671C795.258 497.096 757.456 552.301 701.506 588.586L702.051 589.425C758.231 552.99 796.152 497.576 818.993 428.987L818.044 428.671ZM409.026 429.329H818.518V428.329H409.026V429.329ZM408.526 378.984V428.829H409.526V378.984H408.526ZM104.5 10V86H105.5V10H104.5ZM87.2149 10.5H105V9.5H87.2149V10.5ZM87.7024 31.7902C87.5766 24.395 87.4512 17.0156 87.7145 10.0188L86.7152 9.98119C86.4507 17.0102 86.5768 24.4177 86.7025 31.8072L87.7024 31.7902ZM86.6921 65.8732C88.1077 55.5463 87.9041 43.6439 87.7024 31.7902L86.7025 31.8072C86.9046 43.6815 87.1045 55.5016 85.7013 65.7374L86.6921 65.8732ZM59.4727 66.3053H86.1967V65.3053H59.4727V66.3053ZM58.9727 15.7938V65.8053H59.9727V15.7938H58.9727ZM41.6876 16.2938H59.4727V15.2938H41.6876V16.2938ZM42.1876 65.8053V15.7938H41.1876V65.8053H42.1876ZM32.6215 66.3075C35.7772 66.1839 38.8961 66.0624 41.6439 66.3034L41.7313 65.3072C38.908 65.0596 35.7217 65.1853 32.5824 65.3083L32.6215 66.3075ZM32.6019 66.3079H32.6019V65.3079H32.6019V66.3079ZM18.6791 65.2805C20.5024 66.0081 22.7204 66.3096 25.0976 66.4094C27.4784 66.5093 30.0611 66.4078 32.6214 66.3075L32.5823 65.3083C30.0126 65.409 27.4722 65.5082 25.1395 65.4103C22.8033 65.3122 20.7176 65.0173 19.0498 64.3517L18.6791 65.2805ZM18.3645 11.9013V64.8161H19.3645V11.9013H18.3645ZM1 12.4013H18.8645V11.4013H1V12.4013ZM1.5 86V11.9013H0.5V86H1.5ZM105 85.5H1V86.5H105V85.5ZM104.211 111.16C103.968 114.833 103.718 118.578 104.175 121.6L105.164 121.45C104.727 118.558 104.963 114.935 105.209 111.226L104.211 111.16ZM102.372 96.3499C103.64 97.645 104.227 99.7496 104.422 102.394C104.615 105.024 104.415 108.071 104.211 111.16L105.209 111.226C105.411 108.156 105.618 105.034 105.419 102.32C105.22 99.6217 104.613 97.2095 103.086 95.6501L102.372 96.3499ZM88.5487 106.431C93.5925 103.09 98.596 99.7756 103.032 96.3978L102.426 95.6022C98.0211 98.9564 93.0464 102.252 87.9964 105.597L88.5487 106.431ZM59.9202 130.058C66.062 121.336 77.385 113.826 88.5487 106.431L87.9964 105.597C76.8878 112.956 65.3764 120.573 59.1026 129.482L59.9202 130.058ZM7.85281 114.712C14.1492 105.72 26.7133 102.814 37.8822 105.545C49.028 108.27 58.6009 116.565 59.0117 129.785L60.0112 129.754C59.5828 115.965 49.5728 107.374 38.1198 104.573C26.69 101.779 13.6396 104.705 7.03368 114.138L7.85281 114.712ZM2.12135 159.191C1.64278 150.475 1.18154 142.058 1.79344 134.45C2.40519 126.844 4.08655 120.1 7.85306 114.711L7.03342 114.138C3.12249 119.734 1.41517 126.68 0.796661 134.37C0.178297 142.059 0.645208 150.547 1.12285 159.246L2.12135 159.191ZM2.02593 191.061C3.30309 180.69 2.69975 169.726 2.12135 159.191L1.12285 159.246C1.70223 169.799 2.2978 180.671 1.03343 190.939L2.02593 191.061ZM104.67 190.5H1.52968V191.5H104.67V190.5ZM104.17 169.509V191H105.17V169.509H104.17ZM62.4617 170.009H104.67V169.009H62.4617V170.009ZM87.3792 132.721C80.8191 136.294 74.1588 139.915 69.3011 145.432C64.4178 150.979 61.3808 158.406 61.9623 169.535L62.961 169.483C62.3917 158.59 65.3568 151.425 70.0516 146.093C74.7719 140.732 81.2654 137.189 87.8575 133.599L87.3792 132.721ZM104.308 121.179C99.6776 126.018 93.5721 129.348 87.3792 132.721L87.8575 133.599C94.0225 130.241 100.274 126.842 105.031 121.871L104.308 121.179ZM42.135 129.342C36.2966 125.801 31.7383 125.126 28.225 126.643C24.7289 128.153 22.4505 131.757 20.9792 136.332C18.0345 145.488 18.1684 159.017 18.758 169.537L19.7565 169.481C19.166 158.946 19.0508 145.594 21.9312 136.638C23.3724 132.157 25.5251 128.898 28.6214 127.561C31.7007 126.232 35.8964 126.728 41.6163 130.197L42.135 129.342ZM45.9854 157.887C45.9422 152.623 45.8991 147.326 45.4346 142.465C44.9704 137.608 44.0822 133.142 42.3248 129.55L41.4265 129.99C43.1058 133.422 43.9792 137.748 44.4392 142.56C44.8988 147.369 44.9422 152.621 44.9855 157.896L45.9854 157.887ZM46.2561 169.481C46.05 165.748 46.0177 161.826 45.9854 157.887L44.9855 157.896C45.0177 161.83 45.05 165.776 45.2576 169.536L46.2561 169.481ZM19.2573 170.009H45.7568V169.009H19.2573V170.009ZM105.164 340.45C104.727 337.558 104.963 333.935 105.209 330.226L104.211 330.16C103.968 333.833 103.718 337.578 104.175 340.6L105.164 340.45ZM87.857 352.596C94.0221 349.24 100.273 345.842 105.031 340.871L104.308 340.179C99.6775 345.018 93.5719 348.347 87.3789 351.718L87.857 352.596ZM62.961 388.483C62.3917 377.586 65.3568 370.419 70.0515 365.087C74.7716 359.726 81.2649 356.185 87.857 352.596L87.3789 351.718C80.8188 355.289 74.1586 358.909 69.3009 364.426C64.4177 369.973 61.3808 377.402 61.9623 388.535L62.961 388.483ZM104.67 388.009H62.4617V389.009H104.67V388.009ZM105.17 410V388.509H104.17V410H105.17ZM1.52968 410.5H104.67V409.5H1.52968V410.5ZM1.12279 378.235C1.70219 388.79 2.29785 399.666 1.03343 409.939L2.02594 410.061C3.30313 399.684 2.69971 388.717 2.12129 378.18L1.12279 378.235ZM7.03342 333.125C3.12257 338.72 1.41524 345.666 0.796699 353.356C0.178303 361.045 0.64516 369.534 1.12279 378.235L2.12129 378.18C1.64273 369.462 1.18155 361.045 1.79348 353.437C2.40526 345.83 4.08663 339.087 7.85306 333.698L7.03342 333.125ZM60.0112 348.754C59.5828 334.965 49.5728 326.374 38.1198 323.572C26.6902 320.775 13.6398 323.698 7.03378 333.124L7.85271 333.698C14.149 324.714 26.7131 321.81 37.8822 324.543C49.028 327.27 58.6009 335.565 59.0117 348.785L60.0112 348.754ZM87.9964 324.597C76.8878 331.956 65.3764 339.573 59.1026 348.482L59.9202 349.058C66.062 340.336 77.385 332.826 88.5487 325.431L87.9964 324.597ZM102.426 314.602C98.0211 317.956 93.0464 321.252 87.9964 324.597L88.5487 325.431C93.5925 322.09 98.596 318.776 103.032 315.398L102.426 314.602ZM105.209 330.226C105.411 327.156 105.618 324.034 105.419 321.32C105.22 318.622 104.613 316.21 103.086 314.65L102.372 315.35C103.64 316.645 104.227 318.75 104.422 321.394C104.615 324.024 104.415 327.071 104.211 330.16L105.209 330.226ZM19.7565 388.481C19.166 377.946 19.0508 364.594 21.9312 355.638C23.3724 351.157 25.5251 347.898 28.6214 346.561C31.7007 345.232 35.8964 345.728 41.6163 349.197L42.135 348.342C36.2966 344.801 31.7383 344.126 28.225 345.643C24.7289 347.153 22.4505 350.757 20.9792 355.332C18.0345 364.488 18.1684 378.017 18.758 388.537L19.7565 388.481ZM45.7568 388.009H19.2573V389.009H45.7568V388.009ZM44.9855 376.896C45.0177 380.83 45.05 384.776 45.2576 388.536L46.2561 388.481C46.05 384.748 46.0177 380.826 45.9854 376.887L44.9855 376.896ZM41.4265 348.99C43.1058 352.422 43.9792 356.748 44.4392 361.56C44.8988 366.369 44.9422 371.621 44.9855 376.896L45.9854 376.887C45.9422 371.623 45.8991 366.326 45.4346 361.465C44.9704 356.608 44.0822 352.142 42.3248 348.55L41.4265 348.99ZM104.207 214.45C103.963 217.747 103.71 221.125 104.165 223.801L105.151 223.633C104.72 221.103 104.957 217.862 105.204 214.524L104.207 214.45ZM102.389 201.385C103.639 202.419 104.226 204.223 104.422 206.575C104.616 208.912 104.414 211.658 104.207 214.45L105.204 214.524C105.409 211.754 105.62 208.923 105.418 206.492C105.217 204.075 104.6 201.917 103.026 200.615L102.389 201.385ZM52.1208 222.189C69.2076 215.435 86.3014 208.678 102.907 201.459L102.508 200.541C85.9208 207.753 68.8428 214.504 51.7532 221.259L52.1208 222.189ZM52.0742 222.205L52.0743 222.205L51.7996 221.244L51.7995 221.244L52.0742 222.205ZM52.112 222.193L52.1124 222.193L51.7613 221.256L51.7609 221.256L52.112 222.193ZM1.19944 242.979C17.8438 235.739 34.9786 228.966 52.1203 222.19L51.7526 221.26C34.6138 228.035 17.4631 234.814 0.800559 242.062L1.19944 242.979ZM1.5 264.392V242.521H0.5V264.392H1.5ZM97.3882 301.639C65.2484 289.155 33.069 276.655 1.18537 263.927L0.814629 264.856C32.7033 277.586 64.887 290.087 97.0261 302.572L97.3882 301.639ZM104.839 304.534L97.3882 301.639L97.0261 302.572L104.477 305.466L104.839 304.534ZM104.158 282.177V305H105.158V282.177H104.158ZM98.4817 280.674C100.514 281.319 102.532 281.959 104.492 282.649L104.824 281.705C102.847 281.01 100.814 280.365 98.7843 279.721L98.4817 280.674ZM81.7215 273.667C86.5328 276.885 92.5749 278.799 98.4817 280.674L98.7843 279.721C92.8445 277.835 86.9484 275.959 82.2775 272.836L81.7215 273.667ZM81.4995 231.625V273.251H82.4995V231.625H81.4995ZM95.5993 226.599C91.276 228.398 87.0008 230.176 81.9071 231.133L82.0919 232.116C87.3024 231.137 91.6684 229.318 95.9835 227.522L95.5993 226.599ZM104.512 223.239C101.367 224.198 98.4709 225.404 95.5993 226.599L95.9835 227.522C98.8612 226.325 101.713 225.138 104.804 224.196L104.512 223.239ZM51.7836 263.521C55.9489 264.863 60.0929 266.198 64.0069 267.752L64.376 266.823C60.4257 265.254 56.2494 263.909 52.0901 262.57L51.7836 263.521ZM27.4091 252.88C34.1651 257.852 43.0316 260.703 51.7836 263.521L52.0901 262.57C43.2982 259.738 34.6015 256.932 28.0018 252.075L27.4091 252.88ZM45.7476 245.597C39.8954 247.978 34.0755 250.345 27.5824 251.993L27.8285 252.962C34.3984 251.295 40.2799 248.901 46.1245 246.523L45.7476 245.597ZM45.7653 245.59L45.7652 245.59L46.1069 246.53L46.1071 246.53L45.7653 245.59ZM64.0688 239.153C57.4924 240.818 51.6038 243.214 45.7478 245.597L46.1246 246.523C51.9884 244.137 57.8151 241.767 64.3141 240.123L64.0688 239.153ZM64.6915 267.288V239.638H63.6915V267.288H64.6915Z" fill="#2D2D2D"/>
</svg>
