<svg width="258" height="432" viewBox="0 0 258 432" fill="none" xmlns="http://www.w3.org/2000/svg">
<path d="M934.234 126.824L933.737 126.769V126.769L934.234 126.824ZM902.495 38.1859L902.161 38.5576L902.161 38.5582L902.495 38.1859ZM832.688 268.029L832.434 267.598L832.024 267.84L832.245 268.261L832.688 268.029ZM879.87 353.686L879.434 353.932L879.443 353.948L879.454 353.964L879.87 353.686ZM879.87 353.687L880.309 353.448L880.299 353.428L880.286 353.41L879.87 353.687ZM879.872 353.691L880.337 353.505L880.326 353.478L880.311 353.452L879.872 353.691ZM879.873 353.693L879.409 353.878L879.421 353.909L879.438 353.938L879.873 353.693ZM922.177 430.114L922.045 430.596L923.163 430.903L922.619 429.879L922.177 430.114ZM909.409 430.273L909.47 430.77L909.409 430.273ZM894.259 430.114L894.418 429.64L894.415 429.639L894.259 430.114ZM885.134 416.869L884.677 417.072L884.68 417.08L884.684 417.088L885.134 416.869ZM885.133 416.867L885.59 416.664L885.585 416.654L885.133 416.867ZM885.132 416.866L885.585 416.653L885.579 416.642L885.132 416.866ZM885.13 416.862L884.681 417.081L884.683 417.086L885.13 416.862ZM882.211 411.127L882.647 410.882L882.647 410.881L882.211 411.127ZM842.996 342.989L843.429 342.737L842.996 342.989ZM803.516 274.335L803.952 274.091L803.809 273.835H803.516V274.335ZM632.172 274.335V273.835H631.686L631.672 274.321L632.172 274.335ZM631.522 370.358H632.022V370.356L631.522 370.358ZM631.522 370.379H631.022V370.381L631.522 370.379ZM631.519 430.114V430.614H632.015L632.019 430.118L631.519 430.114ZM603 430.114H602.5V430.614H603V430.114ZM603 245.88V245.38H602.5V245.88H603ZM786.393 245.88V246.38H787.242L786.83 245.637L786.393 245.88ZM716.169 123.216L716.602 122.964L716.6 122.961L716.169 123.216ZM716.165 123.208L715.733 123.459L715.734 123.462L716.165 123.208ZM716.162 123.203L715.73 123.454L715.73 123.455L716.162 123.203ZM646.787 2.11345L646.81 1.61397L645.915 1.57337L646.35 2.35633L646.787 2.11345ZM727.132 1.88373L727.146 2.38355L727.132 1.88373ZM816.827 2.11345L816.796 2.61252L816.797 2.61254L816.827 2.11345ZM819.386 243.318L819.021 243.66L819.243 243.897L819.55 243.79L819.386 243.318ZM804.918 221.977L805.352 221.729L804.918 221.977ZM886.024 194.565L885.613 194.281L885.612 194.281L886.024 194.565ZM908.875 102.114L908.377 102.158V102.158L908.875 102.114ZM879.644 50.2157L879.331 50.6057L879.332 50.6063L879.644 50.2157ZM822.546 25.5137L822.496 26.0111L822.496 26.0112L822.546 25.5137ZM777.106 24.6486L777.116 25.1485L777.106 24.6486ZM691.176 25.5137L690.686 25.6119L690.705 25.7079L690.759 25.7896L691.176 25.5137ZM713.064 62.6167L712.627 62.8598L712.633 62.8713L712.64 62.8824L713.064 62.6167ZM713.064 62.6173L713.492 62.3576L713.488 62.3515L713.064 62.6173ZM713.065 62.6182L713.502 62.375L713.497 62.3667L713.492 62.3585L713.065 62.6182ZM723.567 81.2244L724 80.9741L724 80.9733L723.567 81.2244ZM750.672 128.251L750.238 128.501L750.24 128.503L750.672 128.251ZM750.676 128.258L751.109 128.009L751.108 128.006L750.676 128.258ZM802.262 217.365L802.694 217.112L802.694 217.112L802.262 217.365ZM572 246.518L572.495 246.589L572.577 246.018H572V246.518ZM271.191 246.518V246.018H270.691V246.518H271.191ZM453.202 417.228L453.423 417.676L453.424 417.676L453.202 417.228ZM446.072 420.934L445.837 420.493L446.072 420.934ZM424.746 429.935L424.823 430.429L424.826 430.428L424.746 429.935ZM390.73 430.47L390.708 430.969L390.73 430.47ZM166.936 409.604L166.658 410.019L166.658 410.019L166.936 409.604ZM91.137 276.997L91.6285 276.905L91.6285 276.905L91.137 276.997ZM86.3383 174.23L86.8383 174.238V174.23H86.3383ZM86.3383 174.229L85.8383 174.221V174.229H86.3383ZM86.6827 2.906H87.1827V2.8923L87.182 2.87863L86.6827 2.906ZM87.3408 1V0.5H87.3021L87.264 0.50593L87.3408 1ZM543.553 1H544.053V0.5H543.553V1ZM543.553 29.573V30.073H544.053V29.573H543.553ZM113.889 29.573V29.073H113.381L113.39 29.5816L113.889 29.573ZM113.313 110.413L112.813 110.403V110.413H113.313ZM113.313 110.415L113.813 110.425V110.415H113.313ZM142.944 339.15L143.373 338.893L143.373 338.893L142.944 339.15ZM213.091 396.889L213.252 396.416L213.252 396.415L213.091 396.889ZM392.14 402.47L392.116 402.97L392.128 402.97H392.14V402.47ZM392.143 402.47L392.167 401.971L392.155 401.97H392.143V402.47ZM420.351 402.014L420.43 402.508L420.43 402.507L420.351 402.014ZM461.402 382.937L461.13 382.517L461.129 382.518L461.402 382.937ZM537.251 278.895L537.726 279.053L537.945 278.395H537.251V278.895ZM271.191 278.895H270.691V279.395H271.191V278.895ZM75 6H75.5V5.5H75V6ZM75 56V56.5H75.5V56H75ZM63.5423 6V5.5H63.0604L63.0426 5.98158L63.5423 6ZM63.5343 20.3413H64.0343L64.0342 20.3329L63.5343 20.3413ZM63.5343 20.3413H63.0342L63.0343 20.3496L63.5343 20.3413ZM62.8863 42.714V43.214H63.3237L63.3819 42.7805L62.8863 42.714ZM45.6699 42.714H45.1699V43.214H45.6699V42.714ZM45.6699 9.8117H46.1699V9.3117H45.6699V9.8117ZM34.2122 9.8117V9.3117H33.7122V9.8117H34.2122ZM34.2122 42.714L34.1676 43.212L34.7122 43.2608V42.714H34.2122ZM28.3589 42.7157L28.3789 43.2153L28.3589 42.7157ZM19.5088 42.0632H19.0088V42.3994L19.3201 42.5262L19.5088 42.0632ZM19.5088 7.25084H20.0088V6.75084H19.5088V7.25084ZM8 7.25084V6.75084H7.5V7.25084H8ZM8 56H7.5V56.5H8V56ZM67.8129 73.7552L68.3118 73.7883L67.8129 73.7552ZM67.7871 80.3898L68.1478 80.7361L68.3184 80.5583L68.2814 80.3148L67.7871 80.3898ZM66.5369 64L66.8935 63.6496L66.5851 63.3357L66.2346 63.6017L66.5369 64ZM57.2237 70.4302L56.9482 70.0129L56.9292 70.0255L56.9114 70.0398L57.2237 70.4302ZM57.2237 70.4302L57.4992 70.8475L57.5182 70.8349L57.536 70.8207L57.2237 70.4302ZM38.6949 85.6838L38.1951 85.6994L38.2416 87.1918L39.1032 85.9724L38.6949 85.6838ZM5.15093 75.8307L4.74182 75.5433L4.74156 75.5437L5.15093 75.8307ZM1.40077 104.593L1.90002 104.566L1.40077 104.593ZM1.34124 125L0.84501 124.939L0.775659 125.5H1.34124V125ZM67.7871 125V125.5H68.2871V125H67.7871ZM67.7871 111.2H68.2871V110.7H67.7871V111.2ZM40.5955 111.2L40.0962 111.227L40.121 111.7H40.5955V111.2ZM56.8022 87.8606L57.0408 88.3L57.0607 88.2892L57.0796 88.2766L56.8022 87.8606ZM56.8023 87.8605L56.5638 87.4211L56.5438 87.4319L56.525 87.4445L56.8023 87.8605ZM27.3333 85.6838L27.7822 85.4635L27.7176 85.3319L27.592 85.256L27.3333 85.6838ZM12.7619 111.2L12.2627 111.228L12.2892 111.7H12.7619V111.2ZM29.6589 103.741L30.1589 103.737L29.6589 103.741ZM29.8337 111.2V111.7H30.3622L30.333 111.173L29.8337 111.2ZM67.7871 214.39L68.1478 214.736L68.3184 214.558L68.2814 214.315L67.7871 214.39ZM67.8129 207.755L68.3118 207.788L67.8129 207.755ZM56.8021 221.859L56.5636 221.419L56.554 221.425L56.8021 221.859ZM56.8019 221.859L57.0405 222.298L57.05 222.293L56.8019 221.859ZM40.5955 245.2L40.0962 245.227L40.121 245.7H40.5955V245.2ZM67.7871 245.2H68.2871V244.7H67.7871V245.2ZM67.7871 259V259.5H68.2871V259H67.7871ZM1.34124 259L0.845006 258.939L0.775693 259.5H1.34124V259ZM1.40074 238.586L1.89998 238.558L1.40074 238.586ZM5.15093 209.822L4.74192 209.534L4.74156 209.535L5.15093 209.822ZM38.6949 219.684L38.1951 219.699L38.2416 221.192L39.1032 219.972L38.6949 219.684ZM57.2237 204.43L56.9482 204.013L57.2237 204.43ZM66.5369 198L66.8935 197.65L66.5851 197.336L66.2346 197.602L66.5369 198ZM12.7619 245.2L12.2627 245.228L12.2892 245.7H12.7619V245.2ZM27.3333 219.684L27.7822 219.464L27.7176 219.332L27.592 219.256L27.3333 219.684ZM29.8337 245.2V245.7H30.3622L30.333 245.173L29.8337 245.2ZM29.6589 237.741L30.1589 237.737L29.6589 237.741ZM74.8103 139.689L74.3117 139.652L74.3103 139.67V139.689H74.8103ZM74.8103 139.689L75.309 139.726L75.3103 139.707V139.689H74.8103ZM73.5231 131L73.8417 130.615L73.6052 130.419L73.3237 130.541L73.5231 131ZM40.8153 144.351L40.6315 143.886L40.6218 143.89L40.6122 143.894L40.8153 144.351ZM40.8151 144.351L40.9989 144.816L41.0086 144.812L41.0181 144.808L40.8151 144.351ZM8 157.749L7.80056 157.29L7.5 157.421V157.749H8ZM8 171.839H7.5V172.178L7.81463 172.303L8 171.839ZM69.9805 196.136L70.1616 195.67L70.1616 195.67L69.9805 196.136ZM74.7799 198L74.5988 198.466L75.2799 198.731V198H74.7799ZM74.7799 183.297H75.2799V182.942L74.9457 182.825L74.7799 183.297ZM70.8983 182.021L70.7402 182.496L70.7471 182.498L70.8983 182.021ZM70.8982 182.021L71.0563 181.547L71.0495 181.545L70.8982 182.021ZM60.1824 177.546H59.6824V177.814L59.9044 177.962L60.1824 177.546ZM60.1824 150.729L60.09 150.238L59.6824 150.315V150.729H60.1824ZM69.0675 147.789L69.2596 148.251H69.2596L69.0675 147.789ZM74.7799 145.635L74.9257 146.113L75.3466 145.985L75.2728 145.551L74.7799 145.635ZM40.8151 170.972L40.9931 170.504L40.9809 170.5L40.9684 170.496L40.8151 170.972ZM40.8153 170.972L40.6373 171.439L40.6496 171.444L40.6621 171.448L40.8153 170.972ZM25.2045 164.164L25.0815 163.679L24.056 163.939L24.9081 164.566L25.2045 164.164ZM36.9489 160.029L36.7684 159.563L36.7605 159.566L36.9489 160.029ZM36.9493 160.029L37.1298 160.495L37.1377 160.492L36.9493 160.029ZM48.7099 155.892H49.2099V155.249L48.5872 155.407L48.7099 155.892ZM48.7099 173.705L48.5253 174.169L49.2099 174.441V173.705H48.7099ZM934.731 126.88C939.002 88.5665 925.088 57.7792 902.829 37.8137L902.161 38.5582C924.181 58.3088 937.972 88.7779 933.737 126.769L934.731 126.88ZM832.942 268.459C859.252 252.937 882.694 235.732 900.561 213.307C918.435 190.873 930.713 163.237 934.731 126.879L933.737 126.769C929.739 162.946 917.531 190.403 899.779 212.684C882.021 234.973 858.697 252.103 832.434 267.598L832.942 268.459ZM880.305 353.44C864.331 325.147 848.357 296.857 833.131 267.797L832.245 268.261C847.48 297.337 863.461 325.641 879.434 353.932L880.305 353.44ZM880.286 353.41L880.286 353.409L879.454 353.964L879.454 353.964L880.286 353.41ZM880.31 353.45L880.309 353.448L879.431 353.927L879.432 353.929L880.31 353.45ZM880.311 353.452L880.31 353.45L879.432 353.929L879.433 353.931L880.311 353.452ZM880.337 353.506L880.337 353.505L879.408 353.877L879.408 353.877L880.337 353.506ZM880.337 353.506L880.337 353.506L879.408 353.877L879.409 353.878L880.337 353.506ZM880.337 353.507L880.337 353.506L879.409 353.878L879.409 353.878L880.337 353.507ZM922.619 429.879C908.873 404.039 894.59 378.742 880.308 353.447L879.438 353.938C893.721 379.235 907.997 404.521 921.736 430.349L922.619 429.879ZM909.47 430.77C914.191 430.193 918.625 429.659 922.045 430.596L922.309 429.632C918.658 428.631 914.001 429.208 909.349 429.777L909.47 430.77ZM894.101 430.588C898.627 432.106 904.218 431.412 909.47 430.77L909.349 429.777C904.027 430.428 898.686 431.071 894.418 429.64L894.101 430.588ZM884.684 417.088C886.1 419.99 887.6 423.066 889.147 425.547C889.921 426.788 890.716 427.896 891.529 428.765C892.338 429.629 893.197 430.292 894.104 430.589L894.415 429.639C893.736 429.416 893.016 428.89 892.26 428.082C891.508 427.279 890.752 426.231 889.996 425.018C888.482 422.59 887.005 419.564 885.583 416.65L884.684 417.088ZM884.676 417.07L884.677 417.072L885.591 416.666L885.59 416.664L884.676 417.07ZM884.68 417.078L884.681 417.08L885.585 416.654L885.585 416.653L884.68 417.078ZM884.684 417.088L884.685 417.089L885.579 416.642L885.579 416.641L884.684 417.088ZM884.683 417.086L884.684 417.088L885.579 416.641L885.578 416.638L884.683 417.086ZM881.775 411.371C882.698 413.016 883.667 415.003 884.681 417.081L885.58 416.643C884.57 414.572 883.587 412.557 882.647 410.882L881.775 411.371ZM842.564 343.24C855.87 366.121 869.293 389.202 881.776 411.372L882.647 410.881C870.161 388.705 856.734 365.617 843.429 342.737L842.564 343.24ZM803.08 274.58C815.352 296.447 828.897 319.738 842.564 343.24L843.429 342.737C829.761 319.234 816.22 295.95 803.952 274.091L803.08 274.58ZM632.172 274.835H803.516V273.835H632.172V274.835ZM632.022 370.356C631.892 337.997 631.761 305.643 632.672 274.35L631.672 274.321C630.761 305.634 630.892 338.004 631.022 370.36L632.022 370.356ZM632.022 370.362V370.358H631.022V370.362H632.022ZM632.022 370.372V370.362H631.022V370.372H632.022ZM632.022 370.374V370.372H631.022V370.374H632.022ZM632.022 370.376V370.374H631.022V370.376H632.022ZM632.022 370.377V370.376H631.022V370.377H632.022ZM632.022 370.379V370.377H631.022V370.379H632.022ZM632.019 430.118C632.184 410.372 632.103 390.374 632.022 370.377L631.022 370.381C631.103 390.379 631.184 410.371 631.019 430.11L632.019 430.118ZM603 430.614H631.519V429.614H603V430.614ZM602.5 245.88V430.114H603.5V245.88H602.5ZM786.393 245.38H603V246.38H786.393V245.38ZM715.737 123.467C739.616 164.528 763.399 205.422 785.956 246.122L786.83 245.637C764.268 204.927 740.48 164.023 716.602 122.964L715.737 123.467ZM715.734 123.462L715.739 123.47L716.6 122.961L716.595 122.953L715.734 123.462ZM715.73 123.455L715.733 123.459L716.597 122.956L716.594 122.951L715.73 123.455ZM646.35 2.35633C668.858 42.8572 692.34 83.2352 715.73 123.454L716.594 122.952C693.204 82.731 669.726 42.3615 647.224 1.87057L646.35 2.35633ZM727.119 1.38391C700.241 2.1047 673.455 2.82279 646.81 1.61397L646.765 2.61294C673.452 3.82367 700.274 3.10417 727.146 2.38355L727.119 1.38391ZM816.857 1.61439C786.906 -0.219736 756.956 0.583767 727.119 1.38391L727.146 2.38355C756.99 1.58321 786.896 0.781531 816.796 2.61252L816.857 1.61439ZM902.829 37.8143C880.992 18.1626 853.902 3.85397 816.857 1.61436L816.797 2.61254C853.584 4.83656 880.465 19.0343 902.161 38.5576L902.829 37.8143ZM819.751 242.976C813.972 236.807 809.633 229.22 805.352 221.729L804.484 222.225C808.754 229.696 813.148 237.39 819.021 243.66L819.751 242.976ZM885.612 194.281C869.822 217.19 846.295 233.406 819.221 242.846L819.55 243.79C846.787 234.294 870.504 217.962 886.436 194.849L885.612 194.281ZM908.377 102.158C911.696 139.643 901.417 171.415 885.613 194.281L886.435 194.849C902.37 171.794 912.713 139.79 909.373 102.07L908.377 102.158ZM879.332 50.6063C894.089 62.404 906.434 80.0837 908.377 102.158L909.373 102.07C907.401 79.6599 894.871 61.7489 879.956 49.8252L879.332 50.6063ZM822.496 26.0112C844.03 28.1715 864.937 39.0574 879.331 50.6057L879.957 49.8257C865.459 38.1937 844.374 27.201 822.596 25.0161L822.496 26.0112ZM777.116 25.1485C792.476 24.8324 807.732 24.519 822.496 26.0111L822.596 25.0162C807.762 23.5169 792.444 23.8328 777.095 24.1487L777.116 25.1485ZM757.814 25.4134C764.242 25.4134 770.688 25.2808 777.116 25.1485L777.095 24.1487C770.665 24.281 764.23 24.4134 757.814 24.4134V25.4134ZM691.837 25.4134H757.814V24.4134H691.837V25.4134ZM691.666 25.4154C691.649 25.3289 691.662 25.3151 691.654 25.3409C691.649 25.3556 691.64 25.375 691.625 25.3944C691.609 25.4134 691.594 25.4253 691.584 25.4316C691.568 25.4412 691.574 25.4325 691.628 25.4244C691.679 25.4167 691.747 25.4134 691.837 25.4134V24.4134C691.659 24.4134 691.323 24.4156 691.054 24.5834C690.896 24.6819 690.767 24.8323 690.702 25.0352C690.641 25.225 690.648 25.4236 690.686 25.6119L691.666 25.4154ZM713.501 62.3735C706.451 49.7062 699.396 37.0304 691.593 25.2377L690.759 25.7896C698.538 37.5447 705.573 50.1862 712.627 62.8598L713.501 62.3735ZM713.488 62.3515L713.487 62.3509L712.64 62.8824L712.641 62.883L713.488 62.3515ZM713.492 62.3585L713.491 62.3576L712.637 62.8769L712.637 62.8778L713.492 62.3585ZM724 80.9733C720.44 74.8423 716.971 68.6096 713.502 62.375L712.628 62.8613C716.097 69.0945 719.57 75.3352 723.135 81.4754L724 80.9733ZM751.105 128.002C742.058 112.279 733.017 96.5649 724 80.9741L723.135 81.4747C732.15 97.0644 741.191 112.778 750.238 128.501L751.105 128.002ZM751.108 128.006L751.103 127.999L750.24 128.503L750.244 128.511L751.108 128.006ZM802.694 217.112C785.57 187.902 768.331 157.94 751.109 128.009L750.242 128.508C767.464 158.438 784.705 188.404 801.831 217.618L802.694 217.112ZM805.352 221.729C804.467 220.18 803.585 218.636 802.694 217.112L801.831 217.617C802.719 219.136 803.599 220.676 804.484 222.225L805.352 221.729ZM572 246.018H271.191V247.018H572V246.018ZM453.424 417.676C517.759 385.698 560.636 329.077 572.495 246.589L571.505 246.447C559.692 328.621 517.009 384.954 452.979 416.78L453.424 417.676ZM446.307 421.376C448.756 420.071 451.149 418.798 453.423 417.676L452.98 416.779C450.69 417.909 448.284 419.19 445.837 420.493L446.307 421.376ZM424.826 430.428C431.265 429.391 439.057 425.236 446.307 421.376L445.837 420.493C438.53 424.384 430.904 428.436 424.667 429.441L424.826 430.428ZM390.708 430.969C402.574 431.501 414.432 432.033 424.823 430.429L424.67 429.44C414.396 431.027 402.645 430.503 390.752 429.97L390.708 430.969ZM372.948 430.435C378.763 430.435 384.738 430.702 390.708 430.969L390.752 429.97C384.787 429.703 378.789 429.435 372.948 429.435V430.435ZM217.486 430.435H372.948V429.435H217.486V430.435ZM166.658 410.019C172.864 414.169 181.481 419.267 190.58 423.329C199.669 427.387 209.29 430.435 217.486 430.435V429.435C209.502 429.435 200.035 426.455 190.988 422.416C181.952 418.382 173.385 413.315 167.214 409.188L166.658 410.019ZM90.6456 277.089C101.086 332.713 125.621 382.528 166.658 410.019L167.215 409.188C126.488 381.905 102.043 332.389 91.6285 276.905L90.6456 277.089ZM85.8383 174.222C85.2647 210.16 84.6999 245.428 90.6456 277.089L91.6285 276.905C85.7049 245.362 86.2642 210.201 86.8382 174.238L85.8383 174.222ZM85.8383 174.229V174.23H86.8383V174.229H85.8383ZM85.8383 174.229V174.229H86.8383V174.229H85.8383ZM85.8383 174.229V174.229H86.8383V174.229H85.8383ZM85.8383 174.229V174.229H86.8383V174.229H85.8383ZM85.8383 174.229V174.229H86.8383V174.229H85.8383ZM86.1827 141.832C86.1827 152.641 86.01 163.461 85.8383 174.221L86.8382 174.236C87.0099 163.479 87.1827 152.65 87.1827 141.832H86.1827ZM86.1827 2.906V141.832H87.1827V2.906H86.1827ZM87.264 0.50593C86.9783 0.550325 86.7379 0.679192 86.5574 0.883065C86.3855 1.07734 86.2929 1.31134 86.2405 1.53282C86.1389 1.96167 86.1588 2.48259 86.1835 2.93337L87.182 2.87863C87.1561 2.40606 87.1506 2.02904 87.2136 1.76326C87.2434 1.63742 87.2805 1.57494 87.3063 1.54578C87.3236 1.52623 87.3489 1.50474 87.4175 1.49407L87.264 0.50593ZM543.553 0.5H87.3408V1.5H543.553V0.5ZM544.053 29.573V1H543.053V29.573H544.053ZM113.889 30.073H543.553V29.073H113.889V30.073ZM113.813 110.422C114.327 83.4821 114.847 56.2659 114.389 29.5645L113.39 29.5816C113.847 56.2618 113.328 83.4598 112.813 110.403L113.813 110.422ZM113.813 110.413V110.413H112.813V110.413H113.813ZM113.813 110.414V110.413H112.813V110.414H113.813ZM113.813 110.414V110.414H112.813V110.414H113.813ZM113.813 110.415V110.414H112.813V110.415H113.813ZM113.813 110.415V110.415H112.813V110.415H113.813ZM143.373 338.893C126.956 311.443 119.136 276.408 115.639 237.171C112.141 197.936 112.97 154.554 113.813 110.425L112.813 110.406C111.97 154.521 111.14 197.961 114.643 237.259C118.145 276.555 125.984 311.766 142.515 339.406L143.373 338.893ZM213.252 396.415C180.857 385.395 159.113 365.244 143.373 338.893L142.514 339.406C158.359 365.932 180.281 386.256 212.93 397.362L213.252 396.415ZM250.336 401.514C235.274 401.514 224.696 400.322 213.252 396.416L212.929 397.362C224.516 401.317 235.214 402.514 250.336 402.514V401.514ZM378.001 401.514H250.336V402.514H378.001V401.514ZM392.164 401.971C387.373 401.742 382.599 401.514 378.001 401.514V402.514C382.571 402.514 387.321 402.741 392.116 402.97L392.164 401.971ZM392.14 401.97H392.14V402.97H392.14V401.97ZM392.141 401.97H392.14V402.97H392.141V401.97ZM392.142 401.97H392.141V402.97H392.142V401.97ZM392.143 401.97H392.142V402.97H392.143V401.97ZM392.143 401.97H392.143V402.97H392.143V401.97ZM420.272 401.52C411.616 402.898 401.862 402.434 392.167 401.971L392.12 402.97C401.789 403.432 411.652 403.905 420.43 402.508L420.272 401.52ZM461.129 382.518C456.064 385.808 448.872 390.076 441.426 393.765C433.97 397.459 426.302 400.55 420.272 401.52L420.43 402.507C426.616 401.512 434.394 398.364 441.87 394.661C449.357 390.952 456.582 386.664 461.674 383.356L461.129 382.518ZM536.777 278.737C521.982 323.153 497.442 358.975 461.13 382.517L461.674 383.356C498.216 359.664 522.876 323.634 537.726 279.053L536.777 278.737ZM271.191 279.395H537.251V278.395H271.191V279.395ZM270.691 246.518V278.895H271.691V246.518H270.691ZM74.5 6V56H75.5V6H74.5ZM63.5423 6.5H75V5.5H63.5423V6.5ZM64.0342 20.3329C63.9531 15.4668 63.8725 10.6164 64.0419 6.01842L63.0426 5.98158C62.872 10.6111 62.9534 15.4889 63.0343 20.3496L64.0342 20.3329ZM64.0343 20.3413V20.3413H63.0343V20.3413H64.0343ZM63.3819 42.7805C64.2959 35.9719 64.1641 28.1281 64.0342 20.333L63.0343 20.3496C63.1645 28.1649 63.2928 35.9281 62.3908 42.6475L63.3819 42.7805ZM45.6699 43.214H62.8863V42.214H45.6699V43.214ZM45.1699 9.8117V42.714H46.1699V9.8117H45.1699ZM34.2122 10.3117H45.6699V9.3117H34.2122V10.3117ZM34.7122 42.714V9.8117H33.7122V42.714H34.7122ZM28.3789 43.2153C30.415 43.1338 32.4116 43.0548 34.1676 43.212L34.2568 42.216C32.4237 42.0519 30.3583 42.1353 28.339 42.2161L28.3789 43.2153ZM19.3201 42.5262C20.5236 43.0167 21.9772 43.2164 23.5165 43.2823C25.0594 43.3485 26.7312 43.2812 28.3789 43.2153L28.339 42.2161C26.6817 42.2824 25.0531 42.3473 23.5594 42.2833C22.0621 42.2191 20.7432 42.0264 19.6975 41.6002L19.3201 42.5262ZM19.0088 7.25084V42.0632H20.0088V7.25084H19.0088ZM8 7.75084H19.5088V6.75084H8V7.75084ZM8.5 56V7.25084H7.5V56H8.5ZM75 55.5H8V56.5H75V55.5ZM67.314 73.7222C67.1581 76.0747 66.9948 78.5008 67.2928 80.4648L68.2814 80.3148C68.0033 78.4814 68.1536 76.1763 68.3118 73.7883L67.314 73.7222ZM66.1803 64.3504C66.951 65.1348 67.3254 66.4309 67.45 68.1187C67.5735 69.7922 67.4457 71.7352 67.314 73.7222L68.3118 73.7883C68.4422 71.8205 68.577 69.8024 68.4472 68.0451C68.3186 66.3022 67.9239 64.6981 66.8935 63.6496L66.1803 64.3504ZM57.4992 70.8474C60.7475 68.7028 63.976 66.5714 66.8392 64.3983L66.2346 63.6017C63.4024 65.7513 60.2026 67.8642 56.9482 70.0129L57.4992 70.8474ZM57.536 70.8207L57.5361 70.8206L56.9114 70.0398L56.9113 70.0398L57.536 70.8207ZM39.1032 85.9724C43.0363 80.4057 50.2973 75.6026 57.4992 70.8475L56.9482 70.013C49.8015 74.7316 42.3519 79.6414 38.2865 85.3953L39.1032 85.9724ZM5.56005 76.1182C9.56107 70.4234 17.569 68.5601 24.7188 70.3027C31.8455 72.0397 37.9337 77.3133 38.1951 85.6994L39.1946 85.6683C38.9154 76.7108 32.3877 71.1425 24.9556 69.3311C17.5466 67.5254 9.05286 69.4073 4.74182 75.5433L5.56005 76.1182ZM1.90002 104.566C1.59154 98.9659 1.29543 93.5744 1.68846 88.7036C2.08134 83.8347 3.1598 79.541 5.56031 76.1178L4.74156 75.5437C2.19602 79.1737 1.0914 83.6698 0.691701 88.6231C0.29216 93.5746 0.593987 99.0377 0.901532 104.621L1.90002 104.566ZM1.83746 125.061C2.66257 118.383 2.27247 111.327 1.90002 104.566L0.901532 104.621C1.27496 111.4 1.65724 118.365 0.84501 124.939L1.83746 125.061ZM67.7871 124.5H1.34124V125.5H67.7871V124.5ZM67.2871 111.2V125H68.2871V111.2H67.2871ZM40.5955 111.7H67.7871V110.7H40.5955V111.7ZM56.5637 87.4211C52.3432 89.7122 48.0227 92.0514 44.8687 95.6219C41.689 99.2214 39.7193 104.038 40.0962 111.227L41.0948 111.174C40.7303 104.223 42.6274 99.6695 45.6181 96.2839C48.6345 92.8693 52.7882 90.6085 57.0408 88.3L56.5637 87.4211ZM56.525 87.4445L56.5249 87.4445L57.0796 88.2766L57.0797 88.2766L56.525 87.4445ZM67.4264 80.0434C64.4658 83.1269 60.5584 85.2527 56.5638 87.4211L57.0408 88.3C61.0074 86.1468 65.0605 83.9514 68.1478 80.7361L67.4264 80.0434ZM27.592 85.256C23.8097 82.9691 20.8092 82.5046 18.4692 83.5116C16.1459 84.5115 14.6554 86.8875 13.702 89.8421C11.7933 95.7571 11.883 104.476 12.2627 111.228L13.2611 111.172C12.8806 104.405 12.8097 95.8637 14.6537 90.1492C15.5766 87.2891 16.9408 85.2581 18.8645 84.4302C20.7717 83.6094 23.4108 83.8965 27.0746 86.1117L27.592 85.256ZM30.1589 103.737C30.1311 100.358 30.1034 96.9486 29.8032 93.8183C29.5034 90.6914 28.9285 87.7988 27.7822 85.4635L26.8845 85.9042C27.9523 88.0795 28.5123 90.8317 28.8078 93.9137C29.103 96.9924 29.131 100.356 29.1589 103.745L30.1589 103.737ZM30.333 111.173C30.2005 108.781 30.1797 106.267 30.1589 103.737L29.1589 103.745C29.1797 106.27 29.2005 108.808 29.3345 111.228L30.333 111.173ZM12.7619 111.7H29.8337V110.7H12.7619V111.7ZM68.2814 214.315C68.0033 212.481 68.1536 210.176 68.3118 207.788L67.314 207.722C67.1581 210.075 66.9948 212.501 67.2928 214.465L68.2814 214.315ZM57.0406 222.298C61.0072 220.146 65.0604 217.951 68.1478 214.736L67.4264 214.043C64.4658 217.127 60.5583 219.252 56.5636 221.419L57.0406 222.298ZM57.05 222.293L57.0502 222.293L56.554 221.425L56.5539 221.425L57.05 222.293ZM41.0948 245.174C40.7303 238.22 42.6274 233.666 45.618 230.28C48.6343 226.866 52.7878 224.606 57.0404 222.298L56.5635 221.419C52.343 223.709 48.0226 226.048 44.8686 229.618C41.6889 233.218 39.7193 238.035 40.0962 245.227L41.0948 245.174ZM67.7871 244.7H40.5955V245.7H67.7871V244.7ZM68.2871 259V245.2H67.2871V259H68.2871ZM1.34124 259.5H67.7871V258.5H1.34124V259.5ZM0.901494 238.613C1.27493 245.394 1.65727 252.361 0.845006 258.939L1.83747 259.061C2.66259 252.38 2.27244 245.321 1.89998 238.558L0.901494 238.613ZM4.74156 209.535C2.19607 213.165 1.09144 217.661 0.691726 222.614C0.292165 227.566 0.593956 233.029 0.901494 238.613L1.89998 238.558C1.59151 232.958 1.29543 227.566 1.68849 222.695C2.08138 217.826 3.15985 213.532 5.56031 210.109L4.74156 209.535ZM39.1946 219.668C38.9154 210.711 32.3877 205.143 24.9557 203.33C17.5468 201.523 9.05305 203.403 4.74192 209.534L5.55995 210.11C9.56089 204.419 17.5688 202.558 24.7187 204.302C31.8455 206.04 37.9337 211.313 38.1951 219.699L39.1946 219.668ZM56.9482 204.013C49.8015 208.732 42.3519 213.641 38.2865 219.395L39.1032 219.972C43.0363 214.406 50.2973 209.603 57.4992 204.847L56.9482 204.013ZM66.2346 197.602C63.4024 199.751 60.2026 201.864 56.9482 204.013L57.4992 204.847C60.7474 202.703 63.9759 200.571 66.8392 198.398L66.2346 197.602ZM68.3118 207.788C68.4422 205.821 68.577 203.802 68.4472 202.045C68.3186 200.302 67.9239 198.698 66.8935 197.65L66.1803 198.35C66.951 199.135 67.3254 200.431 67.45 202.119C67.5735 203.792 67.4457 205.735 67.314 207.722L68.3118 207.788ZM13.2611 245.172C12.8806 238.405 12.8097 229.864 14.6537 224.149C15.5766 221.289 16.9408 219.258 18.8645 218.43C20.7717 217.609 23.4108 217.896 27.0746 220.112L27.592 219.256C23.8097 216.969 20.8092 216.505 18.4692 217.512C16.1459 218.512 14.6554 220.887 13.702 223.842C11.7933 229.757 11.883 238.476 12.2627 245.228L13.2611 245.172ZM29.8337 244.7H12.7619V245.7H29.8337V244.7ZM29.1589 237.745C29.1797 240.27 29.2005 242.808 29.3345 245.228L30.333 245.173C30.2005 242.781 30.1797 240.267 30.1589 237.737L29.1589 237.745ZM26.8845 219.904C27.9523 222.079 28.5123 224.832 28.8078 227.914C29.103 230.992 29.131 234.356 29.1589 237.745L30.1589 237.737C30.1311 234.358 30.1034 230.949 29.8032 227.818C29.5034 224.691 28.9285 221.799 27.7822 219.464L26.8845 219.904ZM74.3103 139.689V139.689H75.3103V139.689H74.3103ZM73.2044 131.385C73.9519 132.004 74.3252 133.103 74.4501 134.606C74.5738 136.095 74.4452 137.849 74.3117 139.652L75.309 139.726C75.4408 137.945 75.5781 136.107 75.4466 134.523C75.3163 132.954 74.9133 131.501 73.8417 130.615L73.2044 131.385ZM40.9991 144.816C52.0064 140.465 63.0215 136.111 73.7224 131.459L73.3237 130.541C62.6409 135.186 51.6416 139.534 40.6315 143.886L40.9991 144.816ZM41.0181 144.808L41.0183 144.808L40.6122 143.894L40.612 143.894L41.0181 144.808ZM8.19944 158.207C18.9191 153.544 29.9551 149.182 40.9989 144.816L40.6313 143.886C29.5903 148.251 18.5384 152.62 7.80056 157.29L8.19944 158.207ZM8.5 171.839V157.749H7.5V171.839H8.5ZM70.1616 195.67C49.4557 187.626 28.7252 179.574 8.18537 171.375L7.81463 172.303C28.3595 180.505 49.0943 188.559 69.7995 196.602L70.1616 195.67ZM74.9609 197.534L70.1616 195.67L69.7995 196.602L74.5988 198.466L74.9609 197.534ZM74.2799 183.297V198H75.2799V183.297H74.2799ZM70.7471 182.498C72.0567 182.914 73.3542 183.325 74.614 183.768L74.9457 182.825C73.6689 182.376 72.3566 181.96 71.0496 181.545L70.7471 182.498ZM70.7401 182.496L70.7402 182.496L71.0565 181.547L71.0563 181.547L70.7401 182.496ZM59.9044 177.962C63.0289 180.052 66.9474 181.292 70.7469 182.498L71.0495 181.545C67.217 180.328 63.4445 179.127 60.4603 177.131L59.9044 177.962ZM59.6824 150.729V177.546H60.6824V150.729H59.6824ZM68.8754 147.328C66.0887 148.487 63.3507 149.625 60.09 150.238L60.2748 151.221C63.6523 150.586 66.4812 149.407 69.2596 148.251L68.8754 147.328ZM74.634 145.157C72.598 145.778 70.7243 146.558 68.8754 147.328L69.2596 148.251C71.1146 147.479 72.9441 146.718 74.9257 146.113L74.634 145.157ZM74.3117 139.652C74.155 141.769 73.989 143.969 74.2869 145.719L75.2728 145.551C74.9997 143.947 75.1492 141.884 75.309 139.726L74.3117 139.652ZM40.6371 171.439L40.6373 171.439L40.9933 170.505L40.9931 170.504L40.6371 171.439ZM24.9081 164.566C29.2884 167.79 35.0306 169.634 40.6618 171.448L40.9684 170.496C35.2972 168.669 29.7247 166.869 25.5008 163.761L24.9081 164.566ZM36.7605 159.566C32.989 161.1 29.2507 162.621 25.0815 163.679L25.3275 164.648C29.5736 163.57 33.3736 162.024 37.1374 160.492L36.7605 159.566ZM36.7688 159.563L36.7684 159.563L37.1294 160.495L37.1298 160.495L36.7688 159.563ZM48.5872 155.407C44.3367 156.483 40.5321 158.031 36.7608 159.566L37.1377 160.492C40.9167 158.955 44.6594 157.433 48.8326 156.377L48.5872 155.407ZM49.2099 173.705V155.892H48.2099V173.705H49.2099ZM40.6621 171.448C43.3465 172.312 46.0103 173.17 48.5253 174.169L48.8944 173.24C46.3432 172.227 43.647 171.358 40.9686 170.496L40.6621 171.448Z" fill="#2D2D2D"/>
</svg>
