<svg width="119" height="56" viewBox="0 0 119 56" fill="none" xmlns="http://www.w3.org/2000/svg">
<path d="M10 1H10.5V0.5H10V1ZM10 8V8.5H10.5V8H10ZM8.63191 1V0.5H8.14738L8.13216 0.98429L8.63191 1ZM8.63096 3.00772H9.13101L9.13091 3.00062L8.63096 3.00772ZM8.63096 3.00778H8.13091L8.13101 3.01488L8.63096 3.00778ZM8.55359 6.13996V6.63996H8.99961L9.05035 6.19683L8.55359 6.13996ZM6.4979 6.13996H5.9979V6.63996H6.4979V6.13996ZM6.4979 1.53364H6.9979V1.03364H6.4979V1.53364ZM5.12982 1.53364V1.03364H4.62982V1.53364H5.12982ZM5.12982 6.13996L5.07761 6.63723L5.62982 6.6952V6.13996H5.12982ZM4.43093 6.1402V6.6402H4.44265L4.45436 6.63965L4.43093 6.1402ZM4.43092 6.1402V5.6402H4.4192L4.40749 5.64075L4.43092 6.1402ZM3.37419 6.04885H2.87419V6.36407L3.15861 6.49999L3.37419 6.04885ZM3.37419 1.17512H3.87419V0.675118H3.37419V1.17512ZM2 1.17512V0.675118H1.5V1.17512H2ZM2 8H1.5V8.5H2V8ZM73 31.8325L73.4949 31.9036L73.577 31.3325H73V31.8325ZM35.2441 31.8325V31.3325H34.7441V31.8325H35.2441ZM58.0891 53.2705L58.3103 53.7189L58.3117 53.7182L58.0891 53.2705ZM57.1942 53.7359L57.4179 54.1833L57.4293 54.1772L57.1942 53.7359ZM57.1942 53.7359L56.9705 53.2886L56.9591 53.2947L57.1942 53.7359ZM54.5175 54.8662L54.5939 55.3603L54.5971 55.3598L54.5175 54.8662ZM50.248 54.9334L50.2256 55.4329L50.248 54.9334ZM22.1587 52.313L21.8803 52.7284L21.8806 52.7286L22.1587 52.313ZM12.6448 35.6601L13.1362 35.5679L13.1362 35.5679L12.6448 35.6601ZM12.0425 22.7544L11.5425 22.7464L12.0425 22.7544ZM12.0857 1.23936H12.5857V1.22567L12.5849 1.212L12.0857 1.23936ZM12.1683 1V0.5H12.1296L12.0915 0.505937L12.1683 1ZM69.4295 1H69.9295V0.5H69.4295V1ZM69.4295 4.58824V5.08824H69.9295V4.58824H69.4295ZM15.5005 4.58824V4.08824H14.9919L15.0006 4.59681L15.5005 4.58824ZM15.4281 14.7405L14.9282 14.731L15.4281 14.7405ZM19.1473 43.4653L19.5766 43.209L19.5764 43.2088L19.1473 43.4653ZM27.9517 50.7163L28.1133 50.2431L28.1128 50.2429L27.9517 50.7163ZM50.4254 51.4172L50.4493 50.9178L50.4254 51.4172ZM53.9659 51.3599L54.0445 51.8536L54.0453 51.8535L53.9659 51.3599ZM59.1183 48.9642L58.8462 48.5447L58.8458 48.5449L59.1183 48.9642ZM68.6385 35.8984L69.1129 36.0563L69.332 35.3984H68.6385V35.8984ZM35.2441 35.8984H34.7441V36.3984H35.2441V35.8984ZM117.903 16.8012L117.406 16.7454L117.406 16.7459L117.903 16.8012ZM113.888 5.66986L113.555 6.04275L113.555 6.04329L113.888 5.66986ZM105.057 34.5338L104.804 34.1024L104.391 34.3441L104.615 34.7672L105.057 34.5338ZM111.026 45.2912L110.591 45.5384L111.026 45.2912ZM116.378 54.8887L116.247 55.3712L117.367 55.6761L116.819 54.6526L116.378 54.8887ZM114.763 54.9088L114.823 55.4051L114.763 54.9088ZM112.846 54.8887L113.004 54.4143L113.001 54.4133L112.846 54.8887ZM111.692 53.2254L111.243 53.4459L111.692 53.2254ZM111.322 52.5043L111.757 52.2583L111.757 52.2576L111.322 52.5043ZM106.361 43.9474L105.929 44.1991L105.93 44.2001L106.361 43.9474ZM106.36 43.9462L106.792 43.6945L106.792 43.6935L106.36 43.9462ZM101.367 35.3258L101.802 35.0798L101.658 34.8258H101.367V35.3258ZM79.6904 35.3258V34.8258H79.2048L79.1906 35.3112L79.6904 35.3258ZM79.6083 47.3863L80.1083 47.3842L79.6083 47.3863ZM79.6079 54.8887V55.3887H80.1037L80.1078 54.8929L79.6079 54.8887ZM76 54.8887H75.5V55.3887H76V54.8887ZM76 31.7523V31.2523H75.5V31.7523H76ZM99.2003 31.7523V32.2523H100.052L99.6369 31.5086L99.2003 31.7523ZM90.316 16.347L90.7474 16.0943L90.7429 16.0866L90.7381 16.079L90.316 16.347ZM90.3159 16.3468L89.8845 16.5996L89.889 16.6073L89.8938 16.6148L90.3159 16.3468ZM81.5393 1.13983L81.5618 0.640335L80.6641 0.599904L81.1031 1.38407L81.5393 1.13983ZM91.7035 1.11098L91.6902 0.611157L91.7035 1.11098ZM103.05 1.13983L103.02 1.63891L103.02 1.63893L103.05 1.13983ZM103.374 31.4306L103.01 31.7738L103.232 32.0088L103.538 31.9031L103.374 31.4306ZM101.544 28.7506L101.977 28.5012L101.976 28.4997L101.544 28.7506ZM111.804 25.3081L111.394 25.0224L111.394 25.023L111.804 25.3081ZM114.695 13.698L114.197 13.7422L114.197 13.7424L114.695 13.698ZM110.997 7.18058L110.686 7.57169L110.686 7.57223L110.997 7.18058ZM103.774 4.07846L103.724 4.57596L103.724 4.576L103.774 4.07846ZM98.0254 3.96982L98.0356 4.46972L98.0254 3.96982ZM87.1548 4.07846L86.6647 4.17746L86.6842 4.27391L86.7388 4.35579L87.1548 4.07846ZM89.9239 8.7381L90.36 8.49359V8.49358L89.9239 8.7381ZM91.2525 11.0747L91.6845 10.823L91.6841 10.8223L91.2525 11.0747ZM94.6786 16.9756L95.1112 16.7249L95.1112 16.7249L94.6786 16.9756ZM94.6812 16.9802L94.2486 17.2309L94.2488 17.2312L94.6812 16.9802ZM94.682 16.9815L95.1146 16.7307L95.1144 16.7305L94.682 16.9815ZM101.208 28.1714L101.639 27.9176L101.638 27.9172L101.208 28.1714ZM101.543 28.7487L101.109 28.9982L101.11 28.9996L101.543 28.7487ZM8.97766 10.1195L8.47885 10.0851V10.0851L8.97766 10.1195ZM8.97458 10.8808L9.32829 11.2342L9.50814 11.0542L9.46846 10.8028L8.97458 10.8808ZM8.8253 9L9.17491 8.64255L8.87246 8.34673L8.53065 8.59604L8.8253 9ZM7.71327 9.7379L7.98117 10.1601H7.98117L7.71327 9.7379ZM5.50088 11.4883L5.00114 11.5045L5.04798 12.9485L5.90373 11.7845L5.50088 11.4883ZM1.49563 10.3576L1.09199 10.0625L1.09172 10.0629L1.49563 10.3576ZM1.04785 13.6582L0.548673 13.6868L1.04785 13.6582ZM1.04074 16L0.544826 15.9362L0.472351 16.5H1.04074V16ZM8.97458 16V16.5H9.47458V16H8.97458ZM8.97458 14.4164H9.47458V13.9164H8.97458V14.4164ZM5.72782 14.4164L5.22856 14.4437L5.25435 14.9164H5.72782V14.4164ZM7.66295 11.7381L7.43168 11.2948H7.43168L7.66295 11.7381ZM4.14428 11.4883L4.58957 11.2609L4.52266 11.1299L4.39549 11.056L4.14428 11.4883ZM2.4044 14.4164L1.90526 14.4456L1.9328 14.9164H2.4044V14.4164ZM4.42196 13.5604L3.92198 13.5647L4.42196 13.5604ZM4.44283 14.4164V14.9164H4.97247L4.942 14.3877L4.44283 14.4164ZM8.97458 27.8808L9.32829 28.2342L9.50814 28.0542L9.46846 27.8028L8.97458 27.8808ZM8.97766 27.1195L8.47885 27.0851L8.97766 27.1195ZM7.66292 28.7379L7.89411 29.1812L7.66292 28.7379ZM5.72782 31.4164L5.22856 31.4437L5.25434 31.9164H5.72782V31.4164ZM8.97458 31.4164H9.47458V30.9164H8.97458V31.4164ZM8.97458 33V33.5H9.47458V33H8.97458ZM1.04074 33L0.544822 32.9363L0.472387 33.5H1.04074V33ZM1.04785 30.6574L1.54703 30.6288L1.04785 30.6574ZM1.49563 27.3566L1.0921 27.0614L1.09172 27.0619L1.49563 27.3566ZM5.50088 28.4883L5.00114 28.5045L5.04798 29.9485L5.90373 28.7845L5.50088 28.4883ZM7.71327 26.7379L7.44538 26.3157H7.44538L7.71327 26.7379ZM8.8253 26L9.17491 25.6425L8.87246 25.3467L8.53065 25.596L8.8253 26ZM2.4044 31.4164L1.90526 31.4456L1.9328 31.9164H2.4044V31.4164ZM4.14428 28.4883L4.58957 28.2609L4.52266 28.1299L4.39549 28.056L4.14428 28.4883ZM4.44283 31.4164V31.9164H4.97247L4.942 31.3877L4.44283 31.4164ZM4.42196 30.5604L3.92198 30.5647L4.42196 30.5604ZM9.97736 18.0374L10.476 18.0744V18.0744L9.97736 18.0374ZM9.97371 18.7475L10.1196 19.2257L10.5405 19.0974L10.4666 18.6636L9.97371 18.7475ZM9.82365 17L10.1423 16.6147L9.9058 16.4191L9.62429 16.5415L9.82365 17ZM5.91838 18.5941L5.73456 18.1291L5.73268 18.1299L5.91838 18.5941ZM5.91822 18.5942L6.10203 19.0592L6.10391 19.0584L5.91822 18.5942ZM2 20.1939L1.80056 19.7354L1.5 19.8661V20.1939H2ZM2 21.8763H1.5V22.2151L1.81463 22.3407L2 21.8763ZM9.40012 24.7772L9.58189 24.3114L9.58117 24.3111L9.40012 24.7772ZM9.40071 24.7774L9.21894 25.2432L9.21966 25.2435L9.40071 24.7774ZM9.97371 25L9.79266 25.4661L10.4737 25.7306V25H9.97371ZM9.97371 23.2444H10.4737V22.8901L10.1395 22.7727L9.97371 23.2444ZM9.51025 23.0921L9.66153 22.6155L9.6546 22.6133L9.64761 22.6113L9.51025 23.0921ZM9.51023 23.0921L9.35895 23.5686L9.36588 23.5708L9.37287 23.5728L9.51023 23.0921ZM8.23073 22.5578H7.73073V22.8249L7.95277 22.9734L8.23073 22.5578ZM8.23073 19.3558L8.13835 18.8644L7.73073 18.941V19.3558H8.23073ZM9.29165 19.0047L9.48375 19.4663L9.48375 19.4663L9.29165 19.0047ZM5.91822 21.7727L5.76494 22.2487L5.77286 22.2512L5.78086 22.2535L5.91822 21.7727ZM5.91828 21.7728L6.07156 21.2968L6.06364 21.2943L6.05564 21.292L5.91828 21.7728ZM4.05427 20.9598L3.93125 20.4752L2.90584 20.7355L3.75791 21.3625L4.05427 20.9598ZM5.45663 20.4661L5.64506 20.9293H5.64506L5.45663 20.4661ZM6.86088 19.9722H7.36088V19.3299L6.73821 19.4874L6.86088 19.9722ZM6.86088 22.099L6.67633 22.5637L7.36088 22.8356V22.099H6.86088ZM9.5 1V8H10.5V1H9.5ZM8.63191 1.5H10V0.5H8.63191V1.5ZM9.13091 3.00062C9.1212 2.31741 9.11178 1.64817 9.13167 1.01571L8.13216 0.98429C8.11143 1.64365 8.12137 2.33631 8.13101 3.01482L9.13091 3.00062ZM9.13096 3.00773V3.00772H8.13096V3.00773H9.13096ZM9.13096 3.00773V3.00773H8.13096V3.00773H9.13096ZM9.13096 3.00774V3.00773H8.13096V3.00774H9.13096ZM9.13096 3.00778V3.00774H8.13096V3.00778H9.13096ZM9.05035 6.19683C9.16314 5.21166 9.14631 4.08477 9.13091 3.00067L8.13101 3.01488C8.14666 4.11625 8.16088 5.17433 8.05684 6.08309L9.05035 6.19683ZM6.4979 6.63996H8.55359V5.63996H6.4979V6.63996ZM5.9979 1.53364V6.13996H6.9979V1.53364H5.9979ZM5.12982 2.03364H6.4979V1.03364H5.12982V2.03364ZM5.62982 6.13996V1.53364H4.62982V6.13996H5.62982ZM4.45436 6.63965C4.70622 6.62783 4.90841 6.61946 5.07761 6.63723L5.18202 5.64269C4.92268 5.61546 4.63986 5.62985 4.4075 5.64075L4.45436 6.63965ZM4.43092 6.6402H4.43093V5.6402H4.43092V6.6402ZM3.15861 6.49999C3.38043 6.60599 3.62293 6.63855 3.83018 6.64896C4.04026 6.65952 4.26262 6.64865 4.45435 6.63965L4.40749 5.64075C4.2046 5.65027 4.03287 5.65789 3.88037 5.65022C3.72505 5.64242 3.6365 5.62004 3.58977 5.59771L3.15861 6.49999ZM2.87419 1.17512V6.04885H3.87419V1.17512H2.87419ZM2 1.67512H3.37419V0.675118H2V1.67512ZM2.5 8V1.17512H1.5V8H2.5ZM10 7.5H2V8.5H10V7.5ZM73 31.3325H35.2441V32.3325H73V31.3325ZM58.3117 53.7182C66.5201 49.636 71.9868 42.3994 73.4949 31.9036L72.5051 31.7614C71.042 41.944 65.7698 48.8923 57.8664 52.8228L58.3117 53.7182ZM57.4293 54.1772C57.7381 54.0127 58.0321 53.8561 58.3103 53.7189L57.8678 52.8221C57.5731 52.9675 57.2649 53.1318 56.9592 53.2946L57.4293 54.1772ZM57.4178 54.1832L57.4178 54.1831L56.9706 53.2887L56.9706 53.2887L57.4178 54.1832ZM54.5971 55.3598C55.4935 55.2154 56.5441 54.6488 57.4293 54.1772L56.9591 53.2947C56.0171 53.7965 55.1327 54.2606 54.438 54.3726L54.5971 55.3598ZM50.2256 55.4329C51.7036 55.4991 53.2383 55.5698 54.5939 55.3603L54.4412 54.3721C53.2031 54.5634 51.7745 54.5013 50.2704 54.4339L50.2256 55.4329ZM48.0161 55.3662C48.7345 55.3662 49.4745 55.3993 50.2256 55.4329L50.2704 54.4339C49.5235 54.4005 48.7607 54.3662 48.0161 54.3662V55.3662ZM28.5034 55.3662H48.0161V54.3662H28.5034V55.3662ZM21.8806 52.7286C22.6748 53.26 23.7782 53.9134 24.948 54.4359C26.1068 54.9535 27.3819 55.3662 28.5034 55.3662V54.3662C27.5939 54.3662 26.4734 54.022 25.3559 53.5228C24.2494 53.0286 23.1959 52.4054 22.4367 51.8975L21.8806 52.7286ZM12.1533 35.7523C13.4752 42.7985 16.594 49.1852 21.8803 52.7284L22.437 51.8977C17.4608 48.5623 14.4319 42.4747 13.1362 35.5679L12.1533 35.7523ZM11.5425 22.7464C11.4707 27.2488 11.3974 31.7246 12.1534 35.7523L13.1362 35.5679C12.4024 31.6584 12.4702 27.2895 12.5424 22.7624L11.5425 22.7464ZM11.5857 18.6859C11.5857 20.0392 11.5641 21.3947 11.5425 22.7464L12.5424 22.7624C12.5639 21.4119 12.5857 20.0485 12.5857 18.6859H11.5857ZM11.5857 1.23936V18.6859H12.5857V1.23936H11.5857ZM12.0915 0.505937C11.9606 0.526277 11.8364 0.589458 11.7424 0.695667C11.657 0.792261 11.6212 0.896621 11.6047 0.966215C11.5751 1.09134 11.5839 1.21962 11.5864 1.26671L12.5849 1.212C12.5835 1.18534 12.5832 1.17185 12.5833 1.16424C12.5835 1.15513 12.5842 1.16966 12.5778 1.19655C12.5717 1.22253 12.5521 1.28965 12.4915 1.35819C12.4224 1.43634 12.3315 1.48064 12.2451 1.49406L12.0915 0.505937ZM69.4295 0.5H12.1683V1.5H69.4295V0.5ZM69.9295 4.58824V1H68.9295V4.58824H69.9295ZM15.5005 5.08824H69.4295V4.08824H15.5005V5.08824ZM15.9281 14.7501C15.9926 11.3682 16.0581 7.94225 16.0005 4.57967L15.0006 4.59681C15.0579 7.93818 14.9929 11.3459 14.9282 14.731L15.9281 14.7501ZM19.5764 43.2088C17.5655 39.8446 16.5923 35.5219 16.1556 30.6199C15.7191 25.7207 15.8221 20.2976 15.9281 14.7501L14.9282 14.731C14.8226 20.2653 14.7174 25.7454 15.1595 30.7086C15.6014 35.6689 16.5935 40.1676 18.7181 43.7218L19.5764 43.2088ZM28.1128 50.2429C24.1583 48.8969 21.5066 46.4418 19.5766 43.209L18.7179 43.7216C20.7523 47.1291 23.5813 49.7569 27.7906 51.1896L28.1128 50.2429ZM32.6266 50.8599C30.7625 50.8599 29.4875 50.7124 28.1133 50.2431L27.7901 51.1894C29.3066 51.7073 30.702 51.8599 32.6266 51.8599V50.8599ZM48.6504 50.8599H32.6266V51.8599H48.6504V50.8599ZM50.4493 50.9178C49.8499 50.8891 49.2399 50.8599 48.6504 50.8599V51.8599C49.2118 51.8599 49.7974 51.8878 50.4015 51.9166L50.4493 50.9178ZM53.8872 50.8661C52.8538 51.0307 51.6773 50.9765 50.4493 50.9178L50.4015 51.9166C51.604 51.9741 52.8896 52.0376 54.0445 51.8536L53.8872 50.8661ZM58.8458 48.5449C58.2216 48.9507 57.3337 49.4778 56.4169 49.9322C55.4895 50.392 54.5756 50.7553 53.8864 50.8662L54.0453 51.8535C54.8894 51.7176 55.9143 51.2975 56.861 50.8282C57.8184 50.3536 58.7402 49.8063 59.3908 49.3834L58.8458 48.5449ZM68.1641 35.7405C66.3311 41.2465 63.3029 45.6537 58.8462 48.5447L59.3904 49.3836C64.078 46.3428 67.2252 41.7267 69.1129 36.0563L68.1641 35.7405ZM35.2441 36.3984H68.6385V35.3984H35.2441V36.3984ZM34.7441 31.8325V35.8984H35.7441V31.8325H34.7441ZM118.4 16.857C118.956 11.9032 117.141 7.89724 114.22 5.29644L113.555 6.04329C116.236 8.43009 117.926 12.1168 117.406 16.7454L118.4 16.857ZM105.31 34.9653C108.659 33.0039 111.676 30.8114 113.984 27.9356C116.298 25.0517 117.883 21.5023 118.4 16.8565L117.406 16.7459C116.909 21.209 115.396 24.5784 113.204 27.3097C111.005 30.0492 108.106 32.1686 104.804 34.1024L105.31 34.9653ZM111.461 45.044C109.439 41.4898 107.422 37.9429 105.499 34.3004L104.615 34.7672C106.546 38.4259 108.571 41.9864 110.591 45.5384L111.461 45.044ZM116.819 54.6526C115.077 51.4017 113.267 48.2199 111.461 45.044L110.591 45.5384C112.399 48.7161 114.202 51.8869 115.937 55.1249L116.819 54.6526ZM114.823 55.4051C115.45 55.329 115.914 55.2808 116.247 55.3712L116.509 54.4063C115.947 54.2532 115.261 54.3446 114.702 54.4124L114.823 55.4051ZM112.688 55.3631C113.373 55.591 114.188 55.4821 114.823 55.4051L114.702 54.4124C113.999 54.4978 113.432 54.5567 113.004 54.4143L112.688 55.3631ZM111.243 53.4459C111.419 53.8047 111.619 54.2133 111.83 54.5479C111.935 54.7161 112.053 54.8815 112.183 55.0194C112.309 55.1527 112.477 55.2945 112.691 55.3642L113.001 54.4133C113.014 54.4176 112.983 54.4101 112.911 54.3334C112.843 54.2614 112.764 54.156 112.676 54.016C112.499 53.7343 112.323 53.3765 112.14 53.0048L111.243 53.4459ZM110.887 52.7502C110.996 52.9438 111.113 53.1814 111.243 53.4459L112.14 53.0048C112.014 52.7478 111.884 52.4821 111.757 52.2583L110.887 52.7502ZM105.93 44.2001C107.613 47.0741 109.31 49.97 110.887 52.7509L111.757 52.2576C110.175 49.4695 108.475 46.5674 106.792 43.6946L105.93 44.2001ZM105.928 44.1979L105.929 44.1991L106.793 43.6957L106.792 43.6945L105.928 44.1979ZM100.931 35.5719C102.486 38.3211 104.2 41.2486 105.929 44.1989L106.792 43.6935C105.062 40.7417 103.352 37.8211 101.802 35.0798L100.931 35.5719ZM79.6904 35.8258H101.367V34.8258H79.6904V35.8258ZM80.1083 47.3842C80.0917 43.3185 80.0752 39.2623 80.1902 35.3405L79.1906 35.3112C79.0751 39.2526 79.0917 43.3258 79.1083 47.3883L80.1083 47.3842ZM80.1078 54.8929C80.1288 52.4097 80.1185 49.8952 80.1083 47.3842L79.1083 47.3883C79.1185 49.9004 79.1287 52.4086 79.1079 54.8845L80.1078 54.8929ZM76 55.3887H79.6079V54.3887H76V55.3887ZM75.5 31.7523V54.8887H76.5V31.7523H75.5ZM99.2003 31.2523H76V32.2523H99.2003V31.2523ZM89.8846 16.5998C92.9061 21.7572 95.9126 26.8892 98.7637 31.9961L99.6369 31.5086C96.7798 26.3911 93.768 21.2501 90.7474 16.0943L89.8846 16.5998ZM89.8938 16.6148L89.8939 16.615L90.7381 16.079L90.738 16.0788L89.8938 16.6148ZM81.1031 1.38407C83.9529 6.47473 86.9258 11.5493 89.8845 16.5996L90.7473 16.0941C87.7878 11.0424 84.8199 5.97626 81.9756 0.895586L81.1031 1.38407ZM91.6902 0.611157C88.2873 0.701746 84.9144 0.791319 81.5618 0.640335L81.5169 1.63932C84.9112 1.79219 88.32 1.70123 91.7168 1.6108L91.6902 0.611157ZM103.081 0.64075C99.2695 0.40907 95.4615 0.510758 91.6902 0.611157L91.7168 1.6108C95.4954 1.51021 99.2597 1.41032 103.02 1.63891L103.081 0.64075ZM114.221 5.29698C111.396 2.77326 107.878 0.928681 103.08 0.640727L103.02 1.63893C107.563 1.91153 110.873 3.64681 113.555 6.04275L114.221 5.29698ZM103.738 31.0875C103.048 30.3566 102.524 29.4503 101.977 28.5012L101.111 29.0001C101.646 29.9298 102.226 30.9426 103.01 31.7738L103.738 31.0875ZM111.394 25.023C109.458 27.8104 106.565 29.7972 103.211 30.9581L103.538 31.9031C107.054 30.6861 110.137 28.5855 112.215 25.5933L111.394 25.023ZM114.197 13.7424C114.608 18.3457 113.336 22.2337 111.394 25.0224L112.215 25.5938C114.288 22.6158 115.625 18.4947 115.193 13.6536L114.197 13.7424ZM110.686 7.57223C112.484 8.99927 113.964 11.1183 114.197 13.7422L115.193 13.6539C114.93 10.6914 113.263 8.34086 111.308 6.78893L110.686 7.57223ZM103.724 4.576C106.343 4.83677 108.91 6.15789 110.686 7.57169L111.309 6.78947C109.429 5.29225 106.684 3.86583 103.823 3.58092L103.724 4.576ZM98.0356 4.46972C99.9837 4.42992 101.887 4.39167 103.724 4.57596L103.824 3.58096C101.916 3.3896 99.9519 3.43036 98.0152 3.46993L98.0356 4.46972ZM95.5849 4.50308C96.4033 4.50308 97.2232 4.48631 98.0356 4.46972L98.0152 3.46993C97.201 3.48656 96.3913 3.50308 95.5849 3.50308V4.50308ZM87.2384 4.50308H95.5849V3.50308H87.2384V4.50308ZM87.6449 3.97946C87.6518 4.01351 87.6625 4.09324 87.6308 4.19145C87.5948 4.30266 87.5205 4.38766 87.4364 4.43983C87.3642 4.4846 87.2999 4.49617 87.2763 4.49969C87.2504 4.50354 87.2333 4.50308 87.2384 4.50308V3.50308C87.2306 3.50308 87.0638 3.49423 86.9094 3.58995C86.8088 3.65234 86.7219 3.75188 86.6793 3.88368C86.6409 4.0025 86.6508 4.10891 86.6647 4.17746L87.6449 3.97946ZM90.36 8.49358C89.4696 6.90547 88.569 5.29856 87.5708 3.80113L86.7388 4.35579C87.7119 5.81563 88.5938 7.38824 89.4877 8.98261L90.36 8.49358ZM91.6841 10.8223C91.2361 10.0563 90.7993 9.27712 90.36 8.49359L89.4877 8.98261C89.9262 9.76479 90.3676 10.552 90.8209 11.3271L91.6841 10.8223ZM95.1112 16.7249C93.9677 14.752 92.8245 12.7798 91.6845 10.823L90.8205 11.3264C91.9598 13.2821 93.1024 15.2533 94.246 17.2263L95.1112 16.7249ZM95.1138 16.7295L95.1112 16.7249L94.246 17.2263L94.2486 17.2309L95.1138 16.7295ZM95.1144 16.7305L95.1137 16.7292L94.2488 17.2312L94.2496 17.2325L95.1144 16.7305ZM101.638 27.9172C99.4733 24.2508 97.2933 20.4897 95.1146 16.7307L94.2494 17.2322C96.4278 20.9905 98.6098 24.7552 100.777 28.4256L101.638 27.9172ZM101.976 28.4993C101.865 28.3057 101.752 28.1106 101.639 27.9176L100.777 28.4252C100.888 28.6131 100.998 28.8039 101.109 28.9982L101.976 28.4993ZM101.976 28.4997L101.975 28.4978L101.11 28.9996L101.111 29.0015L101.976 28.4997ZM8.47885 10.0851C8.46136 10.3386 8.43559 10.6731 8.4807 10.9588L9.46846 10.8028C9.44477 10.6528 9.45645 10.4443 9.47648 10.1539L8.47885 10.0851ZM8.47569 9.35745C8.44851 9.33087 8.48258 9.34072 8.49533 9.50671C8.5071 9.65997 8.49518 9.84818 8.47885 10.0851L9.47648 10.1539C9.49144 9.93691 9.51086 9.67055 9.49239 9.43013C9.4749 9.20243 9.41714 8.87946 9.17491 8.64255L8.47569 9.35745ZM7.98117 10.1601C8.36628 9.9157 8.76441 9.66329 9.11995 9.40396L8.53065 8.59604C8.20614 8.83275 7.83671 9.0674 7.44538 9.31572L7.98117 10.1601ZM5.90373 11.7845C6.31333 11.2273 7.09586 10.7218 7.98117 10.1601L7.44538 9.31572C6.61743 9.8411 5.64347 10.4502 5.09803 11.1921L5.90373 11.7845ZM1.89928 10.6527C2.23764 10.1899 2.98387 9.97905 3.7322 10.1543C4.46047 10.3249 4.97854 10.8077 5.00114 11.5045L6.00062 11.4721C5.95867 10.1787 4.97035 9.41729 3.96026 9.18069C2.97023 8.94879 1.74612 9.16776 1.09199 10.0625L1.89928 10.6527ZM1.54703 13.6296C1.50975 12.9792 1.47715 12.3937 1.52094 11.8721C1.5645 11.3533 1.68042 10.9526 1.89954 10.6523L1.09172 10.0629C0.720273 10.572 0.57553 11.18 0.524449 11.7884C0.47361 12.3939 0.512399 13.054 0.548673 13.6868L1.54703 13.6296ZM1.53666 16.0638C1.64138 15.2492 1.59104 14.3973 1.54703 13.6296L0.548673 13.6868C0.593732 14.473 0.635616 15.23 0.544826 15.9362L1.53666 16.0638ZM8.97458 15.5H1.04074V16.5H8.97458V15.5ZM8.47458 14.4164V16H9.47458V14.4164H8.47458ZM5.72782 14.9164H8.97458V13.9164H5.72782V14.9164ZM7.43168 11.2948C6.94259 11.55 6.35291 11.8516 5.91468 12.3284C5.44861 12.8354 5.1775 13.5077 5.22856 14.4437L6.22708 14.3892C6.18962 13.7026 6.38022 13.2996 6.65092 13.0051C6.94945 12.6803 7.3716 12.4541 7.89422 12.1814L7.43168 11.2948ZM8.62087 10.5274C8.32383 10.8247 7.92153 11.0392 7.43168 11.2948L7.89422 12.1814C8.35497 11.941 8.90318 11.6597 9.32829 11.2342L8.62087 10.5274ZM4.39549 11.056C3.89145 10.7631 3.38081 10.6384 2.91838 10.8297C2.46635 11.0167 2.22915 11.4378 2.09948 11.824C1.84063 12.5949 1.86031 13.6775 1.90526 14.4456L2.90355 14.3872C2.85772 13.604 2.85824 12.7059 3.04747 12.1423C3.14184 11.8612 3.24549 11.7766 3.30058 11.7538C3.34526 11.7353 3.50801 11.6969 3.89307 11.9206L4.39549 11.056ZM4.92194 13.5561C4.91866 13.173 4.91551 12.7607 4.87729 12.3776C4.83939 11.9977 4.7635 11.6014 4.58957 11.2609L3.69899 11.7157C3.78942 11.8928 3.84905 12.1443 3.88223 12.4769C3.9151 12.8063 3.91861 13.1712 3.92198 13.5647L4.92194 13.5561ZM4.942 14.3877C4.92693 14.126 4.92444 13.8487 4.92194 13.5561L3.92198 13.5647C3.92444 13.8523 3.92692 14.1547 3.94366 14.4452L4.942 14.3877ZM2.4044 14.9164H4.44283V13.9164H2.4044V14.9164ZM9.46846 27.8028C9.44477 27.6528 9.45645 27.4443 9.47648 27.1539L8.47885 27.0851C8.46136 27.3386 8.43559 27.6731 8.4807 27.9588L9.46846 27.8028ZM7.89411 29.1812C8.35486 28.941 8.90313 28.6597 9.32829 28.2342L8.62087 27.5274C8.32386 27.8247 7.9216 28.0391 7.43173 28.2946L7.89411 29.1812ZM6.22708 31.3892C6.18961 30.7022 6.38025 30.2991 6.6509 30.0047C6.9494 29.6799 7.37148 29.4538 7.89411 29.1812L7.43173 28.2946C6.94265 28.5496 6.35292 28.8511 5.91466 29.3279C5.44856 29.835 5.1775 30.5074 5.22856 31.4437L6.22708 31.3892ZM8.97458 30.9164H5.72782V31.9164H8.97458V30.9164ZM9.47458 33V31.4164H8.47458V33H9.47458ZM1.04074 33.5H8.97458V32.5H1.04074V33.5ZM0.548668 30.686C0.593728 31.4723 0.635622 32.2296 0.544822 32.9363L1.53667 33.0637C1.64138 32.2488 1.59103 31.3966 1.54703 30.6288L0.548668 30.686ZM1.09172 27.0619C0.720279 27.571 0.575535 28.179 0.524452 28.7874C0.47361 29.3929 0.512395 30.053 0.548668 30.686L1.54703 30.6288C1.50975 29.9783 1.47715 29.3927 1.52095 28.871C1.5645 28.3523 1.68043 27.9516 1.89954 27.6513L1.09172 27.0619ZM6.00062 28.4721C5.95867 27.1787 4.97036 26.4173 3.96033 26.1806C2.9704 25.9486 1.7463 26.1672 1.0921 27.0614L1.89917 27.6518C2.23745 27.1895 2.9837 26.9788 3.73213 27.1542C4.46047 27.3249 4.97854 27.8077 5.00114 28.5045L6.00062 28.4721ZM7.44538 26.3157C6.61743 26.8411 5.64347 27.4502 5.09803 28.1921L5.90373 28.7845C6.31333 28.2273 7.09586 27.7218 7.98117 27.1601L7.44538 26.3157ZM8.53065 25.596C8.20614 25.8327 7.83671 26.0674 7.44538 26.3157L7.98117 27.1601C8.36628 26.9157 8.76441 26.6633 9.11995 26.404L8.53065 25.596ZM9.47648 27.1539C9.49144 26.9369 9.51086 26.6706 9.49239 26.4301C9.4749 26.2024 9.41714 25.8795 9.17491 25.6425L8.47569 26.3575C8.44851 26.3309 8.48258 26.3407 8.49533 26.5067C8.5071 26.66 8.49518 26.8482 8.47885 27.0851L9.47648 27.1539ZM2.90355 31.3872C2.85772 30.604 2.85824 29.7059 3.04747 29.1423C3.14184 28.8612 3.24549 28.7766 3.30058 28.7538C3.34526 28.7353 3.50801 28.6969 3.89307 28.9206L4.39549 28.056C3.89145 27.7631 3.38081 27.6384 2.91838 27.8297C2.46635 28.0167 2.22915 28.4377 2.09948 28.824C1.84063 29.5949 1.86031 30.6775 1.90526 31.4456L2.90355 31.3872ZM4.44283 30.9164H2.4044V31.9164H4.44283V30.9164ZM3.92198 30.5647C3.92444 30.8523 3.92692 31.1547 3.94366 31.4452L4.942 31.3877C4.92693 31.126 4.92444 30.8487 4.92194 30.5561L3.92198 30.5647ZM3.69899 28.7157C3.78942 28.8928 3.84905 29.1443 3.88223 29.4769C3.9151 29.8063 3.91861 30.1712 3.92198 30.5647L4.92194 30.5561C4.91866 30.173 4.91551 29.7607 4.87729 29.3776C4.83939 28.9977 4.7635 28.6014 4.58957 28.2609L3.69899 28.7157ZM9.47872 18.0005C9.46135 18.2351 9.43427 18.558 9.4808 18.8314L10.4666 18.6636C10.445 18.5364 10.4556 18.3503 10.476 18.0744L9.47872 18.0005ZM9.50496 17.3853C9.45153 17.3411 9.48305 17.3165 9.49555 17.467C9.50688 17.6034 9.49538 17.7755 9.47872 18.0005L10.476 18.0744C10.491 17.8715 10.5113 17.6147 10.4921 17.3843C10.4742 17.168 10.413 16.8386 10.1423 16.6147L9.50496 17.3853ZM6.10219 19.0591C7.41522 18.5401 8.73737 18.0175 10.023 17.4585L9.62429 16.5415C8.35673 17.0925 7.05039 17.609 5.73457 18.1291L6.10219 19.0591ZM6.10391 19.0584L6.10407 19.0584L5.73268 18.1299L5.73252 18.13L6.10391 19.0584ZM2.19944 20.6524C3.47141 20.0991 4.78213 19.5809 6.10203 19.0592L5.73441 18.1292C4.41732 18.6498 3.09069 19.1742 1.80056 19.7354L2.19944 20.6524ZM2.5 21.8763V20.1939H1.5V21.8763H2.5ZM9.58117 24.3111C7.10867 23.3507 4.63549 22.39 2.18537 21.4119L1.81463 22.3407C4.26979 23.3207 6.74733 24.2831 9.21908 25.2433L9.58117 24.3111ZM9.58248 24.3116L9.58189 24.3114L9.21835 25.243L9.21894 25.2432L9.58248 24.3116ZM10.1548 24.5339L9.58176 24.3113L9.21966 25.2435L9.79266 25.4661L10.1548 24.5339ZM9.47371 23.2444V25H10.4737V23.2444H9.47371ZM9.35897 23.5687C9.51651 23.6187 9.66492 23.6658 9.80789 23.7161L10.1395 22.7727C9.97962 22.7165 9.81643 22.6647 9.66153 22.6155L9.35897 23.5687ZM9.37287 23.5728L9.37289 23.5729L9.64761 22.6113L9.64759 22.6113L9.37287 23.5728ZM7.95277 22.9734C8.38763 23.2642 8.91979 23.4292 9.35895 23.5686L9.66151 22.6155C9.18939 22.4656 8.80323 22.3392 8.50869 22.1422L7.95277 22.9734ZM7.73073 19.3558V22.5578H8.73073V19.3558H7.73073ZM9.09954 18.5431C8.76317 18.683 8.47623 18.8008 8.13835 18.8644L8.32311 19.8471C8.77786 19.7617 9.15562 19.6028 9.48375 19.4663L9.09954 18.5431ZM9.82784 18.2692C9.56081 18.3507 9.31765 18.4523 9.09954 18.5431L9.48375 19.4663C9.7079 19.373 9.90689 19.2906 10.1196 19.2257L9.82784 18.2692ZM5.78086 22.2535L5.78092 22.2535L6.05564 21.292L6.05558 21.292L5.78086 22.2535ZM3.75791 21.3625C4.34978 21.7981 5.11016 22.0378 5.76494 22.2487L6.0715 21.2968C5.37675 21.0731 4.78611 20.8776 4.35063 20.5571L3.75791 21.3625ZM5.2682 20.003C4.81449 20.1876 4.39521 20.3574 3.93125 20.4752L4.17728 21.4445C4.71817 21.3072 5.19901 21.1108 5.64506 20.9293L5.2682 20.003ZM6.73821 19.4874C6.19663 19.6245 5.7151 19.8212 5.2682 20.003L5.64506 20.9293C6.09969 20.7443 6.51932 20.5744 6.98355 20.4569L6.73821 19.4874ZM7.36088 22.099V19.9722H6.36088V22.099H7.36088ZM5.765 22.2487C6.08819 22.3528 6.39202 22.4508 6.67633 22.5637L7.04544 21.6344C6.72483 21.507 6.38869 21.399 6.07156 21.2968L5.765 22.2487Z" fill="#2D2D2D"/>
</svg>
