<?xml version="1.0" encoding="UTF-8"?>
<svg width="3558px" height="664px" viewBox="0 0 3558 664" version="1.1" xmlns="http://www.w3.org/2000/svg" xmlns:xlink="http://www.w3.org/1999/xlink">
    <!-- Generator: Sketch 59 (86127) - https://sketch.com -->
    <title>Combined Shape</title>
    <desc>Created with Sketch.</desc>
    <g id="Page-1" stroke="none" stroke-width="1" fill="none" fill-rule="evenodd">
        <g id="grumz-bg" transform="translate(-298.000000, -349.000000)" fill-rule="nonzero" stroke="#2D2D2D">
            <path d="M3800.56216,350 C3801.79467,355.551802 3795.12616,362.13802 3790.87078,368.619487 C3661.3409,566.585743 3523.98786,765.822105 3393.39414,963.866925 C3545.03127,966.813046 3703.44071,962.93726 3855,965.896475 L3855,1012 L3304.95211,1012 C3304.57847,1010.20483 3305.00816,1008.37902 3305.91016,1006.52964 L3306.06481,1006.22078 C3308.23657,1002.00149 3312.76339,997.660027 3315.7333,993.275762 C3348.46488,945.16332 3381.48695,896.931603 3414.65868,848.627433 L3427.10482,830.509435 C3526.72564,685.538488 3627.53486,539.981375 3725.7296,395.082203 L3269.04079,395.082203 L3269.04079,352.854464 L3269.02251,352.534054 C3268.95655,351.308717 3268.96658,350.144556 3270.05274,350 L3800.56216,350 Z M2085.44972,350 C2194.47094,568.789385 2301.06687,790.098241 2408,1011.00242 C2407.99774,1011.00456 2407.99887,1011.0069 2408,1011.00923 C2405.29314,1011.42525 2402.58936,1011.67913 2399.88282,1011.81814 L2398.72269,1011.87052 C2390.21358,1012.21164 2381.66901,1011.4803 2372.90777,1011.14322 L2371.7117,1011.10076 C2368.91764,1011.0074 2366.10082,1010.96114 2363.25539,1011.00923 C2264.41519,811.633412 2166.75522,611.056612 2067.99284,411.589414 C1984.77383,574.976569 1904.94788,741.72584 1822.92096,906.294108 C1805.31182,941.624201 1787.60147,976.854205 1769.73435,1011.92927 C1763.00442,1011.84972 1756.03511,1011.99103 1749.19778,1011.9996 L1747.83218,1011.99971 C1740.55956,1011.99156 1733.46527,1011.80553 1727,1011.00923 C1727.00199,1011.00266 1727.00099,1011.00254 1727,1011.00242 C1833.27169,790.006861 1940.36046,569.964268 2047.55298,350 L2085.44972,350 Z M1135.21762,350 L1135.21762,393.9892 L473.924513,393.9892 C474.96912,454.912414 472.706651,517.582744 472.065533,578.078936 C470.858014,692.032017 475.403831,798.276374 518.641748,870.593205 C542.947979,911.295931 576.550826,942.45223 626.604524,959.484515 C644.327819,965.535801 660.700766,967.374662 683.929318,967.374662 L880.417677,967.374662 C901.724582,967.374662 925.537418,970.556803 945.59785,967.374662 C964.398824,964.349018 993.145618,948.164436 1008.77847,938.005056 C1064.84381,901.645172 1102.70544,846.335894 1125.5185,777.828551 L716.026009,777.828551 L716.026009,727.983688 L1179,727.983688 C1160.78331,854.734662 1094.94095,941.682778 996.157929,990.797313 C982.200023,997.683259 965.3986,1008.25997 952.362565,1010.35966 C944.948197,1011.50507 937.041113,1011.93954 928.859426,1011.99401 L927.493306,1011.99963 C909.701666,1012.0284 890.677801,1010.35966 872.640202,1010.35966 L633.36924,1010.35966 C608.465739,1010.35966 574.616195,991.801513 555.568523,979.059904 C492.647583,936.896523 454.954746,860.433826 438.9064,774.90724 C427.038934,711.694773 432.050796,639.092379 432.050796,566.816024 L432.050796,352.934352 C431.972892,351.512822 431.972892,350.16954 433.063556,350 L1135.21762,350 Z M1292.39536,351.7142 C1379.01301,355.64472 1466.5696,346.352035 1554.11315,351.7142 C1610.93235,355.150151 1652.46761,377.093382 1685.96968,407.249055 C1720.04554,437.821207 1741.36741,484.974424 1734.82088,543.71096 C1722.48419,655.379358 1659.44449,713.34801 1578.52571,761.099916 C1622.92997,845.866381 1671.45516,926.376953 1716.26368,1010.63583 C1704.68336,1007.46018 1686.06096,1014.91776 1673.29392,1010.63583 C1666.66915,1008.46234 1660.20086,991.126403 1654.74976,981.404224 C1615.7966,912.203657 1570.89679,837.23746 1533.6259,770.80908 L1533.6259,770.80908 L1269.89981,770.80908 C1267.6307,848.794748 1269.56075,931.049326 1268.89566,1010.63583 L1268.89566,1010.63583 L1225,1010.63583 L1225,727.000708 L1507.27025,727.000708 C1438.53167,602.942065 1362.39891,477.712074 1292.39536,351.7142 Z M3191.85598,350 C3192.28966,391.727779 3192.57019,433.6074 3192.74487,475.592144 C3193.21894,589.537342 3192.91336,704.253475 3192.77312,818.806535 C3192.69422,883.256814 3192.66767,947.656086 3192.86175,1011.83854 L3151.75592,1011.8385 L3151.75592,438.828985 C3138.30216,447.899551 3126.19377,458.716461 3113.57597,469.116333 C3025.56483,541.91544 2936.52181,619.6799 2848.51067,693.677989 C2848.42961,706.251388 2848.38576,718.863024 2848.36752,731.501223 C2848.29958,778.627318 2848.5878,826.122714 2848.63127,873.382108 C2848.67384,919.639395 2848.482,965.670643 2847.49223,1010.90825 L2847.49195,1010.90825 L2847.49184,1010.92623 L2847.49184,1010.92623 L2804.45285,1010.92623 L2804.45285,737.54512 C2804.45285,735.815126 2804.49094,734.051354 2804.55257,732.270357 C2804.8335,724.141548 2805.60366,715.662951 2805.4856,708.395449 C2805.42539,704.735923 2805.13988,701.383789 2804.45285,698.539083 C2802.27152,689.637939 2774.7762,669.84169 2767.29173,663.390642 C2677.84378,586.7991 2584.28134,510.637628 2495.32974,435.896691 L2495.32974,1010.92623 C2486.0702,1010.64446 2477.89839,1011.44236 2469.29716,1011.81724 L2467.93529,1011.87235 C2466.1141,1011.94119 2464.27035,1011.9877 2462.38987,1011.99789 L2460.9724,1011.99849 C2459.07267,1011.98962 2457.13267,1011.94096 2455.13825,1011.8385 C2455.15507,1006.28576 2455.17023,1000.73134 2455.18385,995.175372 C2455.3235,938.178605 2455.30034,881.018402 2455.23257,823.813565 C2455.12765,735.27216 2454.91588,646.622333 2455.03565,558.304846 C2455.1297,488.927746 2455.42832,419.756265 2456.14402,351.003497 C2457.73757,351.251113 2457.82901,350.078195 2459.08295,350 C2490.02661,370.55213 2524.92803,402.246982 2553.01113,425.157981 C2644.88859,500.14654 2736.70074,575.904012 2825.97888,650.710117 C2932.08076,562.38939 3038.92716,475.476164 3144.93761,386.15194 C3159.99799,373.406231 3173.7783,358.718691 3191.85598,350 Z M400.728939,653 C405.200168,657.565342 401.476329,670.634486 402.669531,678.525032 C387.983969,693.870033 358.77019,694.128963 360.461652,726.508822 L360.461652,726.508822 L402.669531,726.508822 L402.669531,748 L299.52968,748 C302.899493,720.621575 293.117859,689.045761 305.443242,671.411275 C318.345557,653 356.672252,659.759432 357.511427,686.769904 C366.532558,673.95969 386.554749,663.793286 400.728939,653 Z M339.87564,686.769904 C316.758992,672.746808 316.077162,705.453737 317.257252,726.508822 L317.257252,726.508822 L343.756825,726.508822 C342.996322,712.731029 344.596,696.418448 339.87564,686.769904 Z M1562.91576,387.739623 C1530.60041,384.472867 1496.77232,386.81556 1463.28329,386.81556 L1463.28329,386.81556 L1361.73382,386.81556 C1361.13394,386.81556 1360.5471,386.89365 1360.71663,387.739623 C1378.60874,414.784719 1393.94484,444.862303 1410.57198,473.50824 C1450.86836,543.203376 1491.49076,614.499353 1531.69585,683.101232 C1539.67688,696.75393 1547.22756,711.499885 1558.0515,723.057174 C1599.84758,708.480414 1636.20561,683.426607 1660.61817,647.999872 C1685.04377,612.651228 1700.91455,563.558781 1695.78947,505.668218 C1692.77702,471.425846 1673.63299,444.029345 1650.79837,425.76935 C1628.56364,407.925833 1596.24829,391.084469 1562.91576,387.739623 Z M400.707433,549 C405.215461,552.728926 401.471953,564.74876 402.658276,571.717355 C394.854906,574.097521 388.580575,578.01157 379.999505,579.624793 L379.999505,579.624793 L379.999505,621.25124 C386.366105,625.509091 394.947176,627.466116 402.658276,630.17686 L402.658276,630.17686 L402.658276,653 C368.044004,639.552066 333.350644,626.104132 299,612.391736 L299,612.391736 L299,590.520661 C332.256591,576.054545 367.464024,563.452893 400.707433,549 Z M362.191477,587.638017 C349.128741,590.943802 338.781368,597.158678 325.705451,600.477686 C335.551933,607.723967 349.972349,610.434711 362.191477,615.287603 L362.191477,615.287603 Z M400.728939,445 C405.200168,449.565342 401.476329,462.634486 402.669531,470.525032 C387.983969,485.870033 358.77019,486.142591 360.461652,518.508822 L360.461652,518.508822 L402.669531,518.508822 L402.669531,540 L299.52968,540 C302.899493,512.635203 293.117859,481.059389 305.443242,463.424903 C318.345557,445 356.672252,451.759432 357.511427,478.769904 C366.532558,465.95969 386.554749,455.793286 400.728939,445 Z M339.87564,478.769904 C316.758992,464.746808 316.077162,497.453737 317.257252,518.508822 L317.257252,518.508822 L343.756825,518.508822 C342.996322,504.731029 344.596,488.418448 339.87564,478.769904 Z M403,359 L403,435 L299,435 L299,360.901285 L316.864463,360.901285 L316.864463,413.816092 C322.497521,416.064233 332.361983,414.150101 339.687603,414.805274 L339.687603,364.79378 L357.472727,364.79378 L357.472727,414.805274 L384.196694,414.805274 C386.484298,398.117647 384.527273,377.267748 385.214876,359 L403,359 Z" id="Combined-Shape"></path>
        </g>
    </g>
</svg>