<svg width="30" height="25" viewBox="0 0 30 25" fill="none" xmlns="http://www.w3.org/2000/svg">
<path fill-rule="evenodd" clip-rule="evenodd" d="M19.8105 12.5519V15.8396H27.4538V21.3706C27.4538 21.3706 24.849 22.6482 21.3849 22.213C17.9208 21.7772 15.7169 19.5122 14.6003 18.1478C13.4837 16.7834 12.1379 14.2276 12.1379 14.2276C12.1379 14.2276 14.6571 11.8181 15.2298 7.52045C15.8904 2.56306 12.625 0 12.625 0H0L7.61519 12.5519H0.829976V24.9278H3.52096V15.8396H9.67607C9.67607 15.8396 10.0483 16.3768 11.3079 18.4379C13.0612 21.3081 16.9478 25 21.4136 25C25.8794 25 30 23.5482 30 23.5482V12.5519H19.8105ZM10.5922 11.7598L4.95233 3.02008H11.3079C11.3079 3.02008 14.6571 6.3594 10.5922 11.7598ZM15.2019 0.000508126C16.1754 1.19136 16.8333 2.97713 16.8333 2.97713L29.9997 2.9768L29.9998 0.000730754L15.2019 0.000508126Z" fill="white"/>
</svg>
