<svg width="72" height="71" viewBox="0 0 72 71" fill="none" xmlns="http://www.w3.org/2000/svg">
<rect width="72" height="71" fill="#F2F2F2"/>
<rect x="-8160" y="-4819" width="17494" height="14293" fill="#1A1A1A"/>
<g clip-path="url(#clip0)">
<rect width="1600" height="5726" transform="translate(-1115 -352)" fill="#151515"/>
<rect x="-1114.86" y="-352.469" width="1600" height="1000" fill="#151515"/>
<mask id="mask0" mask-type="alpha" maskUnits="userSpaceOnUse" x="-1115" y="-353" width="1601" height="1001">
<rect x="-1114.86" y="-352.469" width="1600" height="1000" fill="white"/>
</mask>
<g mask="url(#mask0)">
<rect x="-1114.86" y="-222.469" width="1299" height="871" fill="black"/>
<path d="M373.821 58.711L373.324 58.6556V58.6561L373.821 58.711ZM324.97 -77.7509L324.635 -77.3793L324.636 -77.3788L324.97 -77.7509ZM217.526 276.1L217.272 275.669L216.862 275.911L217.083 276.332L217.526 276.1ZM290.144 407.97L289.709 408.216L289.714 408.226L289.72 408.235L290.144 407.97ZM290.146 407.973L290.589 407.742L290.581 407.725L290.57 407.708L290.146 407.973ZM290.148 407.977L289.705 408.209L289.709 408.216L289.713 408.223L290.148 407.977ZM355.264 525.636L355.131 526.118L356.25 526.425L355.705 525.401L355.264 525.636ZM335.612 525.881L335.551 525.385L335.612 525.881ZM312.294 525.636L312.453 525.162L312.45 525.161L312.294 525.636ZM298.248 505.244L297.799 505.464L298.248 505.244ZM293.75 496.404L294.186 496.16L294.185 496.159L293.75 496.404ZM233.416 391.545L232.983 391.795L232.984 391.797L233.416 391.545ZM233.4 391.517L233.833 391.267L233.832 391.265L233.4 391.517ZM233.392 391.503L232.96 391.755L232.96 391.755L233.392 391.503ZM233.372 391.469L233.805 391.218L233.805 391.218L233.372 391.469ZM172.626 285.809L173.062 285.564L172.919 285.309H172.626V285.809ZM-91.1002 285.809V285.309H-91.5858L-91.6 285.795L-91.1002 285.809ZM-92.0994 433.661H-91.5994V433.659L-92.0994 433.661ZM-92.0994 433.672H-92.5994V433.674L-92.0994 433.672ZM-92.1043 525.636V526.136H-91.6085L-91.6043 525.64L-92.1043 525.636ZM-136 525.636H-136.5V526.136H-136V525.636ZM-136 242.001V241.501H-136.5V242.001H-136ZM146.27 242.001V242.501H147.119L146.708 241.758L146.27 242.001ZM38.1783 53.1432L37.7461 53.3945L38.1783 53.1432ZM-68.6046 -133.286L-68.582 -133.785L-69.4767 -133.826L-69.0417 -133.043L-68.6046 -133.286ZM55.0588 -133.639L55.0723 -133.14L55.0588 -133.639ZM193.113 -133.286L193.083 -132.787L193.083 -132.787L193.113 -133.286ZM174.785 205.204L175.219 204.956L175.214 204.947L174.785 205.204ZM174.784 205.202L174.35 205.45L174.355 205.459L174.784 205.202ZM197.052 238.057L196.687 238.399L196.909 238.636L197.216 238.529L197.052 238.057ZM299.618 163L299.207 162.716L299.206 162.716L299.618 163ZM334.789 20.6682L334.291 20.712V20.7123L334.789 20.6682ZM289.798 -59.2307L289.485 -58.8407L289.486 -58.8401L289.798 -59.2307ZM201.916 -97.2604L201.865 -96.7629L201.866 -96.7629L201.916 -97.2604ZM131.976 -98.5922L131.965 -99.0921L131.976 -98.5922ZM-0.283325 -97.2604L-0.77356 -97.1621L-0.754395 -97.0661L-0.700317 -96.9845L-0.283325 -97.2604ZM33.4043 -40.1414L33.8456 -40.3767L33.8412 -40.3845L33.4043 -40.1414ZM33.4069 -40.1366L32.9656 -39.9013L32.97 -39.8935L33.4069 -40.1366ZM49.572 -11.4918L50.0049 -11.742L50.0044 -11.7428L49.572 -11.4918ZM91.2883 60.9053L90.8549 61.1546L90.8562 61.1568L91.2883 60.9053ZM91.3011 60.9273L91.7344 60.6776L91.7333 60.6758L91.3011 60.9273ZM91.318 60.9565L91.7513 60.7072L91.7512 60.7068L91.318 60.9565ZM170.696 198.101L171.127 197.849L171.127 197.848L170.696 198.101ZM-182 242.984L-181.505 243.055L-181.423 242.484H-182V242.984ZM-644.974 242.984V242.484H-645.474V242.984H-644.974ZM-364.842 505.797L-364.621 506.246L-364.619 506.245L-364.842 505.797ZM-375.815 511.503L-375.58 511.945L-375.815 511.503ZM-408.637 525.36L-408.561 525.854L-408.558 525.853L-408.637 525.36ZM-460.992 526.184L-461.014 526.683L-460.992 526.184ZM-805.431 494.06L-805.71 494.475L-805.71 494.475L-805.431 494.06ZM-922.094 289.907L-921.602 289.815L-921.602 289.815L-922.094 289.907ZM-929.479 131.693L-928.979 131.701L-929.479 131.693ZM-928.949 -132.066H-928.449V-132.079L-928.45 -132.093L-928.949 -132.066ZM-927.936 -135V-135.5H-927.975L-928.013 -135.494L-927.936 -135ZM-225.782 -135H-225.282V-135.5H-225.782V-135ZM-225.782 -91.0108V-90.5108H-225.282V-91.0108H-225.782ZM-887.075 -91.0108V-91.5108H-887.584L-887.575 -91.0022L-887.075 -91.0108ZM-887.963 33.4434L-888.463 33.4339V33.4434H-887.963ZM-887.963 33.4485L-887.463 33.4581V33.4485H-887.963ZM-842.358 385.593L-841.929 385.337L-841.929 385.337L-842.358 385.593ZM-734.395 474.484L-734.234 474.011L-734.234 474.011L-734.395 474.484ZM-458.82 483.078L-458.844 483.577L-458.832 483.578H-458.82V483.078ZM-458.816 483.078L-458.792 482.578L-458.804 482.578H-458.816V483.078ZM-415.402 482.375L-415.323 482.868L-415.323 482.868L-415.402 482.375ZM-352.222 453.005L-352.494 452.586L-352.494 452.586L-352.222 453.005ZM-235.482 292.829L-235.007 292.987L-234.788 292.329H-235.482V292.829ZM-644.974 292.829H-645.474V293.329H-644.974V292.829ZM-949 -126H-948.5V-126.5H-949V-126ZM-949 -50V-49.5H-948.5V-50H-949ZM-966.785 -126V-126.5H-967.267L-967.285 -126.019L-966.785 -126ZM-966.798 -104.201L-966.298 -104.21L-966.798 -104.201ZM-967.803 -70.1947V-69.6947H-967.367L-967.308 -70.1268L-967.803 -70.1947ZM-994.527 -70.1947H-995.027V-69.6947H-994.527V-70.1947ZM-994.527 -120.206H-994.027V-120.706H-994.527V-120.206ZM-1012.31 -120.206V-120.706H-1012.81V-120.206H-1012.31ZM-1012.31 -70.1947L-1012.36 -69.6966L-1011.81 -69.649V-70.1947H-1012.31ZM-1021.4 -70.1921V-69.6921H-1021.39L-1021.38 -69.6925L-1021.4 -70.1921ZM-1021.4 -70.1921V-70.6921H-1021.41L-1021.42 -70.6917L-1021.4 -70.1921ZM-1035.14 -71.1839H-1035.64V-70.8451L-1035.32 -70.7195L-1035.14 -71.1839ZM-1035.14 -124.099H-1034.64V-124.599H-1035.14V-124.099ZM-1053 -124.099V-124.599H-1053.5V-124.099H-1053ZM-1053 -50H-1053.5V-49.5H-1053V-50ZM-958.29 -24.8074L-957.791 -24.7744L-958.29 -24.8074ZM-958.33 -14.475L-957.969 -14.1293L-957.799 -14.3068L-957.836 -14.5497L-958.33 -14.475ZM-960.271 -40L-959.914 -40.3499L-960.223 -40.6653L-960.574 -40.3978L-960.271 -40ZM-974.727 -29.9857L-974.451 -29.5689L-974.727 -29.9857ZM-1003.49 -6.2301L-1003.99 -6.21457L-1003.94 -4.71806L-1003.08 -5.94221L-1003.49 -6.2301ZM-1055.56 -21.5751L-1055.97 -21.8619L-1055.97 -21.8615L-1055.56 -21.5751ZM-1061.38 23.2189L-1060.88 23.1915L-1061.38 23.2189ZM-1061.47 55L-1061.97 54.9389L-1062.04 55.5H-1061.47V55ZM-958.33 55V55.5H-957.83V55H-958.33ZM-958.33 33.5088H-957.83V33.0088H-958.33V33.5088ZM-1000.54 33.5088L-1001.04 33.5349L-1001.01 34.0088H-1000.54V33.5088ZM-975.382 -2.84009L-975.142 -2.40099L-975.382 -2.84009ZM-1021.12 -6.2301L-1020.68 -6.44983L-1020.74 -6.58154L-1020.87 -6.65759L-1021.12 -6.2301ZM-1043.74 33.5088L-1044.24 33.5368L-1044.22 34.0088H-1043.74V33.5088ZM-1017.51 21.8915L-1018.01 21.8956L-1017.51 21.8915ZM-1017.24 33.5088V34.0088H-1016.71L-1016.74 33.4813L-1017.24 33.5088ZM-958.33 193.525L-957.969 193.871L-957.799 193.693L-957.836 193.45L-958.33 193.525ZM-958.29 183.193L-957.791 183.226L-958.29 183.193ZM-975.382 205.157L-975.143 205.596L-975.382 205.157ZM-1000.54 241.509L-1001.04 241.535L-1001.01 242.009H-1000.54V241.509ZM-958.33 241.509H-957.83V241.009H-958.33V241.509ZM-958.33 263V263.5H-957.83V263H-958.33ZM-1061.47 263L-1061.97 262.939L-1062.04 263.5H-1061.47V263ZM-1061.38 231.207L-1060.88 231.18L-1061.38 231.207ZM-1055.56 186.411L-1055.97 186.124L-1055.97 186.125L-1055.56 186.411ZM-1003.49 201.77L-1003.99 201.785L-1003.94 203.282L-1003.08 202.058L-1003.49 201.77ZM-974.727 178.014L-975.004 177.597L-974.727 178.014ZM-960.271 168L-959.914 167.65L-960.223 167.335L-960.574 167.602L-960.271 168ZM-1043.74 241.509L-1044.24 241.537L-1044.22 242.009H-1043.74V241.509ZM-1021.12 201.77L-1020.68 201.55L-1020.74 201.418L-1020.87 201.342L-1021.12 201.77ZM-1017.24 241.509V242.009H-1016.71L-1016.74 241.481L-1017.24 241.509ZM-1017.51 229.891L-1018.01 229.896L-1017.51 229.891ZM-949.294 77.4868L-948.796 77.5237L-949.294 77.4868ZM-949.342 86.7174L-949.196 87.1956L-948.775 87.0672L-948.849 86.6335L-949.342 86.7174ZM-951.293 64L-950.974 63.6147L-951.21 63.4191L-951.492 63.5415L-951.293 64ZM-1002.06 84.7244L-1001.93 85.2052L-1001.9 85.1984L-1001.88 85.1894L-1002.06 84.7244ZM-1002.06 84.7245L-1002.2 84.2437L-1002.22 84.2492L-1002.24 84.2563L-1002.06 84.7245ZM-1002.06 84.7246L-1002.24 84.2564L-1002.25 84.2596L-1002.06 84.7246ZM-1053 105.521L-1053.2 105.062L-1053.5 105.193V105.521H-1053ZM-1053 127.392H-1053.5V127.73L-1053.19 127.856L-1053 127.392ZM-956.793 165.105L-956.612 164.639H-956.612L-956.793 165.105ZM-949.342 168L-949.523 168.466L-948.842 168.731V168H-949.342ZM-949.342 145.177H-948.842V144.823L-949.176 144.705L-949.342 145.177ZM-955.367 143.197L-955.518 143.674H-955.518L-955.367 143.197ZM-972 136.251H-972.5V136.518L-972.278 136.667L-972 136.251ZM-972 94.6248L-972.093 94.1334L-972.5 94.21V94.6248H-972ZM-958.209 90.0608L-958.401 89.5991H-958.401L-958.209 90.0608ZM-1002.06 126.046L-1001.88 125.581L-1001.89 125.575L-1001.91 125.57L-1002.06 126.046ZM-1002.06 126.046L-1002.25 126.51L-1002.23 126.516L-1002.22 126.522L-1002.06 126.046ZM-1026.29 115.478L-1026.42 114.993L-1027.44 115.253L-1026.59 115.88L-1026.29 115.478ZM-1008.06 109.06L-1008.23 108.59L-1008.24 108.593L-1008.25 108.597L-1008.06 109.06ZM-1008.06 109.06L-1007.89 109.53L-1007.88 109.527L-1007.88 109.523L-1008.06 109.06ZM-989.809 102.638H-989.309V101.996L-989.931 102.153L-989.809 102.638ZM-989.809 130.288L-989.993 130.752L-989.309 131.024V130.288H-989.809ZM374.318 58.7663C380.882 -0.131241 359.499 -47.4435 325.304 -78.1231L324.636 -77.3788C358.592 -46.9141 379.853 0.0800934 373.324 58.6556L374.318 58.7663ZM217.78 276.531C258.263 252.641 294.311 226.174 321.783 191.686C349.26 157.19 368.14 114.691 374.318 58.7659L373.324 58.6561C367.166 114.4 348.357 156.719 321 191.063C293.638 225.414 257.707 251.807 217.272 275.669L217.78 276.531ZM290.58 407.724C265.993 364.168 241.407 320.61 217.969 275.868L217.083 276.332C240.529 321.09 265.124 364.661 289.709 408.216L290.58 407.724ZM290.57 407.708L290.568 407.705L289.72 408.235L289.722 408.238L290.57 407.708ZM290.592 407.746L290.589 407.742L289.703 408.204L289.705 408.209L290.592 407.746ZM355.705 525.401C334.55 485.621 312.567 446.676 290.584 407.732L289.713 408.223C311.697 447.17 333.674 486.103 354.822 525.871L355.705 525.401ZM335.672 526.378C342.921 525.491 349.806 524.658 355.131 526.118L355.396 525.154C349.838 523.63 342.73 524.507 335.551 525.385L335.672 526.378ZM312.135 526.11C319.032 528.423 327.57 527.369 335.672 526.378L335.551 525.385C327.379 526.385 319.091 527.388 312.453 525.162L312.135 526.11ZM297.799 505.464C299.979 509.935 302.282 514.657 304.654 518.462C305.84 520.365 307.053 522.055 308.289 523.375C309.52 524.69 310.804 525.673 312.138 526.111L312.45 525.161C311.343 524.798 310.197 523.951 309.019 522.692C307.845 521.438 306.671 519.808 305.502 517.933C303.163 514.181 300.884 509.509 298.697 505.025L297.799 505.464ZM293.314 496.649C294.739 499.192 296.237 502.263 297.799 505.464L298.697 505.025C297.14 501.832 295.629 498.733 294.186 496.16L293.314 496.649ZM232.984 391.797C253.456 427.009 274.108 462.53 293.314 496.649L294.185 496.159C274.976 462.033 254.32 426.505 233.849 391.294L232.984 391.797ZM232.967 391.767L232.983 391.795L233.849 391.295L233.833 391.267L232.967 391.767ZM232.96 391.755L232.968 391.769L233.832 391.265L233.824 391.252L232.96 391.755ZM232.94 391.72L232.96 391.755L233.824 391.252L233.805 391.218L232.94 391.72ZM172.19 286.054C191.071 319.707 211.91 355.55 232.94 391.721L233.805 391.218C212.774 355.046 191.939 319.21 173.062 285.564L172.19 286.054ZM-91.1002 286.309H172.626V285.309H-91.1002V286.309ZM-91.5994 433.659C-91.801 383.835 -92.0026 334.013 -90.6003 285.824L-91.6 285.795C-93.0027 334.004 -92.801 383.842 -92.5994 433.663L-91.5994 433.659ZM-91.5994 433.664V433.661H-92.5994V433.664H-91.5994ZM-91.5994 433.667V433.664H-92.5994V433.667H-91.5994ZM-91.5994 433.67V433.667H-92.5994V433.67H-91.5994ZM-91.5994 433.672V433.67H-92.5994V433.672H-91.5994ZM-91.6043 525.64C-91.3503 495.242 -91.4749 464.456 -91.5994 433.67L-92.5994 433.674C-92.4749 464.461 -92.3503 495.241 -92.6043 525.632L-91.6043 525.64ZM-136 526.136H-92.1043V525.136H-136V526.136ZM-136.5 242.001V525.636H-135.5V242.001H-136.5ZM146.27 241.501H-136V242.501H146.27V241.501ZM37.7461 53.3945C74.502 116.612 111.111 179.577 145.833 242.243L146.708 241.758C111.98 179.082 75.3655 116.108 38.6106 52.8919L37.7461 53.3945ZM-69.0417 -133.043C-34.3992 -70.6907 1.74365 -8.52714 37.7461 53.3945L38.6106 52.8919C2.60742 -9.03123 -33.5305 -71.1863 -68.1675 -133.529L-69.0417 -133.043ZM55.0454 -134.139C13.6779 -133.03 -27.559 -131.924 -68.582 -133.785L-68.6273 -132.786C-27.5621 -130.923 13.7108 -132.03 55.0723 -133.14L55.0454 -134.139ZM193.144 -133.785C147.057 -136.608 100.971 -135.371 55.0454 -134.139L55.0723 -133.14C101.005 -134.372 147.047 -135.606 193.083 -132.787L193.144 -133.785ZM325.304 -78.1226C291.731 -108.342 250.092 -130.341 193.143 -133.785L193.083 -132.787C249.773 -129.359 291.204 -107.471 324.635 -77.3793L325.304 -78.1226ZM175.214 204.947L175.213 204.945L174.355 205.459L174.356 205.461L175.214 204.947ZM197.417 237.715C188.497 228.191 181.804 216.482 175.219 204.956L174.351 205.452C180.925 216.959 187.673 228.775 196.687 238.399L197.417 237.715ZM299.206 162.716C274.864 198.04 238.601 223.037 196.887 237.585L197.216 238.529C239.094 223.924 275.547 198.813 300.03 163.284L299.206 162.716ZM334.291 20.7123C339.406 78.485 323.567 127.462 299.207 162.716L300.03 163.284C324.52 127.841 340.423 78.6326 335.287 20.6241L334.291 20.7123ZM289.486 -58.8401C312.242 -40.6432 331.294 -13.3623 334.291 20.712L335.287 20.6244C332.26 -13.786 313.024 -41.2981 290.111 -59.6212L289.486 -58.8401ZM201.866 -96.7629C235.076 -93.4303 267.303 -76.6423 289.485 -58.8407L290.111 -59.6206C267.824 -77.506 235.42 -94.4008 201.966 -97.7579L201.866 -96.7629ZM131.986 -98.0923C155.624 -98.5789 179.123 -99.0619 201.865 -96.7629L201.966 -97.7578C179.153 -100.064 155.592 -99.5784 131.965 -99.0921L131.986 -98.0923ZM102.283 -97.6844C112.173 -97.6844 122.092 -97.8886 131.986 -98.0923L131.965 -99.0921C122.069 -98.8884 112.161 -98.6844 102.283 -98.6844V-97.6844ZM0.733765 -97.6844H102.283V-98.6844H0.733765V-97.6844ZM0.206909 -97.3586C0.174683 -97.5192 0.189819 -97.5903 0.195801 -97.6088C0.19751 -97.6143 0.19397 -97.6108 0.20166 -97.6156C0.221191 -97.6279 0.27063 -97.6493 0.372192 -97.6646C0.471558 -97.6795 0.591064 -97.6844 0.733765 -97.6844V-98.6844C0.450562 -98.6844 0.0106201 -98.6754 -0.328247 -98.4637C-0.521118 -98.3432 -0.677002 -98.1616 -0.756348 -97.9145C-0.831543 -97.6804 -0.826172 -97.4245 -0.77356 -97.1621L0.206909 -97.3586ZM33.8412 -40.3845C22.9897 -59.8873 12.1373 -79.392 0.133667 -97.5363L-0.700317 -96.9845C11.2784 -78.8778 22.1123 -59.4073 32.9674 -39.8983L33.8412 -40.3845ZM33.848 -40.3719L33.8455 -40.3767L32.9631 -39.9061L32.9657 -39.9013L33.848 -40.3719ZM50.0044 -11.7428C44.5243 -21.1841 39.1841 -30.7818 33.8438 -40.3797L32.97 -39.8935C38.3096 -30.2969 43.6542 -20.6913 49.1396 -11.2408L50.0044 -11.7428ZM91.7217 60.656C77.798 36.4508 63.8821 12.2595 50.0049 -11.742L49.1392 -11.2415C63.0156 12.7589 76.931 36.9493 90.855 61.1546L91.7217 60.656ZM91.7333 60.6758L91.7205 60.6538L90.8562 61.1568L90.869 61.1789L91.7333 60.6758ZM91.7512 60.7068L91.7344 60.6776L90.8679 61.177L90.8848 61.2063L91.7512 60.7068ZM171.127 197.848C144.779 152.89 118.251 106.774 91.7513 60.7072L90.8846 61.2059C117.383 107.272 143.913 153.391 170.264 198.354L171.127 197.848ZM175.218 204.954C173.856 202.57 172.498 200.193 171.127 197.849L170.264 198.354C171.632 200.693 172.987 203.065 174.35 205.45L175.218 204.954ZM-182 242.484H-644.974V243.484H-182V242.484ZM-364.619 506.245C-265.684 457.055 -199.744 369.962 -181.505 243.055L-182.495 242.913C-200.689 369.507 -266.434 456.311 -365.065 505.35L-364.619 506.245ZM-375.58 511.945C-371.811 509.937 -368.125 507.975 -364.621 506.246L-365.063 505.349C-368.584 507.086 -372.284 509.056 -376.05 511.062L-375.58 511.945ZM-408.558 525.853C-398.702 524.266 -386.755 517.896 -375.58 511.945L-376.05 511.062C-387.282 517.044 -399.062 523.311 -408.717 524.866L-408.558 525.853ZM-461.014 526.683C-442.744 527.501 -424.522 528.32 -408.561 525.854L-408.714 524.866C-424.557 527.313 -442.673 526.504 -460.969 525.684L-461.014 526.683ZM-488.36 525.86C-479.403 525.86 -470.201 526.272 -461.014 526.683L-460.969 525.684C-470.152 525.273 -479.377 524.86 -488.36 524.86V525.86ZM-727.631 525.86H-488.36V524.86H-727.631V525.86ZM-805.71 494.475C-796.168 500.858 -782.919 508.698 -768.931 514.944C-754.954 521.186 -740.188 525.86 -727.631 525.86V524.86C-739.977 524.86 -754.588 520.254 -768.523 514.031C-782.448 507.813 -795.647 500.003 -805.153 493.644L-805.71 494.475ZM-922.585 289.999C-906.524 375.596 -868.786 452.208 -805.71 494.475L-805.153 493.645C-867.919 451.585 -905.567 375.272 -921.602 289.815L-922.585 289.999ZM-929.979 131.685C-930.862 187.02 -931.73 241.288 -922.585 289.999L-921.602 289.815C-930.725 241.222 -929.863 187.061 -928.979 131.701L-929.979 131.685ZM-929.449 81.816C-929.449 98.4593 -929.715 115.121 -929.979 131.685L-928.979 131.701C-928.715 115.138 -928.449 98.4686 -928.449 81.816H-929.449ZM-929.449 -132.066V81.816H-928.449V-132.066H-929.449ZM-928.013 -135.494C-928.394 -135.435 -928.707 -135.265 -928.94 -135.001C-929.165 -134.747 -929.293 -134.433 -929.368 -134.118C-929.513 -133.501 -929.487 -132.738 -929.448 -132.038L-928.45 -132.093C-928.49 -132.815 -928.502 -133.434 -928.394 -133.887C-928.343 -134.107 -928.27 -134.249 -928.191 -134.339C-928.121 -134.418 -928.024 -134.48 -927.86 -134.506L-928.013 -135.494ZM-225.782 -135.5H-927.936V-134.5H-225.782V-135.5ZM-225.282 -91.0108V-135H-226.282V-91.0108H-225.282ZM-887.075 -90.5108H-225.782V-91.5108H-887.075V-90.5108ZM-887.463 33.453C-886.671 -8.02281 -885.871 -49.9177 -886.576 -91.0194L-887.575 -91.0022C-886.871 -49.9218 -887.671 -8.04515 -888.463 33.4339L-887.463 33.453ZM-887.463 33.4444V33.4434H-888.463V33.4444H-887.463ZM-887.463 33.4454V33.4444H-888.463V33.4454H-887.463ZM-887.463 33.4464V33.4454H-888.463V33.4464H-887.463ZM-887.463 33.4474V33.4464H-888.463V33.4474H-887.463ZM-887.463 33.4485V33.4474H-888.463V33.4485H-887.463ZM-841.929 385.337C-867.227 343.024 -879.268 289.04 -884.652 228.617C-890.036 168.197 -888.761 101.393 -887.463 33.4581L-888.463 33.4389C-889.76 101.36 -891.038 168.221 -885.648 228.706C-880.259 289.187 -868.199 343.347 -842.787 385.85L-841.929 385.337ZM-734.234 474.011C-784.161 457.022 -817.675 425.952 -841.929 385.337L-842.788 385.85C-818.429 426.64 -784.738 457.882 -734.557 474.958L-734.234 474.011ZM-677.071 481.875C-700.269 481.875 -716.582 480.038 -734.234 474.011L-734.557 474.958C-716.763 481.033 -700.329 482.875 -677.071 482.875V481.875ZM-480.582 481.875H-677.071V482.875H-480.582V481.875ZM-458.796 482.578C-466.171 482.226 -473.513 481.875 -480.582 481.875V482.875C-473.541 482.875 -466.224 483.224 -458.844 483.577L-458.796 482.578ZM-458.819 482.578H-458.82V483.578H-458.819V482.578ZM-458.819 482.578H-458.819V483.578H-458.819V482.578ZM-458.818 482.578H-458.819V483.578H-458.818V482.578ZM-458.817 482.578H-458.818V483.578H-458.817V482.578ZM-458.816 482.578H-458.817V483.578H-458.816V482.578ZM-415.481 481.881C-428.837 484.008 -443.878 483.291 -458.792 482.578L-458.84 483.577C-443.951 484.289 -428.801 485.015 -415.323 482.868L-415.481 481.881ZM-352.494 452.586C-360.297 457.657 -371.375 464.233 -382.846 469.917C-394.327 475.607 -406.159 480.381 -415.482 481.881L-415.323 482.868C-405.845 481.343 -393.902 476.512 -382.402 470.813C-370.891 465.109 -359.779 458.513 -351.949 453.424L-352.494 452.586ZM-235.956 292.671C-258.742 361.096 -296.544 416.301 -352.494 452.586L-351.95 453.425C-295.769 416.99 -257.848 361.576 -235.007 292.987L-235.956 292.671ZM-644.974 293.329H-235.482V292.329H-644.974V293.329ZM-645.474 242.984V292.829H-644.474V242.984H-645.474ZM-949.5 -126V-50H-948.5V-126H-949.5ZM-966.785 -125.5H-949V-126.5H-966.785V-125.5ZM-966.298 -104.21C-966.423 -111.605 -966.549 -118.984 -966.285 -125.981L-967.285 -126.019C-967.549 -118.99 -967.423 -111.582 -967.297 -104.193L-966.298 -104.21ZM-967.308 -70.1268C-965.892 -80.4537 -966.096 -92.3561 -966.298 -104.21L-967.297 -104.193C-967.095 -92.3185 -966.896 -80.4984 -968.299 -70.2626L-967.308 -70.1268ZM-994.527 -69.6947H-967.803V-70.6947H-994.527V-69.6947ZM-995.027 -120.206V-70.1947H-994.027V-120.206H-995.027ZM-1012.31 -119.706H-994.527V-120.706H-1012.31V-119.706ZM-1011.81 -70.1947V-120.206H-1012.81V-70.1947H-1011.81ZM-1021.38 -69.6925C-1018.22 -69.8161 -1015.1 -69.9376 -1012.36 -69.6966L-1012.27 -70.6928C-1015.09 -70.9404 -1018.28 -70.8147 -1021.42 -70.6917L-1021.38 -69.6925ZM-1021.4 -69.6921H-1021.4V-70.6921H-1021.4V-69.6921ZM-1035.32 -70.7195C-1033.5 -69.9919 -1031.28 -69.6904 -1028.9 -69.5906C-1026.52 -69.4907 -1023.94 -69.5922 -1021.38 -69.6925L-1021.42 -70.6917C-1023.99 -70.591 -1026.53 -70.4918 -1028.86 -70.5897C-1031.2 -70.6878 -1033.28 -70.9827 -1034.95 -71.6483L-1035.32 -70.7195ZM-1035.64 -124.099V-71.1839H-1034.64V-124.099H-1035.64ZM-1053 -123.599H-1035.14V-124.599H-1053V-123.599ZM-1052.5 -50V-124.099H-1053.5V-50H-1052.5ZM-949 -50.5H-1053V-49.5H-949V-50.5ZM-958.789 -24.8403C-959.032 -21.1666 -959.282 -17.4222 -958.825 -14.4002L-957.836 -14.5497C-958.273 -17.4416 -958.036 -21.0654 -957.791 -24.7744L-958.789 -24.8403ZM-960.628 -39.6501C-959.36 -38.355 -958.773 -36.2504 -958.578 -33.6062C-958.385 -30.9765 -958.585 -27.9294 -958.789 -24.8403L-957.791 -24.7744C-957.589 -27.8444 -957.382 -30.9664 -957.581 -33.6796C-957.78 -36.3783 -958.387 -38.7905 -959.914 -40.3499L-960.628 -39.6501ZM-974.451 -29.5689C-969.408 -32.9101 -964.404 -36.2244 -959.968 -39.6022L-960.574 -40.3978C-964.979 -37.0436 -969.954 -33.7478 -975.004 -30.4025L-974.451 -29.5689ZM-1003.08 -5.94221C-996.938 -14.6637 -985.615 -22.1735 -974.451 -29.5689L-975.004 -30.4025C-986.112 -23.0436 -997.624 -15.4269 -1003.9 -6.51799L-1003.08 -5.94221ZM-1055.15 -21.2883C-1048.85 -30.2797 -1036.29 -33.1863 -1025.12 -30.4552C-1013.97 -27.7297 -1004.4 -19.4352 -1003.99 -6.21457L-1002.99 -6.24564C-1003.42 -20.0355 -1013.43 -28.6259 -1024.88 -31.4266C-1036.31 -34.2215 -1049.36 -31.2953 -1055.97 -21.8619L-1055.15 -21.2883ZM-1060.88 23.1915C-1061.36 14.4752 -1061.82 6.05849 -1061.21 -1.54979C-1060.59 -9.1562 -1058.91 -15.8997 -1055.15 -21.2887L-1055.97 -21.8615C-1059.88 -16.266 -1061.58 -9.32045 -1062.2 -1.62994C-1062.82 6.0587 -1062.35 14.5468 -1061.88 23.2463L-1060.88 23.1915ZM-1060.97 55.0611C-1059.7 44.6898 -1060.3 33.7262 -1060.88 23.1915L-1061.88 23.2463C-1061.3 33.7987 -1060.7 44.6714 -1061.97 54.9389L-1060.97 55.0611ZM-958.33 54.5H-1061.47V55.5H-958.33V54.5ZM-958.83 33.5088V55H-957.83V33.5088H-958.83ZM-1000.54 34.0088H-958.33V33.0088H-1000.54V34.0088ZM-975.621 -3.27919C-982.181 0.293716 -988.841 3.91505 -993.699 9.43231C-998.582 14.9785 -1001.62 22.4064 -1001.04 33.5349L-1000.04 33.4827C-1000.61 22.5903 -997.643 15.4253 -992.948 10.0931C-988.228 4.73196 -981.735 1.18932 -975.142 -2.40099L-975.621 -3.27919ZM-958.692 -14.8207C-963.322 -9.982 -969.428 -6.65204 -975.621 -3.27919L-975.142 -2.40099C-968.978 -5.75861 -962.726 -9.15841 -957.969 -14.1293L-958.692 -14.8207ZM-1020.87 -6.65759C-1026.7 -10.1993 -1031.26 -10.8738 -1034.77 -9.3568C-1038.27 -7.84721 -1040.55 -4.24274 -1042.02 0.331955C-1044.97 9.48766 -1044.83 23.0167 -1044.24 33.5368L-1043.24 33.4808C-1043.83 22.9459 -1043.95 9.5939 -1041.07 0.638138C-1039.63 -3.8429 -1037.47 -7.10177 -1034.38 -8.43872C-1031.3 -9.76827 -1027.1 -9.27245 -1021.38 -5.80261L-1020.87 -6.65759ZM-1017.01 21.8874C-1017.06 16.6226 -1017.1 11.3256 -1017.57 6.46507C-1018.03 1.60791 -1018.92 -2.85762 -1020.68 -6.44983L-1021.57 -6.01038C-1019.89 -2.5778 -1019.02 1.74767 -1018.56 6.56021C-1018.1 11.3693 -1018.06 16.6208 -1018.01 21.8956L-1017.01 21.8874ZM-1016.74 33.4813C-1016.95 29.7484 -1016.98 25.8263 -1017.01 21.8874L-1018.01 21.8956C-1017.98 25.8298 -1017.95 29.7759 -1017.74 33.5364L-1016.74 33.4813ZM-1043.74 34.0088H-1017.24V33.0088H-1043.74V34.0088ZM-957.836 193.45C-958.273 190.558 -958.036 186.935 -957.791 183.226L-958.789 183.16C-959.032 186.833 -959.282 190.578 -958.825 193.6L-957.836 193.45ZM-975.143 205.596C-968.978 202.24 -962.727 198.842 -957.969 193.871L-958.692 193.179C-963.323 198.018 -969.428 201.347 -975.621 204.718L-975.143 205.596ZM-1000.04 241.483C-1000.61 230.586 -997.643 223.419 -992.949 218.087C-988.228 212.726 -981.735 209.185 -975.143 205.596L-975.621 204.718C-982.181 208.289 -988.841 211.909 -993.699 217.426C-998.582 222.973 -1001.62 230.402 -1001.04 241.535L-1000.04 241.483ZM-958.33 241.009H-1000.54V242.009H-958.33V241.009ZM-957.83 263V241.509H-958.83V263H-957.83ZM-1061.47 263.5H-958.33V262.5H-1061.47V263.5ZM-1061.88 231.235C-1061.3 241.79 -1060.7 252.666 -1061.97 262.939L-1060.97 263.061C-1059.7 252.684 -1060.3 241.717 -1060.88 231.18L-1061.88 231.235ZM-1055.97 186.125C-1059.88 191.72 -1061.58 198.666 -1062.2 206.356C-1062.82 214.045 -1062.35 222.534 -1061.88 231.235L-1060.88 231.18C-1061.36 222.462 -1061.82 214.045 -1061.21 206.437C-1060.59 198.83 -1058.91 192.087 -1055.15 186.698L-1055.97 186.125ZM-1002.99 201.754C-1003.42 187.965 -1013.43 179.374 -1024.88 176.572C-1036.31 173.775 -1049.36 176.698 -1055.97 186.124L-1055.15 186.698C-1048.85 177.714 -1036.29 174.81 -1025.12 177.543C-1013.97 180.27 -1004.4 188.565 -1003.99 201.785L-1002.99 201.754ZM-975.004 177.597C-986.112 184.956 -997.624 192.573 -1003.9 201.482L-1003.08 202.058C-996.938 193.336 -985.615 185.826 -974.451 178.431L-975.004 177.597ZM-960.574 167.602C-964.979 170.956 -969.954 174.252 -975.004 177.597L-974.451 178.431C-969.408 175.09 -964.404 171.776 -959.968 168.398L-960.574 167.602ZM-957.791 183.226C-957.589 180.156 -957.382 177.034 -957.581 174.32C-957.78 171.622 -958.387 169.21 -959.914 167.65L-960.628 168.35C-959.36 169.645 -958.773 171.75 -958.578 174.394C-958.385 177.023 -958.585 180.071 -958.789 183.16L-957.791 183.226ZM-1043.24 241.481C-1043.83 230.946 -1043.95 217.594 -1041.07 208.638C-1039.63 204.157 -1037.47 200.898 -1034.38 199.561C-1031.3 198.232 -1027.1 198.728 -1021.38 202.197L-1020.87 201.342C-1026.7 197.801 -1031.26 197.126 -1034.77 198.643C-1038.27 200.153 -1040.55 203.757 -1042.02 208.332C-1044.97 217.488 -1044.83 231.017 -1044.24 241.537L-1043.24 241.481ZM-1017.24 241.009H-1043.74V242.009H-1017.24V241.009ZM-1018.01 229.896C-1017.98 233.83 -1017.95 237.776 -1017.74 241.536L-1016.74 241.481C-1016.95 237.748 -1016.98 233.826 -1017.01 229.887L-1018.01 229.896ZM-1021.57 201.99C-1019.89 205.422 -1019.02 209.748 -1018.56 214.56C-1018.1 219.369 -1018.06 224.621 -1018.01 229.896L-1017.01 229.887C-1017.06 224.623 -1017.1 219.326 -1017.57 214.465C-1018.03 209.608 -1018.92 205.142 -1020.68 201.55L-1021.57 201.99ZM-949.793 77.4499C-950.037 80.7473 -950.29 84.1245 -949.835 86.8013L-948.849 86.6335C-949.28 84.1029 -949.043 80.8625 -948.796 77.5237L-949.793 77.4499ZM-951.611 64.3853C-950.361 65.4191 -949.774 67.2232 -949.578 69.5747C-949.384 71.9121 -949.586 74.6575 -949.793 77.4499L-948.796 77.5237C-948.591 74.7536 -948.38 71.9234 -948.582 69.4919C-948.783 67.0746 -949.4 64.9166 -950.974 63.6147L-951.611 64.3853ZM-1001.88 85.1894C-984.792 78.435 -967.699 71.6779 -951.093 64.4585L-951.492 63.5415C-968.079 70.753 -985.157 77.5039 -1002.25 84.2594L-1001.88 85.1894ZM-1001.93 85.2052L-1001.93 85.2052L-1002.2 84.2437L-1002.2 84.2437L-1001.93 85.2052ZM-1001.89 85.1928L-1001.89 85.1926L-1002.24 84.2563L-1002.24 84.2564L-1001.89 85.1928ZM-1052.8 105.979C-1036.16 98.7391 -1019.02 91.9657 -1001.88 85.1896L-1002.25 84.2596C-1019.39 91.0346 -1036.54 97.8142 -1053.2 105.062L-1052.8 105.979ZM-1052.5 127.392V105.521H-1053.5V127.392H-1052.5ZM-956.612 164.639C-988.752 152.155 -1020.93 139.655 -1052.81 126.927L-1053.19 127.856C-1021.3 140.586 -989.113 153.087 -956.974 165.572L-956.612 164.639ZM-949.161 167.534L-956.612 164.639L-956.974 165.572L-949.523 168.466L-949.161 167.534ZM-949.842 145.177V168H-948.842V145.177H-949.842ZM-955.518 143.674C-953.486 144.319 -951.468 144.959 -949.508 145.649L-949.176 144.705C-951.153 144.01 -953.186 143.365 -955.216 142.721L-955.518 143.674ZM-972.278 136.667C-967.467 139.884 -961.425 141.799 -955.518 143.674L-955.216 142.721C-961.156 140.835 -967.052 138.959 -971.723 135.836L-972.278 136.667ZM-972.5 94.6248V136.251H-971.5V94.6248H-972.5ZM-958.401 89.5991C-962.724 91.3983 -966.999 93.1758 -972.093 94.1334L-971.908 95.1162C-966.698 94.1366 -962.332 92.3181 -958.016 90.5224L-958.401 89.5991ZM-949.488 86.2391C-952.633 87.1985 -955.529 88.4041 -958.401 89.5991L-958.017 90.5224C-955.139 89.3249 -952.287 88.1384 -949.196 87.1956L-949.488 86.2391ZM-1002.25 126.51L-1002.25 126.51L-1001.88 125.581L-1001.88 125.581L-1002.25 126.51ZM-1026.59 115.88C-1019.83 120.852 -1010.97 123.703 -1002.22 126.521L-1001.91 125.57C-1010.7 122.738 -1019.4 119.932 -1026 115.075L-1026.59 115.88ZM-1008.25 108.597C-1014.1 110.978 -1019.92 113.345 -1026.42 114.993L-1026.17 115.962C-1019.6 114.295 -1013.72 111.901 -1007.88 109.523L-1008.25 108.597ZM-1008.23 108.59L-1008.23 108.59L-1007.89 109.53L-1007.89 109.53L-1008.23 108.59ZM-989.931 102.153C-996.508 103.818 -1002.4 106.214 -1008.25 108.597L-1007.88 109.523C-1002.01 107.137 -996.185 104.767 -989.686 103.123L-989.931 102.153ZM-989.309 130.288V102.638H-990.309V130.288H-989.309ZM-1002.22 126.522C-998.051 127.863 -993.907 129.198 -989.993 130.752L-989.624 129.823C-993.574 128.254 -997.75 126.909 -1001.91 125.57L-1002.22 126.522Z" fill="#2D2D2D"/>
<g clip-path="url(#clip1)">
<path fill-rule="evenodd" clip-rule="evenodd" d="M36.1362 70.5308C55.4662 70.5308 71.1362 54.8608 71.1362 35.5308C71.1362 16.2009 55.4662 0.530823 36.1362 0.530823C16.8063 0.530823 1.13623 16.2009 1.13623 35.5308C1.13623 54.8608 16.8063 70.5308 36.1362 70.5308Z" stroke="url(#paint0_linear)"/>
<path fill-rule="evenodd" clip-rule="evenodd" d="M44.1362 35.5308L32.1362 41.5308V29.5308L44.1362 35.5308Z" fill="#BEBEBE"/>
</g>
</g>
</g>
<defs>
<linearGradient id="paint0_linear" x1="16.7235" y1="-11.4113" x2="-28.5232" y2="47.9075" gradientUnits="userSpaceOnUse">
<stop stop-color="white" stop-opacity="0.28"/>
<stop offset="1" stop-color="white" stop-opacity="0.02"/>
</linearGradient>
<clipPath id="clip0">
<rect width="1600" height="5726" fill="white" transform="translate(-1115 -352)"/>
</clipPath>
<clipPath id="clip1">
<rect width="218" height="205" fill="white" transform="translate(-72.5 -134)"/>
</clipPath>
</defs>
</svg>
