<svg width="42" height="42" viewBox="0 0 42 42" fill="none" xmlns="http://www.w3.org/2000/svg">
<path fill-rule="evenodd" clip-rule="evenodd" d="M21 41C32.0457 41 41 32.0457 41 21C41 9.9543 32.0457 1 21 1C9.9543 1 1 9.9543 1 21C1 32.0457 9.9543 41 21 41Z" stroke="url(#paint0_linear)"/>
<path d="M25.6577 29.9945C25.6267 30.0088 25.594 30.0242 25.5595 30.0404C24.9613 30.3214 23.8483 30.8444 22.3533 30.1698C20.8339 29.4843 19.0152 27.6066 16.8403 23.3214C14.6825 19.07 14.259 16.4958 14.61 14.8659C14.9622 13.2299 16.0712 12.6512 16.6313 12.3588C16.6516 12.3483 16.6712 12.338 16.69 12.3282L16.6966 12.3247L16.6966 12.3248C16.7231 12.3113 18.248 11.5525 18.2541 11.5496L18.6953 11.3369L18.917 11.7736L21.4837 16.829L21.712 17.2787L21.2603 17.5031L19.74 18.2584M25.6577 29.9945L19.7449 18.2556C19.7433 18.2565 19.7417 18.2574 19.74 18.2584M25.6577 29.9945C25.7565 29.9491 27.2228 29.2216 27.2245 29.2207L27.6752 28.9943L27.4448 28.5456L24.8573 23.507L24.6323 23.0688L24.1909 23.2872L24.1866 23.2893C24.1448 23.3101 23.8002 23.4809 23.4548 23.6519C23.2696 23.7435 23.0828 23.8358 22.9382 23.9071L22.7592 23.995C22.7175 24.0154 22.6971 24.0253 22.692 24.0277C22.6908 24.0283 22.6905 24.0285 22.6908 24.0283L22.6828 24.0319M25.6577 29.9945L22.6828 24.0319M19.74 18.2584C19.7039 18.2797 19.6475 18.3324 19.6108 18.4954M19.74 18.2584L19.6108 18.4954M22.6828 24.0319L22.6749 24.0358M22.6828 24.0319L22.6749 24.0358M22.6749 24.0358C22.6386 24.0535 22.5651 24.0731 22.4072 24.0056M22.6749 24.0358L22.4072 24.0056M22.4072 24.0056C22.2424 23.9351 22.0349 23.7876 21.798 23.5513M22.4072 24.0056L21.798 23.5513M21.798 23.5513C21.3271 23.0813 20.8325 22.3532 20.426 21.5526M21.798 23.5513L20.426 21.5526M20.426 21.5526C20.0196 20.752 19.7229 19.9217 19.62 19.2614M20.426 21.5526L19.62 19.2614M19.62 19.2614C19.5683 18.9294 19.5708 18.6725 19.6108 18.4954M19.62 19.2614L19.6108 18.4954" stroke="#454545"/>
<defs>
<linearGradient id="paint0_linear" x1="9.90699" y1="-5.82409" x2="-15.9482" y2="28.0724" gradientUnits="userSpaceOnUse">
<stop stop-color="white" stop-opacity="0.28"/>
<stop offset="1" stop-color="white" stop-opacity="0.02"/>
</linearGradient>
</defs>
</svg>
