<svg width="35" height="35" viewBox="0 0 35 35" fill="none" xmlns="http://www.w3.org/2000/svg">
<path d="M3.33098 25.5266L3.81307 25.6592L3.86866 25.4571L3.76353 25.2758L3.33098 25.5266ZM1 34L0.517909 33.8674L0.288152 34.7026L1.12629 34.4838L1 34ZM1.13771 17.3513L0.637707 17.3511L0.637707 17.3512L1.13771 17.3513ZM17.569 1L17.5692 0.5H17.569V1ZM29.1918 5.79555L29.5447 5.44136L29.5446 5.44133L29.1918 5.79555ZM34 17.3645L34.5 17.3647V17.3647L34 17.3645ZM17.5619 33.7168L17.5617 34.2168H17.5619V33.7168ZM9.71035 31.7263L9.94893 31.2869L9.77527 31.1926L9.58406 31.2425L9.71035 31.7263ZM10.6126 29.0603L10.8668 28.6298L10.8668 28.6297L10.6126 29.0603ZM10.1139 28.7659L10.3681 28.3353L10.189 28.2295L9.98766 28.2821L10.1139 28.7659ZM17.5636 30.9552L17.5633 31.4552H17.5636V30.9552ZM31.2255 17.3635L31.7255 17.3637V17.3637L31.2255 17.3635ZM27.2293 7.74778L27.5822 7.39357L27.5822 7.39355L27.2293 7.74778ZM17.5741 3.76185L17.5743 3.26185H17.5741V3.76185ZM3.91194 17.3523L3.41194 17.3521V17.3521L3.91194 17.3523ZM5.99985 24.5855L5.57712 24.8525L5.57725 24.8527L5.99985 24.5855ZM6.32501 25.0997L6.80708 25.2324L6.86573 25.0193L6.74761 24.8325L6.32501 25.0997ZM4.94475 30.1148L4.46267 29.9821L4.23281 30.8174L5.071 30.5986L4.94475 30.1148ZM13.322 10.6968L13.774 10.4831L13.774 10.4831L13.322 10.6968ZM12.3806 10.0093L12.3601 10.5089L12.3611 10.5089L12.3806 10.0093ZM14.1837 12.668L14.6436 12.4718V12.4718L14.1837 12.668ZM14.6113 13.6508L14.1687 13.8835L14.1688 13.8837L14.6113 13.6508ZM14.6463 14.3477L15.0888 14.5804L15.089 14.5799L14.6463 14.3477ZM14.5869 14.462L15.0314 14.6911L15.0314 14.6911L14.5869 14.462ZM14.2284 15.0112L14.6001 15.3457L14.6003 15.3454L14.2284 15.0112ZM14.0156 15.2543L14.394 15.5812L14.394 15.5812L14.0156 15.2543ZM13.6008 15.7083L13.9444 16.0716L13.945 16.071L13.6008 15.7083ZM13.4173 16.5203L13.8436 16.2591L13.8435 16.2589L13.4173 16.5203ZM15.7442 19.2758L16.0676 18.8945L16.0676 18.8945L15.7442 19.2758ZM18.8292 21.1313L18.6383 21.5934H18.6383L18.8292 21.1313ZM19.1078 21.2508L18.8924 21.702L18.8932 21.7024L19.1078 21.2508ZM20.0142 21.1506L19.646 20.8124L19.6458 20.8125L20.0142 21.1506ZM21.338 19.5912L21.7475 19.878L21.7476 19.878L21.338 19.5912ZM22.2794 19.3917L22.443 18.9192L22.4427 18.9191L22.2794 19.3917ZM25.1375 20.6863L24.9229 21.1379L24.9229 21.1379L25.1375 20.6863ZM25.3649 20.7919L25.5734 20.3375H25.5734L25.3649 20.7919ZM25.9391 21.1506L26.3624 20.8846L26.3624 20.8845L25.9391 21.1506ZM25.6952 23.0423L25.227 22.8666L25.227 22.8668L25.6952 23.0423ZM22.872 24.9339L22.829 24.4358L22.8288 24.4358L22.872 24.9339ZM22.6497 24.957L22.594 24.4601H22.594L22.6497 24.957ZM17.8526 23.9386L17.677 24.4067L17.677 24.4067L17.8526 23.9386ZM10.7978 18.0569L11.2056 17.7676L10.7978 18.0569ZM10.7078 17.9322L10.3149 18.2415L10.3151 18.2418L10.7078 17.9322ZM10.704 17.9275L11.0969 17.6182L11.0969 17.6182L10.704 17.9275ZM10.3828 10.5809L10.0267 10.2299L10.0267 10.2299L10.3828 10.5809ZM10.4641 10.4978L10.8242 10.8447L10.8243 10.8446L10.4641 10.4978ZM11.6315 10L11.6314 9.50001H11.6314L11.6315 10ZM2.84889 25.394L0.517909 33.8674L1.48209 34.1326L3.81307 25.6592L2.84889 25.394ZM0.637707 17.3512C0.636697 20.3209 1.41627 23.2211 2.89843 25.7774L3.76353 25.2758C2.37 22.8724 1.63676 20.1454 1.63771 17.3515L0.637707 17.3512ZM17.569 0.5C8.23818 0.5 0.641749 8.05682 0.637707 17.3511L1.63771 17.3515C1.64151 8.61353 8.78612 1.5 17.569 1.5V0.5ZM29.5446 5.44133C26.3483 2.25703 22.0961 0.50201 17.5692 0.5L17.5688 1.5C21.8321 1.50189 25.8305 3.15271 28.8389 6.14977L29.5446 5.44133ZM34.5 17.3647C34.5015 12.862 32.7407 8.62591 29.5447 5.44136L28.8388 6.14974C31.847 9.14704 33.5014 13.1282 33.5 17.3643L34.5 17.3647ZM17.569 34.2168C26.8986 34.2168 34.496 26.6587 34.5 17.3647L33.5 17.3643C33.4962 26.1021 26.3506 33.2168 17.569 33.2168V34.2168ZM17.5619 34.2168H17.569V33.2168H17.5619V34.2168ZM9.47177 32.1657C11.9448 33.5084 14.729 34.2158 17.5617 34.2168L17.562 33.2168C14.8953 33.2158 12.2751 32.5498 9.94893 31.2869L9.47177 32.1657ZM1.12629 34.4838L9.83664 32.2101L9.58406 31.2425L0.873713 33.5162L1.12629 34.4838ZM10.8668 28.6297L10.3681 28.3353L9.85969 29.1964L10.3583 29.4908L10.8668 28.6297ZM17.5639 30.4552C15.2016 30.4538 12.8861 29.8222 10.8668 28.6298L10.3583 29.4908C12.5325 30.7748 15.0235 31.4537 17.5633 31.4552L17.5639 30.4552ZM17.569 30.4552H17.5636V31.4552H17.569V30.4552ZM30.7255 17.3633C30.7224 24.5794 24.8223 30.4552 17.569 30.4552V31.4552C25.3703 31.4552 31.7222 25.136 31.7255 17.3637L30.7255 17.3633ZM26.8764 8.10199C29.3609 10.5772 30.7267 13.8647 30.7255 17.3633L31.7255 17.3637C31.7268 13.5984 30.2547 10.0561 27.5822 7.39357L26.8764 8.10199ZM17.5739 4.26185C21.09 4.26326 24.3916 5.62663 26.8764 8.102L27.5822 7.39355C24.9096 4.73113 21.3542 3.26337 17.5743 3.26185L17.5739 4.26185ZM4.41194 17.3525C4.41478 10.1368 10.315 4.26185 17.5741 4.26185V3.26185C9.76732 3.26185 3.41499 9.57982 3.41194 17.3521L4.41194 17.3525ZM6.42258 24.3185C5.10625 22.2345 4.411 19.8262 4.41194 17.3525L3.41194 17.3521C3.41093 20.0143 4.1594 22.6081 5.57712 24.8525L6.42258 24.3185ZM6.74761 24.8325L6.42245 24.3183L5.57725 24.8527L5.9024 25.3669L6.74761 24.8325ZM5.42682 30.2475L6.80708 25.2324L5.84293 24.9671L4.46267 29.9821L5.42682 30.2475ZM9.98766 28.2821L4.8185 29.631L5.071 30.5986L10.2402 29.2496L9.98766 28.2821ZM13.774 10.4831C13.5901 10.0943 13.3686 9.82632 13.0871 9.67108C12.8118 9.51932 12.5414 9.51517 12.4001 9.50965L12.3611 10.5089C12.518 10.515 12.5617 10.5233 12.6042 10.5468C12.6404 10.5668 12.7405 10.6367 12.8699 10.9106L13.774 10.4831ZM14.6436 12.4718C14.3585 11.8034 13.9934 10.9472 13.774 10.4831L12.8699 10.9105C13.0789 11.3527 13.4346 12.1863 13.7238 12.8642L14.6436 12.4718ZM15.0539 13.4182C15.054 13.4185 15.0505 13.4116 15.042 13.3934C15.0342 13.3766 15.0242 13.3547 15.012 13.3273C14.9876 13.2727 14.9563 13.2011 14.9191 13.1152C14.8448 12.9434 14.7495 12.7201 14.6436 12.4718L13.7238 12.8642C13.9273 13.3413 14.1119 13.7754 14.1687 13.8835L15.0539 13.4182ZM15.089 14.5799C15.3395 14.1025 15.1918 13.6804 15.0538 13.418L14.1688 13.8837C14.2068 13.9558 14.2201 14.0008 14.2234 14.0302C14.2256 14.0498 14.2254 14.0736 14.2035 14.1154L15.089 14.5799ZM15.0314 14.6911C15.0501 14.6546 15.0688 14.6185 15.0888 14.5804L14.2038 14.1149C14.1815 14.1572 14.161 14.197 14.1424 14.233L15.0314 14.6911ZM14.6003 15.3454C14.823 15.0975 14.9242 14.8991 15.0314 14.6911L14.1424 14.233C14.0407 14.4305 13.9878 14.5308 13.8565 14.6771L14.6003 15.3454ZM14.394 15.5812C14.4664 15.4974 14.5347 15.4183 14.6001 15.3457L13.8567 14.6768C13.7833 14.7583 13.7083 14.8452 13.6373 14.9275L14.394 15.5812ZM13.945 16.071C14.0925 15.931 14.255 15.742 14.394 15.5812L13.6373 14.9274C13.4871 15.1013 13.3604 15.2472 13.2566 15.3456L13.945 16.071ZM13.8435 16.2589C13.8099 16.2041 13.8084 16.1818 13.8091 16.187C13.8103 16.1965 13.8085 16.2114 13.8046 16.2213C13.8028 16.2259 13.8059 16.2155 13.8305 16.1864C13.8565 16.1558 13.8904 16.1226 13.9444 16.0716L13.2572 15.345C13.1673 15.4301 12.9709 15.6073 12.8731 15.8575C12.7545 16.1611 12.8052 16.4786 12.9911 16.7817L13.8435 16.2589ZM16.0676 18.8945C14.8849 17.8912 14.0783 16.6421 13.8436 16.2591L12.991 16.7815C13.2441 17.1946 14.1166 18.5508 15.4207 19.6571L16.0676 18.8945ZM19.02 20.6692C18.4468 20.4324 17.3434 19.9768 16.0676 18.8945L15.4207 19.657C16.8154 20.8403 18.0326 21.3433 18.6383 21.5934L19.02 20.6692ZM19.3232 20.7996C19.2394 20.7596 19.1307 20.7149 19.02 20.6692L18.6383 21.5934C18.7595 21.6435 18.8386 21.6764 18.8924 21.702L19.3232 20.7996ZM19.6458 20.8125C19.6085 20.8532 19.5852 20.8694 19.5754 20.8752C19.573 20.8766 19.5714 20.8774 19.5705 20.8778C19.57 20.878 19.5697 20.8781 19.5695 20.8782C19.5694 20.8783 19.5693 20.8783 19.5693 20.8783C19.5693 20.8783 19.5693 20.8783 19.5694 20.8783C19.5695 20.8782 19.5695 20.8782 19.5696 20.8782C19.5697 20.8782 19.5695 20.8782 19.5688 20.8783C19.5622 20.8791 19.4987 20.883 19.3223 20.7992L18.8932 21.7024C19.1352 21.8174 19.4029 21.9042 19.6839 21.8717C19.9852 21.8368 20.2098 21.6769 20.3826 21.4887L19.6458 20.8125ZM20.9285 19.3043C20.6724 19.6699 19.8959 20.5402 19.646 20.8124L20.3824 21.4888C20.6202 21.2299 21.446 20.3085 21.7475 19.878L20.9285 19.3043ZM22.4427 18.9191C22.265 18.8577 21.9959 18.7646 21.7154 18.7952C21.3819 18.8316 21.126 19.0222 20.9285 19.3044L21.7476 19.878C21.792 19.8146 21.8199 19.7935 21.8269 19.7889C21.83 19.7868 21.8298 19.7873 21.827 19.7883C21.8242 19.7894 21.8225 19.7895 21.8238 19.7893C21.8278 19.7889 21.8495 19.7875 21.902 19.7991C21.9561 19.8111 22.0221 19.8318 22.1161 19.8642L22.4427 18.9191ZM25.3521 20.2347C25.1408 20.1343 24.5202 19.8429 23.9041 19.5599C23.3035 19.284 22.6641 18.9958 22.443 18.9192L22.1158 19.8642C22.2781 19.9204 22.8586 20.18 23.4866 20.4686C24.099 20.7499 24.7157 21.0395 24.9229 21.1379L25.3521 20.2347ZM25.5734 20.3375C25.5027 20.3051 25.4297 20.2716 25.352 20.2347L24.9229 21.1379C25.0075 21.1781 25.0863 21.2142 25.1564 21.2464L25.5734 20.3375ZM26.3624 20.8845C26.2558 20.715 26.1018 20.6092 25.9817 20.5393C25.8596 20.4682 25.7119 20.401 25.5734 20.3375L25.1564 21.2464C25.3104 21.317 25.4077 21.3623 25.4786 21.4035C25.5514 21.4459 25.5382 21.4524 25.5157 21.4167L26.3624 20.8845ZM26.1633 23.2179C26.3534 22.7111 26.4505 22.2359 26.485 21.8557C26.5022 21.6662 26.5045 21.4924 26.4924 21.3448C26.4825 21.2248 26.4579 21.0366 26.3624 20.8846L25.5157 21.4166C25.4725 21.3478 25.4871 21.3216 25.4958 21.4268C25.5021 21.5043 25.5024 21.6189 25.4891 21.7654C25.4626 22.0572 25.3854 22.4446 25.227 22.8666L26.1633 23.2179ZM22.9151 25.4321C23.4102 25.3893 24.1069 25.1041 24.7025 24.7377C25.0091 24.5491 25.3105 24.326 25.5641 24.0785C25.8138 23.8348 26.0408 23.5446 26.1633 23.2178L25.227 22.8668C25.1752 23.0048 25.0581 23.1751 24.8657 23.3628C24.6771 23.5469 24.4383 23.7262 24.1785 23.886C23.6414 24.2164 23.1007 24.4123 22.829 24.4358L22.9151 25.4321ZM22.7054 25.4539C22.7818 25.4453 22.8488 25.4378 22.9152 25.4321L22.8288 24.4358C22.7478 24.4428 22.6683 24.4518 22.594 24.4601L22.7054 25.4539ZM17.677 24.4067C19.289 25.0114 20.3459 25.2983 21.1035 25.4205C21.8785 25.5455 22.33 25.496 22.7054 25.4539L22.594 24.4601C22.2607 24.4975 21.9106 24.5378 21.2628 24.4333C20.5975 24.3259 19.6102 24.0639 18.0282 23.4704L17.677 24.4067ZM10.3899 18.3461C10.9238 19.0989 13.5907 22.8736 17.677 24.4067L18.0282 23.4705C14.2572 22.0556 11.743 18.5253 11.2056 17.7676L10.3899 18.3461ZM10.3151 18.2418C10.3144 18.2409 10.3157 18.2426 10.32 18.2484C10.3241 18.2539 10.3294 18.2611 10.3362 18.2707C10.3501 18.29 10.3676 18.3146 10.3899 18.3461L11.2056 17.7676C11.1668 17.713 11.1264 17.6557 11.1004 17.6226L10.3151 18.2418ZM10.3111 18.2367L10.3149 18.2415L11.1007 17.623L11.0969 17.6182L10.3111 18.2367ZM8.5 13.8166C8.5 14.9076 8.91176 15.9495 9.32699 16.7306C9.74618 17.5192 10.1939 18.0879 10.3112 18.2368L11.0969 17.6182C10.9914 17.4842 10.5871 16.9707 10.21 16.2613C9.82889 15.5443 9.5 14.6723 9.5 13.8166H8.5ZM10.0267 10.2299C9.56681 10.6964 8.5 11.7798 8.5 13.8166H9.5C9.5 12.1874 10.3275 11.3492 10.7388 10.9319L10.0267 10.2299ZM10.104 10.1509C10.082 10.1738 10.0569 10.1993 10.0267 10.2299L10.7388 10.9319C10.768 10.9024 10.7974 10.8725 10.8242 10.8447L10.104 10.1509ZM11.5792 9.50001C11.1931 9.50001 10.5996 9.63609 10.1039 10.151L10.8243 10.8446C11.095 10.5634 11.4072 10.5 11.5792 10.5V9.50001ZM11.6314 9.50001C11.614 9.50001 11.5966 9.50001 11.5792 9.50001V10.5C11.5967 10.5 11.6142 10.5 11.6316 10.5L11.6314 9.50001ZM12.401 9.50969C12.1603 9.49984 11.8898 9.49996 11.6314 9.50001L11.6316 10.5C11.8954 10.5 12.144 10.5 12.3601 10.5089L12.401 9.50969Z" fill="#979797"/>
</svg>
