<svg width="154" height="151" viewBox="0 0 154 151" fill="none" xmlns="http://www.w3.org/2000/svg">
<g clip-path="url(#clip0)">
<path d="M39.7741 49.59H35.3741C35.4141 50.1367 35.6241 50.58 36.0041 50.92C36.3841 51.2533 36.8641 51.42 37.4441 51.42C37.7708 51.42 38.0708 51.3633 38.3441 51.25C38.6174 51.13 38.8541 50.9567 39.0541 50.73L39.4541 51.19C39.2208 51.47 38.9274 51.6833 38.5741 51.83C38.2274 51.9767 37.8441 52.05 37.4241 52.05C36.8841 52.05 36.4041 51.9367 35.9841 51.71C35.5708 51.4767 35.2474 51.1567 35.0141 50.75C34.7808 50.3433 34.6641 49.8833 34.6641 49.37C34.6641 48.8567 34.7741 48.3967 34.9941 47.99C35.2208 47.5833 35.5274 47.2667 35.9141 47.04C36.3074 46.8133 36.7474 46.7 37.2341 46.7C37.7208 46.7 38.1574 46.8133 38.5441 47.04C38.9308 47.2667 39.2341 47.5833 39.4541 47.99C39.6741 48.39 39.7841 48.85 39.7841 49.37L39.7741 49.59ZM37.2341 47.31C36.7274 47.31 36.3008 47.4733 35.9541 47.8C35.6141 48.12 35.4208 48.54 35.3741 49.06H39.1041C39.0574 48.54 38.8608 48.12 38.5141 47.8C38.1741 47.4733 37.7474 47.31 37.2341 47.31ZM44.4328 52L42.7628 49.8L41.0828 52H40.2828L42.3628 49.3L40.3828 46.74H41.1828L42.7628 48.8L44.3428 46.74H45.1228L43.1428 49.3L45.2428 52H44.4328ZM48.419 52.05C47.899 52.05 47.4324 51.9367 47.019 51.71C46.6124 51.4833 46.2924 51.1667 46.059 50.76C45.8257 50.3467 45.709 49.8833 45.709 49.37C45.709 48.8567 45.8257 48.3967 46.059 47.99C46.2924 47.5833 46.6124 47.2667 47.019 47.04C47.4324 46.8133 47.899 46.7 48.419 46.7C48.8724 46.7 49.2757 46.79 49.629 46.97C49.989 47.1433 50.2724 47.4 50.479 47.74L49.949 48.1C49.7757 47.84 49.5557 47.6467 49.289 47.52C49.0224 47.3867 48.7324 47.32 48.419 47.32C48.039 47.32 47.6957 47.4067 47.389 47.58C47.089 47.7467 46.8524 47.9867 46.679 48.3C46.5124 48.6133 46.429 48.97 46.429 49.37C46.429 49.7767 46.5124 50.1367 46.679 50.45C46.8524 50.7567 47.089 50.9967 47.389 51.17C47.6957 51.3367 48.039 51.42 48.419 51.42C48.7324 51.42 49.0224 51.3567 49.289 51.23C49.5557 51.1033 49.7757 50.91 49.949 50.65L50.479 51.01C50.2724 51.35 49.989 51.61 49.629 51.79C49.269 51.9633 48.8657 52.05 48.419 52.05ZM51.7957 44.58H52.5057V52H51.7957V44.58ZM59.2212 46.74V52H58.5412V51.04C58.3545 51.36 58.0979 51.61 57.7712 51.79C57.4445 51.9633 57.0712 52.05 56.6512 52.05C55.9645 52.05 55.4212 51.86 55.0212 51.48C54.6279 51.0933 54.4312 50.53 54.4312 49.79V46.74H55.1412V49.72C55.1412 50.2733 55.2779 50.6933 55.5512 50.98C55.8245 51.2667 56.2145 51.41 56.7212 51.41C57.2745 51.41 57.7112 51.2433 58.0312 50.91C58.3512 50.57 58.5112 50.1 58.5112 49.5V46.74H59.2212ZM62.6197 52.05C62.1931 52.05 61.7831 51.99 61.3897 51.87C61.0031 51.7433 60.6997 51.5867 60.4797 51.4L60.7997 50.84C61.0197 51.0133 61.2964 51.1567 61.6297 51.27C61.9631 51.3767 62.3097 51.43 62.6697 51.43C63.1497 51.43 63.5031 51.3567 63.7297 51.21C63.9631 51.0567 64.0797 50.8433 64.0797 50.57C64.0797 50.3767 64.0164 50.2267 63.8897 50.12C63.7631 50.0067 63.6031 49.9233 63.4097 49.87C63.2164 49.81 62.9597 49.7533 62.6397 49.7C62.2131 49.62 61.8697 49.54 61.6097 49.46C61.3497 49.3733 61.1264 49.23 60.9397 49.03C60.7597 48.83 60.6697 48.5533 60.6697 48.2C60.6697 47.76 60.8531 47.4 61.2197 47.12C61.5864 46.84 62.0964 46.7 62.7497 46.7C63.0897 46.7 63.4297 46.7467 63.7697 46.84C64.1097 46.9267 64.3897 47.0433 64.6097 47.19L64.2997 47.76C63.8664 47.46 63.3497 47.31 62.7497 47.31C62.2964 47.31 61.9531 47.39 61.7197 47.55C61.4931 47.71 61.3797 47.92 61.3797 48.18C61.3797 48.38 61.4431 48.54 61.5697 48.66C61.7031 48.78 61.8664 48.87 62.0597 48.93C62.2531 48.9833 62.5197 49.04 62.8597 49.1C63.2797 49.18 63.6164 49.26 63.8697 49.34C64.1231 49.42 64.3397 49.5567 64.5197 49.75C64.6997 49.9433 64.7897 50.21 64.7897 50.55C64.7897 51.01 64.5964 51.3767 64.2097 51.65C63.8297 51.9167 63.2997 52.05 62.6197 52.05ZM66.1023 46.74H66.8123V52H66.1023V46.74ZM66.4623 45.59C66.3156 45.59 66.1923 45.54 66.0923 45.44C65.9923 45.34 65.9423 45.22 65.9423 45.08C65.9423 44.9467 65.9923 44.83 66.0923 44.73C66.1923 44.63 66.3156 44.58 66.4623 44.58C66.609 44.58 66.7323 44.63 66.8323 44.73C66.9323 44.8233 66.9823 44.9367 66.9823 45.07C66.9823 45.2167 66.9323 45.34 66.8323 45.44C66.7323 45.54 66.609 45.59 66.4623 45.59ZM73.2079 46.74L70.8679 52H70.1379L67.8079 46.74H68.5479L70.5179 51.22L72.5079 46.74H73.2079ZM78.6413 49.59H74.2413C74.2813 50.1367 74.4913 50.58 74.8713 50.92C75.2513 51.2533 75.7313 51.42 76.3113 51.42C76.638 51.42 76.938 51.3633 77.2113 51.25C77.4846 51.13 77.7213 50.9567 77.9213 50.73L78.3213 51.19C78.088 51.47 77.7946 51.6833 77.4413 51.83C77.0946 51.9767 76.7113 52.05 76.2913 52.05C75.7513 52.05 75.2713 51.9367 74.8513 51.71C74.438 51.4767 74.1146 51.1567 73.8813 50.75C73.648 50.3433 73.5313 49.8833 73.5313 49.37C73.5313 48.8567 73.6413 48.3967 73.8613 47.99C74.088 47.5833 74.3946 47.2667 74.7813 47.04C75.1746 46.8133 75.6146 46.7 76.1013 46.7C76.588 46.7 77.0246 46.8133 77.4113 47.04C77.798 47.2667 78.1013 47.5833 78.3213 47.99C78.5413 48.39 78.6513 48.85 78.6513 49.37L78.6413 49.59ZM76.1013 47.31C75.5946 47.31 75.168 47.4733 74.8213 47.8C74.4813 48.12 74.288 48.54 74.2413 49.06H77.9713C77.9246 48.54 77.728 48.12 77.3813 47.8C77.0413 47.4733 76.6146 47.31 76.1013 47.31ZM80.0964 44.58H80.8064V52H80.0964V44.58ZM87.202 46.74L84.572 52.63C84.3587 53.1233 84.112 53.4733 83.832 53.68C83.552 53.8867 83.2153 53.99 82.822 53.99C82.5687 53.99 82.332 53.95 82.112 53.87C81.892 53.79 81.702 53.67 81.542 53.51L81.872 52.98C82.1387 53.2467 82.4587 53.38 82.832 53.38C83.072 53.38 83.2753 53.3133 83.442 53.18C83.6153 53.0467 83.7753 52.82 83.922 52.5L84.152 51.99L81.802 46.74H82.542L84.522 51.21L86.502 46.74H87.202ZM90.8191 44.58H91.5291V52H90.8191V44.58ZM98.2446 46.74V52H97.5646V51.04C97.378 51.36 97.1213 51.61 96.7946 51.79C96.468 51.9633 96.0946 52.05 95.6746 52.05C94.988 52.05 94.4446 51.86 94.0446 51.48C93.6513 51.0933 93.4546 50.53 93.4546 49.79V46.74H94.1646V49.72C94.1646 50.2733 94.3013 50.6933 94.5746 50.98C94.848 51.2667 95.238 51.41 95.7446 51.41C96.298 51.41 96.7346 51.2433 97.0546 50.91C97.3746 50.57 97.5346 50.1 97.5346 49.5V46.74H98.2446ZM103.583 52L101.913 49.8L100.233 52H99.4332L101.513 49.3L99.5332 46.74H100.333L101.913 48.8L103.493 46.74H104.273L102.293 49.3L104.393 52H103.583ZM110.217 46.74V52H109.537V51.04C109.351 51.36 109.094 51.61 108.767 51.79C108.441 51.9633 108.067 52.05 107.647 52.05C106.961 52.05 106.417 51.86 106.017 51.48C105.624 51.0933 105.427 50.53 105.427 49.79V46.74H106.137V49.72C106.137 50.2733 106.274 50.6933 106.547 50.98C106.821 51.2667 107.211 51.41 107.717 51.41C108.271 51.41 108.707 51.2433 109.027 50.91C109.347 50.57 109.507 50.1 109.507 49.5V46.74H110.217ZM112.886 47.77C113.052 47.4167 113.299 47.15 113.626 46.97C113.959 46.79 114.369 46.7 114.856 46.7V47.39L114.686 47.38C114.132 47.38 113.699 47.55 113.386 47.89C113.072 48.23 112.916 48.7067 112.916 49.32V52H112.206V46.74H112.886V47.77ZM120.786 46.74L118.156 52.63C117.943 53.1233 117.696 53.4733 117.416 53.68C117.136 53.8867 116.799 53.99 116.406 53.99C116.153 53.99 115.916 53.95 115.696 53.87C115.476 53.79 115.286 53.67 115.126 53.51L115.456 52.98C115.723 53.2467 116.043 53.38 116.416 53.38C116.656 53.38 116.859 53.3133 117.026 53.18C117.199 53.0467 117.359 52.82 117.506 52.5L117.736 51.99L115.386 46.74H116.126L118.106 51.21L120.086 46.74H120.786Z" fill="white"/>
<path fill-rule="evenodd" clip-rule="evenodd" d="M76.6362 151C95.9661 151 111.636 135.33 111.636 116C111.636 96.67 95.9661 81 76.6362 81C57.3062 81 41.6362 96.67 41.6362 116C41.6362 135.33 57.3062 151 76.6362 151Z" stroke="url(#paint0_linear)"/>
<path fill-rule="evenodd" clip-rule="evenodd" d="M84.6362 116L72.6362 122V110L84.6362 116Z" fill="#BEBEBE"/>
<path d="M16.9551 21.712C16.9871 21.712 17.0031 21.76 17.0031 21.856C17.0031 21.952 16.9871 22 16.9551 22H13.4751C13.0911 22 12.3631 21.32 11.2911 19.96C10.2351 18.584 8.97109 16.704 7.49909 14.32C7.13109 14.4 6.77909 14.44 6.44309 14.44C6.13909 14.44 5.74709 14.424 5.26709 14.392V20.056C5.26709 20.536 5.31509 20.896 5.41109 21.136C5.50709 21.36 5.68309 21.512 5.93909 21.592C6.21109 21.672 6.63509 21.712 7.21109 21.712C7.25909 21.712 7.28309 21.76 7.28309 21.856C7.28309 21.952 7.25909 22 7.21109 22C6.71509 22 6.32309 21.992 6.03509 21.976L4.30709 21.952L2.62709 21.976C2.32309 21.992 1.91509 22 1.40309 22C1.35509 22 1.33109 21.952 1.33109 21.856C1.33109 21.76 1.35509 21.712 1.40309 21.712C1.97909 21.712 2.40309 21.672 2.67509 21.592C2.94709 21.512 3.13109 21.36 3.22709 21.136C3.32309 20.896 3.37109 20.536 3.37109 20.056V8.944C3.37109 8.464 3.32309 8.112 3.22709 7.888C3.13109 7.664 2.94709 7.512 2.67509 7.432C2.41909 7.336 2.00309 7.288 1.42709 7.288C1.39509 7.288 1.37909 7.24 1.37909 7.144C1.37909 7.048 1.39509 7 1.42709 7L2.62709 7.024C3.33109 7.056 3.89109 7.072 4.30709 7.072C4.59509 7.072 4.86709 7.064 5.12309 7.048C5.37909 7.032 5.60309 7.016 5.79509 7C6.32309 6.952 6.81909 6.928 7.28309 6.928C8.64309 6.928 9.69109 7.2 10.4271 7.744C11.1631 8.272 11.5311 9.008 11.5311 9.952C11.5311 10.704 11.3071 11.416 10.8591 12.088C10.4111 12.76 9.82709 13.304 9.10709 13.72C10.4511 15.752 11.5711 17.344 12.4671 18.496C13.3791 19.632 14.1871 20.456 14.8911 20.968C15.5951 21.464 16.2831 21.712 16.9551 21.712ZM5.26709 13.768C5.87509 13.832 6.34709 13.864 6.68309 13.864C7.70709 13.864 8.43509 13.64 8.86709 13.192C9.31509 12.728 9.53909 11.936 9.53909 10.816C9.53909 9.552 9.29909 8.656 8.81909 8.128C8.33909 7.6 7.67509 7.336 6.82709 7.336C6.41109 7.336 6.09109 7.376 5.86709 7.456C5.65909 7.536 5.50709 7.696 5.41109 7.936C5.31509 8.16 5.26709 8.512 5.26709 8.992V13.768ZM33.627 21.712C33.691 21.712 33.723 21.76 33.723 21.856C33.723 21.952 33.691 22 33.627 22C33.323 22 32.835 21.984 32.163 21.952C31.523 21.92 31.051 21.904 30.747 21.904C30.379 21.904 29.923 21.92 29.379 21.952C28.835 21.984 28.427 22 28.155 22C28.091 22 28.059 21.952 28.059 21.856C28.059 21.76 28.091 21.712 28.155 21.712C28.699 21.712 29.091 21.664 29.331 21.568C29.571 21.456 29.691 21.264 29.691 20.992C29.691 20.72 29.571 20.344 29.331 19.864L26.643 14.296H22.227L20.259 18.832C20.035 19.36 19.923 19.8 19.923 20.152C19.923 21.192 20.699 21.712 22.251 21.712C22.331 21.712 22.371 21.76 22.371 21.856C22.371 21.952 22.331 22 22.251 22C21.963 22 21.547 21.984 21.003 21.952C20.395 21.92 19.867 21.904 19.419 21.904C19.003 21.904 18.507 21.92 17.931 21.952C17.419 21.984 17.003 22 16.683 22C16.619 22 16.587 21.952 16.587 21.856C16.587 21.76 16.619 21.712 16.683 21.712C17.131 21.712 17.507 21.624 17.811 21.448C18.131 21.272 18.435 20.968 18.723 20.536C19.011 20.104 19.339 19.464 19.707 18.616L24.819 6.832C24.835 6.784 24.891 6.76 24.987 6.76C25.083 6.744 25.139 6.768 25.155 6.832L30.939 18.712C31.483 19.88 31.947 20.672 32.331 21.088C32.715 21.504 33.147 21.712 33.627 21.712ZM22.443 13.744H26.379L24.315 9.424L22.443 13.744ZM50.2363 21.712C50.2683 21.712 50.2843 21.76 50.2843 21.856C50.2843 21.952 50.2683 22 50.2363 22H46.7563C46.3723 22 45.6443 21.32 44.5723 19.96C43.5163 18.584 42.2523 16.704 40.7803 14.32C40.4123 14.4 40.0603 14.44 39.7243 14.44C39.4203 14.44 39.0283 14.424 38.5483 14.392V20.056C38.5483 20.536 38.5963 20.896 38.6923 21.136C38.7883 21.36 38.9643 21.512 39.2203 21.592C39.4923 21.672 39.9163 21.712 40.4923 21.712C40.5403 21.712 40.5643 21.76 40.5643 21.856C40.5643 21.952 40.5403 22 40.4923 22C39.9963 22 39.6043 21.992 39.3163 21.976L37.5883 21.952L35.9083 21.976C35.6043 21.992 35.1963 22 34.6843 22C34.6363 22 34.6123 21.952 34.6123 21.856C34.6123 21.76 34.6363 21.712 34.6843 21.712C35.2603 21.712 35.6843 21.672 35.9563 21.592C36.2283 21.512 36.4123 21.36 36.5083 21.136C36.6043 20.896 36.6523 20.536 36.6523 20.056V8.944C36.6523 8.464 36.6043 8.112 36.5083 7.888C36.4123 7.664 36.2283 7.512 35.9563 7.432C35.7003 7.336 35.2843 7.288 34.7083 7.288C34.6763 7.288 34.6603 7.24 34.6603 7.144C34.6603 7.048 34.6763 7 34.7083 7L35.9083 7.024C36.6123 7.056 37.1723 7.072 37.5883 7.072C37.8763 7.072 38.1483 7.064 38.4043 7.048C38.6603 7.032 38.8843 7.016 39.0763 7C39.6043 6.952 40.1003 6.928 40.5643 6.928C41.9243 6.928 42.9723 7.2 43.7083 7.744C44.4443 8.272 44.8123 9.008 44.8123 9.952C44.8123 10.704 44.5883 11.416 44.1403 12.088C43.6923 12.76 43.1083 13.304 42.3883 13.72C43.7323 15.752 44.8523 17.344 45.7483 18.496C46.6603 19.632 47.4683 20.456 48.1723 20.968C48.8763 21.464 49.5643 21.712 50.2363 21.712ZM38.5483 13.768C39.1563 13.832 39.6283 13.864 39.9643 13.864C40.9883 13.864 41.7163 13.64 42.1483 13.192C42.5963 12.728 42.8203 11.936 42.8203 10.816C42.8203 9.552 42.5803 8.656 42.1003 8.128C41.6203 7.6 40.9563 7.336 40.1083 7.336C39.6923 7.336 39.3723 7.376 39.1483 7.456C38.9403 7.536 38.7883 7.696 38.6923 7.936C38.5963 8.16 38.5483 8.512 38.5483 8.992V13.768ZM61.5563 18.352C61.5563 18.32 61.5883 18.304 61.6523 18.304C61.7003 18.304 61.7403 18.32 61.7723 18.352C61.8203 18.368 61.8443 18.384 61.8443 18.4C61.6843 19.552 61.6043 20.632 61.6043 21.64C61.6043 21.768 61.5803 21.864 61.5323 21.928C61.4843 21.976 61.3883 22 61.2443 22H51.0203C50.9723 22 50.9483 21.952 50.9483 21.856C50.9483 21.76 50.9723 21.712 51.0203 21.712C51.5963 21.712 52.0123 21.672 52.2683 21.592C52.5243 21.512 52.7003 21.36 52.7963 21.136C52.8923 20.896 52.9403 20.536 52.9403 20.056V8.944C52.9403 8.464 52.8923 8.112 52.7963 7.888C52.7003 7.664 52.5163 7.512 52.2443 7.432C51.9883 7.336 51.5803 7.288 51.0203 7.288C50.9723 7.288 50.9483 7.24 50.9483 7.144C50.9483 7.048 50.9723 7 51.0203 7H60.8123C60.9723 7 61.0523 7.072 61.0523 7.216L61.1003 10.24C61.1003 10.288 61.0523 10.32 60.9563 10.336C60.8763 10.336 60.8283 10.312 60.8123 10.264C60.7003 9.384 60.3883 8.72 59.8763 8.272C59.3643 7.808 58.6923 7.576 57.8603 7.576H56.6363C55.9323 7.576 55.4603 7.68 55.2203 7.888C54.9803 8.08 54.8603 8.464 54.8603 9.04V13.912H57.5003C58.3163 13.912 58.9163 13.776 59.3003 13.504C59.6843 13.216 59.8763 12.776 59.8763 12.184C59.8763 12.152 59.9163 12.136 59.9963 12.136C60.0923 12.136 60.1403 12.152 60.1403 12.184L60.1163 14.2L60.1403 15.28C60.1723 15.792 60.1883 16.192 60.1883 16.48C60.1883 16.512 60.1403 16.528 60.0443 16.528C59.9483 16.528 59.9003 16.512 59.9003 16.48C59.9003 15.792 59.7003 15.288 59.3003 14.968C58.9163 14.632 58.2923 14.464 57.4283 14.464H54.8603V19.96C54.8603 20.536 54.9643 20.928 55.1723 21.136C55.3963 21.344 55.8363 21.448 56.4923 21.448H58.0523C58.9643 21.448 59.7163 21.184 60.3083 20.656C60.9163 20.112 61.3323 19.344 61.5563 18.352ZM78.3651 22.288C76.6211 22.288 75.1011 21.952 73.8051 21.28C72.5091 20.608 71.5171 19.696 70.8291 18.544C70.1411 17.392 69.7971 16.104 69.7971 14.68C69.7971 13.128 70.1891 11.752 70.9731 10.552C71.7731 9.352 72.8611 8.416 74.2371 7.744C75.6291 7.072 77.1891 6.736 78.9171 6.736C79.6851 6.736 80.4291 6.808 81.1491 6.952C81.8851 7.096 82.4851 7.288 82.9491 7.528C83.0771 7.608 83.1571 7.68 83.1891 7.744C83.2211 7.808 83.2451 7.92 83.2611 8.08L83.5731 10.984C83.5731 11.032 83.5251 11.064 83.4291 11.08C83.3491 11.08 83.3011 11.056 83.2851 11.008C82.8691 9.824 82.1891 8.912 81.2451 8.272C80.3011 7.632 79.1651 7.312 77.8371 7.312C75.9491 7.312 74.4931 7.888 73.4691 9.04C72.4451 10.192 71.9331 11.776 71.9331 13.792C71.9331 15.36 72.2371 16.76 72.8451 17.992C73.4531 19.208 74.2851 20.16 75.3411 20.848C76.4131 21.536 77.6211 21.88 78.9651 21.88C79.7331 21.88 80.3251 21.808 80.7411 21.664C81.1571 21.52 81.4611 21.24 81.6531 20.824C81.8451 20.408 81.9411 19.792 81.9411 18.976C81.9411 18.144 81.8851 17.568 81.7731 17.248C81.6771 16.912 81.4531 16.688 81.1011 16.576C80.7651 16.464 80.1731 16.408 79.3251 16.408C79.2291 16.408 79.1811 16.344 79.1811 16.216C79.1811 16.168 79.1891 16.128 79.2051 16.096C79.2371 16.048 79.2691 16.024 79.3011 16.024C80.5811 16.104 81.6211 16.144 82.4211 16.144C83.1731 16.144 83.9731 16.12 84.8211 16.072C84.8531 16.072 84.8771 16.096 84.8931 16.144C84.9251 16.176 84.9411 16.208 84.9411 16.24C84.9411 16.352 84.9011 16.408 84.8211 16.408C84.4691 16.392 84.2211 16.448 84.0771 16.576C83.9331 16.688 83.8371 16.928 83.7891 17.296C83.7571 17.664 83.7411 18.304 83.7411 19.216C83.7411 19.936 83.7651 20.448 83.8131 20.752C83.8771 21.056 83.9091 21.248 83.9091 21.328C83.9091 21.424 83.8851 21.488 83.8371 21.52C83.8051 21.536 83.7331 21.568 83.6211 21.616C81.6531 22.064 79.9011 22.288 78.3651 22.288ZM102.385 21.712C102.417 21.712 102.433 21.76 102.433 21.856C102.433 21.952 102.417 22 102.385 22H98.9048C98.5208 22 97.7928 21.32 96.7208 19.96C95.6648 18.584 94.4008 16.704 92.9288 14.32C92.5608 14.4 92.2088 14.44 91.8728 14.44C91.5688 14.44 91.1768 14.424 90.6968 14.392V20.056C90.6968 20.536 90.7448 20.896 90.8408 21.136C90.9368 21.36 91.1128 21.512 91.3688 21.592C91.6408 21.672 92.0648 21.712 92.6408 21.712C92.6888 21.712 92.7128 21.76 92.7128 21.856C92.7128 21.952 92.6888 22 92.6408 22C92.1448 22 91.7528 21.992 91.4648 21.976L89.7368 21.952L88.0568 21.976C87.7528 21.992 87.3448 22 86.8328 22C86.7848 22 86.7608 21.952 86.7608 21.856C86.7608 21.76 86.7848 21.712 86.8328 21.712C87.4088 21.712 87.8328 21.672 88.1048 21.592C88.3768 21.512 88.5608 21.36 88.6568 21.136C88.7528 20.896 88.8008 20.536 88.8008 20.056V8.944C88.8008 8.464 88.7528 8.112 88.6568 7.888C88.5608 7.664 88.3768 7.512 88.1048 7.432C87.8488 7.336 87.4328 7.288 86.8568 7.288C86.8248 7.288 86.8088 7.24 86.8088 7.144C86.8088 7.048 86.8248 7 86.8568 7L88.0568 7.024C88.7608 7.056 89.3208 7.072 89.7368 7.072C90.0248 7.072 90.2968 7.064 90.5528 7.048C90.8088 7.032 91.0328 7.016 91.2248 7C91.7528 6.952 92.2488 6.928 92.7128 6.928C94.0728 6.928 95.1208 7.2 95.8568 7.744C96.5928 8.272 96.9608 9.008 96.9608 9.952C96.9608 10.704 96.7368 11.416 96.2888 12.088C95.8408 12.76 95.2568 13.304 94.5368 13.72C95.8808 15.752 97.0008 17.344 97.8968 18.496C98.8088 19.632 99.6168 20.456 100.321 20.968C101.025 21.464 101.713 21.712 102.385 21.712ZM90.6968 13.768C91.3048 13.832 91.7768 13.864 92.1128 13.864C93.1368 13.864 93.8648 13.64 94.2968 13.192C94.7448 12.728 94.9688 11.936 94.9688 10.816C94.9688 9.552 94.7288 8.656 94.2488 8.128C93.7688 7.6 93.1048 7.336 92.2568 7.336C91.8408 7.336 91.5208 7.376 91.2968 7.456C91.0888 7.536 90.9368 7.696 90.8408 7.936C90.7448 8.16 90.6968 8.512 90.6968 8.992V13.768ZM119.057 21.712C119.121 21.712 119.153 21.76 119.153 21.856C119.153 21.952 119.121 22 119.057 22C118.753 22 118.265 21.984 117.593 21.952C116.953 21.92 116.481 21.904 116.177 21.904C115.809 21.904 115.353 21.92 114.809 21.952C114.265 21.984 113.857 22 113.585 22C113.521 22 113.489 21.952 113.489 21.856C113.489 21.76 113.521 21.712 113.585 21.712C114.129 21.712 114.521 21.664 114.761 21.568C115.001 21.456 115.121 21.264 115.121 20.992C115.121 20.72 115.001 20.344 114.761 19.864L112.073 14.296H107.657L105.689 18.832C105.465 19.36 105.353 19.8 105.353 20.152C105.353 21.192 106.129 21.712 107.681 21.712C107.761 21.712 107.801 21.76 107.801 21.856C107.801 21.952 107.761 22 107.681 22C107.393 22 106.977 21.984 106.433 21.952C105.825 21.92 105.297 21.904 104.849 21.904C104.433 21.904 103.937 21.92 103.361 21.952C102.849 21.984 102.433 22 102.113 22C102.049 22 102.017 21.952 102.017 21.856C102.017 21.76 102.049 21.712 102.113 21.712C102.561 21.712 102.937 21.624 103.241 21.448C103.561 21.272 103.865 20.968 104.153 20.536C104.441 20.104 104.769 19.464 105.137 18.616L110.249 6.832C110.265 6.784 110.321 6.76 110.417 6.76C110.513 6.744 110.569 6.768 110.585 6.832L116.369 18.712C116.913 19.88 117.377 20.672 117.761 21.088C118.145 21.504 118.577 21.712 119.057 21.712ZM107.873 13.744H111.809L109.745 9.424L107.873 13.744ZM138.738 21.712C138.77 21.712 138.786 21.76 138.786 21.856C138.786 21.952 138.77 22 138.738 22C138.226 22 137.818 21.992 137.514 21.976L135.81 21.952L134.202 21.976C133.93 21.992 133.554 22 133.074 22C133.026 22 133.002 21.952 133.002 21.856C133.002 21.76 133.026 21.712 133.074 21.712C133.778 21.712 134.25 21.632 134.49 21.472C134.746 21.312 134.874 20.976 134.874 20.464L134.85 20.056L134.394 9.496L129.09 21.832C129.058 21.896 128.994 21.928 128.898 21.928C128.802 21.928 128.738 21.896 128.706 21.832L122.73 9.592L122.538 19.24C122.522 20.088 122.674 20.712 122.994 21.112C123.314 21.512 123.834 21.712 124.554 21.712C124.602 21.712 124.626 21.76 124.626 21.856C124.626 21.952 124.602 22 124.554 22C124.122 22 123.786 21.992 123.546 21.976L122.226 21.952L120.906 21.976C120.682 21.992 120.354 22 119.922 22C119.89 22 119.874 21.952 119.874 21.856C119.874 21.76 119.89 21.712 119.922 21.712C121.25 21.712 121.922 20.888 121.938 19.24L122.154 8.488C121.642 7.688 120.954 7.288 120.09 7.288C120.058 7.288 120.042 7.24 120.042 7.144C120.042 7.048 120.058 7 120.09 7L121.05 7.024C121.242 7.04 121.49 7.048 121.794 7.048C122.146 7.048 122.434 7.04 122.658 7.024C122.882 7.008 123.058 7 123.186 7C123.394 7 123.562 7.072 123.69 7.216C123.818 7.36 124.018 7.704 124.29 8.248L129.618 19.072L134.634 7.6C134.794 7.2 135.034 7 135.354 7C135.45 7 135.578 7.008 135.738 7.024C135.898 7.04 136.106 7.048 136.362 7.048L137.586 7.024C137.778 7.008 138.058 7 138.426 7C138.474 7 138.498 7.048 138.498 7.144C138.498 7.24 138.474 7.288 138.426 7.288C137.642 7.288 137.074 7.416 136.722 7.672C136.386 7.928 136.226 8.376 136.242 9.016L136.77 20.056C136.802 20.552 136.866 20.912 136.962 21.136C137.058 21.36 137.234 21.512 137.49 21.592C137.746 21.672 138.162 21.712 138.738 21.712ZM149.797 7.6C149.845 7.52 149.861 7.472 149.845 7.456C149.845 7.424 149.789 7.408 149.677 7.408C147.165 7.408 145.397 7.464 144.373 7.576C143.349 7.672 142.597 7.904 142.117 8.272C141.653 8.64 141.237 9.288 140.869 10.216C140.837 10.248 140.805 10.264 140.773 10.264C140.725 10.264 140.677 10.256 140.629 10.24C140.581 10.208 140.565 10.184 140.581 10.168L141.541 6.28C141.541 6.264 141.573 6.256 141.637 6.256C141.797 6.256 141.861 6.28 141.829 6.328C141.813 6.376 141.805 6.44 141.805 6.52C141.805 6.712 141.893 6.84 142.069 6.904C142.261 6.968 142.637 7 143.197 7H151.957C152.037 7 152.093 7.04 152.125 7.12C152.173 7.2 152.173 7.264 152.125 7.312L143.101 21.352C143.037 21.432 143.013 21.488 143.029 21.52C143.045 21.536 143.101 21.544 143.197 21.544H148.909C149.917 21.544 150.733 21.296 151.357 20.8C151.981 20.288 152.381 19.56 152.557 18.616C152.573 18.584 152.621 18.568 152.701 18.568C152.781 18.568 152.821 18.584 152.821 18.616L152.485 21.808C152.485 21.856 152.461 21.912 152.413 21.976C152.381 22.024 152.333 22.048 152.269 22.048C149.885 22.016 146.053 22 140.773 22C140.709 22 140.661 21.968 140.629 21.904C140.597 21.824 140.605 21.752 140.653 21.688L149.797 7.6Z" fill="white"/>
<path opacity="0.3" d="M144.375 33.375L9.125 33.125" stroke="#979797"/>
</g>
<defs>
<linearGradient id="paint0_linear" x1="57.2234" y1="69.0578" x2="11.9768" y2="128.377" gradientUnits="userSpaceOnUse">
<stop stop-color="white" stop-opacity="0.28"/>
<stop offset="1" stop-color="white" stop-opacity="0.02"/>
</linearGradient>
<clipPath id="clip0">
<rect width="154" height="151" fill="white"/>
</clipPath>
</defs>
</svg>
